<svg width="71" height="105" viewBox="0 0 71 105" fill="none" xmlns="http://www.w3.org/2000/svg">
<path d="M35.5399 104.496C32.6352 99.7024 29.8605 95.1263 27.0901 90.5481C20.3878 79.4752 13.6556 68.4192 6.99808 57.3186C3.28784 51.1369 0.698554 44.4889 0.0997159 37.2723C-0.413879 31.097 1.08428 25.2113 3.95274 19.7281C10.7275 6.77914 24.1321 -0.563076 38.6854 0.625136C54.8924 1.9475 68.3715 14.7644 70.7157 30.8266C71.5938 36.8443 70.33 42.4425 68.4014 48.0216C66.509 53.4984 63.4956 58.3918 60.5142 63.3065C53.245 75.2823 45.9908 87.2688 38.7301 99.2489C37.7072 100.937 36.68 102.626 35.542 104.5L35.5399 104.496Z" fill="#63483F"/>
<path d="M33.491 48.4281C32.2369 49.7461 30.4372 50.5 28.5482 50.5C28.5237 50.5 28.4975 50.5 28.473 50.4982C26.563 50.4803 24.7545 49.6798 23.511 48.3063C22.4913 47.1782 21.9805 45.7796 22.075 44.3757V44.3309H23.5862L23.5984 44.3649C23.7576 46.546 26.4249 49.0656 29.2163 48.7504C31.4446 48.498 33.2566 46.6266 33.3458 44.4921C33.4438 42.0656 31.5128 39.7538 28.6357 39.7466L28.2019 39.7394L28.9015 38.2281C30.4162 38.1708 31.9868 38.6757 33.1797 39.7645C34.4145 40.8945 35.1071 42.5348 35.1631 44.1106C35.2173 45.7098 34.6226 47.2426 33.4892 48.4317L33.491 48.4281ZM22.8901 34.8239V36.7203H33.3511L34.2273 34.8239H22.8901ZM49.7588 44.1071C49.7029 42.533 49.0103 40.8927 47.7754 39.7609C46.5826 38.6722 45.0119 38.1672 43.4973 38.2245L42.7977 39.7359L43.2314 39.743C46.1086 39.7502 48.0413 42.062 47.9416 44.4885C47.8524 46.623 46.0404 48.4944 43.8121 48.7469C41.0189 49.062 38.3533 46.5425 38.1942 44.3613L38.1819 44.3273H36.6725V44.3721C36.5763 45.7778 37.087 47.1746 38.1067 48.3028C39.3503 49.6763 41.1571 50.4767 43.0688 50.4946C43.0932 50.4964 43.1195 50.4964 43.144 50.4964C45.0329 50.4964 46.8309 49.7425 48.0868 48.4245C49.2201 47.2337 49.8131 45.7008 49.7606 44.1035L49.7588 44.1071ZM37.4841 34.8239V36.7203H47.9451L48.8214 34.8239H37.4841ZM7 22.6737V28.7461H7.98996V26.3644L11.9078 28.6906V27.5159L8.82425 25.6839L11.9078 23.8538V22.6773L7.98996 25.0035V22.6737H7ZM53.5892 22.6773L49.6714 25.0035V22.6737H48.6814V28.7461H49.6714V26.3644L53.5892 28.6906V27.5141L50.5057 25.6839L53.5892 23.852V22.6755V22.6773ZM13.5956 25.8218V23.6443H15.182C15.5878 23.6443 15.8991 23.7446 16.1178 23.9433C16.3364 24.1421 16.4466 24.4053 16.4466 24.7295C16.4466 25.0536 16.3364 25.324 16.1178 25.5228C15.8991 25.7215 15.5861 25.8218 15.182 25.8218H13.5956ZM13.5956 28.7461V26.7942H15.1978C15.6525 26.7942 16.053 26.7029 16.3959 26.522C16.7387 26.3393 17.0045 26.0922 17.1934 25.7806C17.3823 25.469 17.475 25.1181 17.475 24.7313C17.475 24.3445 17.3806 24.0006 17.1934 23.6855C17.0045 23.3703 16.7387 23.1232 16.3959 22.9441C16.053 22.765 15.6543 22.6755 15.1978 22.6755H12.5917V28.7479H13.5956V28.7461ZM23.7016 28.7461H24.7143V22.6737H23.7016V28.7461ZM19.3745 27.7755V25.641H20.7667C21.1655 25.641 21.4716 25.7377 21.6815 25.9311C21.8931 26.1245 21.998 26.3841 21.998 26.7082C21.998 27.0324 21.8931 27.2902 21.6815 27.4854C21.4716 27.6788 21.1655 27.7755 20.7667 27.7755H19.3745ZM20.7492 28.7461C21.2057 28.7461 21.6045 28.6584 21.9508 28.4811C22.2971 28.3056 22.563 28.062 22.7484 27.7522C22.9338 27.4424 23.0265 27.095 23.0265 26.7064C23.0265 26.3179 22.9338 25.9794 22.7484 25.6696C22.563 25.3598 22.2971 25.1163 21.9508 24.9372C21.6045 24.7581 21.204 24.6686 20.7492 24.6686H19.3745V22.6737H18.3705V28.7461H20.7492ZM26.4354 28.7461L27.7262 23.6461H28.5954L29.8775 28.7461H30.8902L29.372 22.6737H26.9513L25.4332 28.7461H26.4371H26.4354ZM33.4105 23.6461H34.3463L34.9952 26.214H32.7599L33.4088 23.6461H33.4105ZM32.1285 28.7461L32.5255 27.1846H35.233L35.6301 28.7461H36.6585L35.1229 22.6737H32.634L31.0983 28.7461H32.1267H32.1285ZM39.485 28.7461V23.6461H41.4509V22.6755H36.5168V23.6461H38.4828V28.7461H39.4867H39.485ZM45.0347 28.9198C45.5751 28.9198 46.0491 28.8088 46.4601 28.5849C46.8712 28.3629 47.2035 28.071 47.4606 27.7093C47.716 27.3475 47.9066 26.9554 48.0308 26.5345H47.0024C46.8677 26.9285 46.6333 27.2616 46.3027 27.5373C45.9704 27.8113 45.5489 27.9492 45.0364 27.9492C44.6254 27.9492 44.2599 27.8543 43.9398 27.6663C43.6197 27.4783 43.3696 27.2168 43.1929 26.8819C43.0163 26.5471 42.9271 26.1567 42.9271 25.7108C42.9271 25.2649 43.0163 24.8835 43.1964 24.5486C43.3766 24.2137 43.6267 23.9505 43.9468 23.7589C44.2669 23.5691 44.6306 23.4724 45.0347 23.4724C45.5349 23.4724 45.9477 23.5977 46.2713 23.8448C46.5948 24.0938 46.824 24.3964 46.9586 24.7563H47.9871C47.8751 24.357 47.6967 23.9863 47.4519 23.6461C47.207 23.304 46.8817 23.0283 46.4724 22.817C46.0649 22.6057 45.5856 22.5 45.0347 22.5C44.4278 22.5 43.8838 22.6379 43.4063 22.9155C42.9288 23.193 42.5528 23.5762 42.2799 24.0651C42.0071 24.554 41.8707 25.1019 41.8707 25.709C41.8707 26.3161 42.0071 26.864 42.2799 27.3529C42.5528 27.8418 42.9271 28.225 43.4063 28.5026C43.8838 28.7801 44.4278 28.9198 45.0347 28.9198ZM56.372 23.6461H57.3077L57.9566 26.214H55.7213L56.3702 23.6461H56.372ZM55.0899 28.7461L55.487 27.1846H58.1945L58.5915 28.7461H59.6199L58.0843 22.6737H55.5954L54.0597 28.7461H55.0882H55.0899ZM62.3607 25.6499C61.9724 25.6499 61.6768 25.5586 61.4704 25.3759C61.2658 25.1933 61.1626 24.9497 61.1626 24.6435C61.1626 24.3373 61.2658 24.1081 61.4704 23.9236C61.6751 23.7392 61.9724 23.6461 62.3607 23.6461H63.9891V25.6499H62.3607ZM60.1499 28.7461H61.2885L62.5111 26.6205H63.9873V28.7461H65V22.6737H62.3589C61.9094 22.6737 61.5142 22.7597 61.1731 22.9298C60.832 23.0999 60.5749 23.3363 60.3965 23.6371C60.2199 23.938 60.1307 24.2728 60.1307 24.6435C60.1307 25.1002 60.2583 25.4887 60.5137 25.8057C60.7691 26.1245 61.0979 26.3519 61.4967 26.4916L60.1464 28.7461H60.1499Z" fill="white"/>
</svg>
