<svg width="233" height="69" viewBox="0 0 233 69" fill="none" xmlns="http://www.w3.org/2000/svg">
<g clip-path="url(#clip0_1408_37281)">
<path d="M0 1.08548V34.9316C0 34.9316 0 48.1404 11.1051 54.7449C22.2102 61.3493 34.1387 68.1892 34.1387 68.1892V68.1761L34.1516 68.1892C34.1516 68.1892 46.0801 61.3493 57.1852 54.7449C68.2903 48.1404 68.2903 34.9316 68.2903 34.9316V2.19058L68.3162 2.13827V1.08548H0ZM49.7688 27.3659C49.7688 27.464 49.7623 27.5555 49.7558 27.7125C49.6521 27.6275 49.5808 27.5817 49.5225 27.5228C48.3231 26.3327 46.8645 25.6592 45.2438 25.2734C44.2519 25.038 43.2406 24.9726 42.2228 24.9792C41.3541 24.9792 40.4854 24.9857 39.6167 24.9792C39.3898 24.9792 39.286 25.0315 39.286 25.293C39.2925 29.5369 39.2601 33.7807 39.312 38.018C39.3379 40.2871 39.7528 42.5038 40.7901 44.5505C40.9846 44.9298 41.2244 45.2894 41.4643 45.6883H27.1955C27.215 45.636 27.215 45.5968 27.2344 45.5641C28.2652 44.1386 28.7449 42.4907 29.0626 40.7906C29.2765 39.6332 29.3478 38.4692 29.3478 37.2922C29.3478 33.3361 29.3478 29.3799 29.3478 25.4238C29.3478 24.9792 29.3478 24.9792 28.92 24.9792C27.7012 24.9792 26.4759 24.9399 25.2637 25.0118C22.9298 25.1557 20.8099 25.875 19.0985 27.5621C19.0661 27.5948 19.0207 27.6144 18.9364 27.6732C18.9234 27.5359 18.8975 27.4313 18.8975 27.3332C18.8975 23.9852 18.8975 20.6372 18.8975 17.2958C18.8975 17.0015 19.0077 16.9296 19.2735 16.9296C29.3154 16.9296 39.3574 16.9296 49.3993 16.9296C49.691 16.9296 49.7818 17.0146 49.7818 17.3154C49.7753 20.6634 49.7818 24.0114 49.7753 27.3528L49.7688 27.3659ZM148.762 28.4514C149.994 35.337 149.19 41.9218 146.473 48.2712C143.018 56.347 137.203 62.1405 129.346 65.8089C113.547 73.1915 94.6236 67.0841 85.7745 51.8285C77.2561 37.1418 80.6661 17.2696 95.2914 6.66983C109.242 -3.44608 126.817 -0.627748 136.49 7.80108C136.12 8.08226 135.764 8.3569 135.401 8.63154C133.812 9.81511 132.211 10.9791 130.649 12.1953C130.163 12.5746 129.819 12.5353 129.333 12.2149C119.777 6.04862 107.524 6.66983 98.7532 13.9216C92.037 19.4733 88.7307 26.7382 88.9836 35.507C89.3466 48.1274 98.9866 58.9103 111.349 60.6954C125.352 62.716 138.325 53.4502 140.995 39.4697C141.307 37.8545 141.307 36.1805 141.495 34.5392C141.534 34.1796 141.676 33.7153 141.935 33.5191C144.081 31.8648 146.26 30.2627 148.431 28.6476C148.509 28.5887 148.606 28.5495 148.755 28.4645L148.762 28.4514ZM102.273 25.4042C103.252 26.0189 104.115 26.5485 104.97 27.0913C108.173 29.1118 111.375 31.1324 114.565 33.1726C115.071 33.4995 115.44 33.4407 115.907 33.0941C124.354 26.797 132.814 20.513 141.268 14.229C141.566 14.0066 141.871 13.7974 142.208 13.5554C143.841 15.6479 145.157 17.8843 146.266 20.3037C145.864 20.6111 145.488 20.8988 145.106 21.1865C135.381 28.4187 125.657 35.6509 115.946 42.8961C115.434 43.2819 115.045 43.3081 114.5 42.955C110.63 40.4767 106.734 38.0311 102.857 35.5528C102.598 35.3893 102.306 35.0231 102.306 34.7485C102.267 31.6947 102.28 28.6345 102.28 25.4107L102.273 25.4042ZM198.796 0C179.905 0 164.593 15.4452 164.593 34.5C164.593 53.5548 179.905 69 198.796 69C217.688 69 233 53.5548 233 34.5C233 15.4452 217.688 0 198.796 0ZM212.423 49.1278H174.019L176.781 41.5949H215.224L212.423 49.1278ZM216.624 37.7303H178.226L180.988 30.2038H219.431L216.624 37.7303ZM220.767 26.0908H182.369L185.131 18.5578H223.567L220.767 26.0908Z" fill="#634840" fill-opacity="0.25"/>
</g>
<defs>
<clipPath id="clip0_1408_37281">
<rect width="233" height="69" fill="white"/>
</clipPath>
</defs>
</svg>
