<svg width="96" height="96" viewBox="0 0 96 96" fill="none" xmlns="http://www.w3.org/2000/svg">
<g clip-path="url(#clip0_1408_37284)">
<path d="M15.8801 7.49871V0.0854469H23.3423C23.3423 0.686732 23.3423 1.31517 23.3423 1.93973C23.3423 3.45652 23.385 4.97331 23.3229 6.4901C23.2919 7.28923 23.6293 7.52198 24.3313 7.49483C24.5873 7.48319 24.8471 7.49871 25.107 7.49871C40.4968 7.49871 55.8904 7.49871 71.2802 7.49871C71.7573 7.49871 72.2343 7.45604 72.8355 7.42888C72.8355 5.55908 72.8355 3.7591 72.8355 1.96301C72.8355 1.57508 72.8471 1.18716 72.8355 0.80311C72.82 0.228979 73.0954 0.00398248 73.6616 0.00786174C75.8879 0.0233788 78.1102 0.011741 80.4528 0.011741V7.49871C81.1083 7.49871 81.6513 7.45992 82.1865 7.50647C84.1956 7.68491 86.2395 7.70431 88.1943 8.13491C91.2311 8.80214 93.3216 10.8659 94.8381 13.4999C95.7146 15.0283 95.9978 16.6926 95.9978 18.477C95.9667 40.8099 95.9861 63.1428 95.9978 85.4718C95.9978 89.2618 94.14 91.989 91.204 94.1264C89.3539 95.4725 87.2712 96.004 84.9751 96.0001C60.3546 95.9768 35.7379 95.9885 11.1173 95.9807C6.77733 95.9807 3.67067 93.8316 1.54527 90.1967C0.455419 88.3269 0.0132726 86.2283 0.0132726 84.0597C0.00939409 62.5687 -0.0255122 41.0737 0.0365434 19.5826C0.0520573 14.3456 2.39466 10.3538 7.38237 8.34827C8.88334 7.7431 10.6325 7.70043 12.2809 7.52586C13.425 7.40561 14.5886 7.50259 15.884 7.50259L15.8801 7.49871ZM7.81288 35.4604C7.79349 35.8832 7.76634 36.2013 7.76634 36.5194C7.76634 52.5602 7.80125 68.6009 7.73144 84.6416C7.7198 87.1864 9.72497 88.6373 11.7728 88.6334C36.0404 88.6256 60.3042 88.6256 84.5718 88.6412C86.4955 88.6412 88.6907 87.1438 88.6752 84.5641C88.5976 68.5233 88.6364 52.4826 88.6364 36.4419C88.6364 36.1276 88.6093 35.8173 88.5899 35.4565H7.81288V35.4604ZM7.80125 27.6476H88.6209C88.6209 24.42 88.6519 21.2623 88.6054 18.1046C88.5899 16.8865 87.023 15.2146 85.7974 15.1486C84.0714 15.0555 82.3339 15.1253 80.4955 15.1253V22.4998C78.1064 22.4998 75.8219 22.4959 73.5375 22.4998C72.8937 22.4998 72.8278 22.1041 72.8316 21.5998C72.8433 20.18 72.8316 18.7602 72.8316 17.3404C72.8316 16.6188 72.8316 15.8934 72.8316 15.1913H23.3307V22.4106H15.853V15.2456C15.6978 15.1796 15.6435 15.1331 15.5853 15.1331C14.0689 15.1253 12.5524 15.168 11.0398 15.0982C9.72109 15.0361 7.86718 16.5335 7.8284 17.9068C7.73919 21.1265 7.80125 24.3463 7.80125 27.6476Z" fill="#634840" fill-opacity="0.25"/>
<path d="M44.5228 73.1482C46.7568 73.1482 49.0413 73.1288 51.3218 73.1792C51.5506 73.1831 51.9579 73.6059 51.9656 73.8387C52.0161 75.8676 51.985 77.8964 52.0044 79.9253C52.0083 80.5576 51.7058 80.7903 51.1201 80.7903C49.0917 80.7903 47.0632 80.8059 45.0348 80.7632C44.7943 80.7593 44.3561 80.414 44.3561 80.2201C44.3173 77.9352 44.3444 75.6503 44.3561 73.3654C44.3561 73.315 44.4298 73.2646 44.519 73.1521L44.5228 73.1482Z" fill="#634840" fill-opacity="0.25"/>
<path d="M51.9962 65.6411H44.375V58.2744C45.6471 58.2744 46.8921 58.2744 48.1371 58.2744C49.1688 58.2744 50.2005 58.2356 51.2283 58.3055C51.4959 58.3248 51.9574 58.6856 51.9652 58.899C52.0195 61.1179 52.0001 63.3369 52.0001 65.6411H51.9962Z" fill="#634840" fill-opacity="0.25"/>
<path d="M44.375 50.558V43.1913C46.7719 43.1913 49.1145 43.1797 51.4571 43.2146C51.6394 43.2146 51.9691 43.5366 51.9729 43.7111C52.0078 45.8059 52.0117 47.9007 51.9729 49.9955C51.9729 50.1856 51.6045 50.527 51.4028 50.5309C49.0873 50.5697 46.7719 50.5542 44.3789 50.5542L44.375 50.558Z" fill="#634840" fill-opacity="0.25"/>
<path d="M59.4492 65.6639C59.4492 63.4799 59.4492 61.3618 59.4492 59.2437C59.4492 58.9605 59.4841 58.6773 59.5074 58.3398H66.764V65.6639H59.4492Z" fill="#634840" fill-opacity="0.25"/>
<path d="M82.0008 65.7297C80.5425 65.7297 79.1695 65.7297 77.7927 65.7297C76.9549 65.7297 76.1172 65.6986 75.2794 65.7374C74.6395 65.7646 74.4378 65.5008 74.4455 64.8879C74.4688 62.987 74.4688 61.0862 74.4455 59.1853C74.4378 58.5453 74.6278 58.2543 75.326 58.266C77.2923 58.3009 79.2548 58.2582 81.2212 58.3048C81.485 58.3125 81.9659 58.6539 81.9698 58.8478C82.0241 61.0939 82.0047 63.3439 82.0047 65.7335L82.0008 65.7297Z" fill="#634840" fill-opacity="0.25"/>
<path d="M59.4531 73.1855H66.8532C66.8532 74.8885 66.8532 76.5527 66.8532 78.213C66.8532 79.9277 65.9883 80.785 64.2585 80.785C62.9398 80.785 61.6173 80.785 60.2986 80.785C59.8448 80.785 59.4492 80.7346 59.4492 80.1333C59.4492 77.8523 59.4492 75.5713 59.4492 73.1816L59.4531 73.1855Z" fill="#634840" fill-opacity="0.25"/>
<path d="M81.9531 43.1915V50.5582C79.595 50.5582 77.2873 50.5738 74.9796 50.5311C74.8012 50.5311 74.4871 50.1354 74.4832 49.9182C74.4444 47.8893 74.4405 45.8566 74.4871 43.8277C74.4909 43.6105 74.8788 43.2264 75.0921 43.2226C77.3455 43.176 79.5989 43.1954 81.9531 43.1954V43.1915Z" fill="#634840" fill-opacity="0.25"/>
<path d="M36.8622 65.6832H29.6172V58.3281H36.8622V65.6832Z" fill="#634840" fill-opacity="0.25"/>
<path d="M14.4336 73.1855H21.826C21.826 74.0467 21.826 74.8691 21.826 75.6954C21.826 77.1152 21.8105 78.5312 21.8337 79.9471C21.8415 80.4941 21.6941 80.7928 21.0813 80.785C19.1149 80.7695 17.1524 80.7734 15.186 80.785C14.6663 80.785 14.4259 80.5988 14.4297 80.0518C14.4452 77.798 14.4375 75.548 14.4375 73.1855H14.4336Z" fill="#634840" fill-opacity="0.25"/>
<path d="M29.5469 73.1895H36.9431C36.9431 74.2679 36.9431 75.3502 36.9431 76.4286C36.9431 77.6196 36.9198 78.8105 36.9509 79.9976C36.9664 80.5833 36.7492 80.7967 36.1713 80.7928C34.2088 80.7734 32.2463 80.7773 30.2838 80.7928C29.7563 80.7928 29.5352 80.5872 29.5391 80.0519C29.5546 77.8019 29.5469 75.5558 29.5469 73.1933V73.1895Z" fill="#634840" fill-opacity="0.25"/>
<path d="M59.4961 50.5198V43.2539H66.7915V50.5198H59.4961Z" fill="#634840" fill-opacity="0.25"/>
<path d="M14.4922 58.2773C16.8387 58.2773 19.061 58.2656 21.2795 58.3005C21.4657 58.3005 21.8031 58.6109 21.8031 58.7777C21.838 61.0548 21.8264 63.3358 21.8264 65.6711H14.4922V58.2773Z" fill="#634840" fill-opacity="0.25"/>
<path d="M14.4805 50.4771V43.2578H21.7642V50.4771H14.4805Z" fill="#634840" fill-opacity="0.25"/>
<path d="M29.6094 43.2383H36.866V50.5002H29.6094V43.2383Z" fill="#634840" fill-opacity="0.25"/>
</g>
<defs>
<clipPath id="clip0_1408_37284">
<rect width="96" height="96" fill="white"/>
</clipPath>
</defs>
</svg>
