<svg width="827" height="1031" viewBox="0 0 827 1031" fill="none" xmlns="http://www.w3.org/2000/svg">
<path d="M340.5 943L342.5 941.5L335.5 884L325 867.5L323.5 852.5L318.5 847L298 812L281.5 821L280 818.5V816.5L277 812L276.5 810L271 802H269.5L266 795.5L265 792.5L259.5 784L259 781L256 777.5L240.5 789L238 788L220.5 799H219L193 813.5L194.5 818.5L173 830L168.5 822L165.5 811.5L158.5 795.5L154.5 791L151 792.5L149 789L54.5 841.5V845L53 846L73.5 880.5L75 885L108 936.5L109 942L118.5 956.5V960.5L164 1029L168 1030L177.5 1024.5L181.5 1031L207.5 1014.5L212 1022L213.5 1021L217 1026.5L274 990.5L272 984L304 963L306.5 966L340.5 945V943Z" fill="black"/>
<path d="M26.5 804.5L52.5 846L55 844.5L53.5 840L151.5 786L158 795L166 811.5L172.5 806L144.5 735.5L111.5 677.5L96 684.5L86 667.5L68 677.5L65.5 674L28 696L25 692.5L12.5 700L8.5 699.5L2.5 705L10 719L12 725L19 738L0 749.5V752.5L8.5 766V770.5L17.5 784V788L25 800.5L26.5 804.5Z" fill="black"/>
<path d="M364 710.5L368.5 707.5L363.5 548.5L361.5 543.5H357.5L298.5 464.5L226.5 502L230 522L212 532V534.5L203 539.5L207 560L184 574.5L193 613.5L177.5 623L197.5 701.5L202.5 706L208.5 726.5L213.5 732V737L232 761.5L235.5 770.5L240.5 774.5L244 785L259.5 774.5L263 777.5L267 774.5V770.5L275 765L278 768.5L282.5 764L291.5 758.5L292.5 760L297.5 755L306.5 749L308 750.5L312 747V741L320 735.5L323 741L328.5 737V732L351.5 717.5L355 716V713.5L361.5 709.5L364 710.5Z" fill="black"/>
<path d="M376.5 701L368.5 707.5L363.5 548L361 543.5H357L298 464L294 416L298 414V411.5L303 409L301 378L308 375L304 323.5L308 321V318.5L324 311.5L318.5 222.5L327.5 219V215.5L337.5 213V210L346 205.5V202L359.5 200L367 196.5L366 193L379.5 190.5L387.5 187V183.5L400 181.5L406.5 177.5V174.5L420 172L427.5 168.5V164.5L440.5 162L450.5 159L458 165.5H460.5L471.5 180H474.5L480.5 188.5L483.5 194.5H488.5L493.5 204L498.5 210H504.5L508 220L514 226H519.5V235.5H522L525.5 239.5L479 636L469 642L468 649L458.5 653.5L453.5 659L451 657.5L438.5 664.5L434 670.5L432 667L425.5 670.5L424.5 674L419.5 678.5L415.5 675.5L412 677.5L410.5 683.5L407.5 685.5L405.5 683.5L398 688L393.5 693L390.5 691L383.5 695V698L378.5 702L376.5 701Z" fill="black"/>
<path d="M587 51L508 572L518 585.5L515.5 613L563.5 678.5L572.5 674.5L581.5 689L643 471L647.5 475L709.5 441L715.5 429L717.5 427.5L720.5 430.5L750.5 345.5L740 331.5L752 294.5L747.5 290.5L780 197.5L766.5 185L790 111.5L788 109L796.5 82.5L786.5 73.5L780.5 64L777 65.5L769 58.5L763.5 49.5H759.5L751 43.5L745.5 34H742L734 29L729 20L725.5 19.5L717 14.5L711.5 3H705.5L701.5 0.5L693.5 4.5L678.5 6V11L671.5 14.5L655.5 17V20L649.5 23.5L633 26.5L634.5 30.5L627 34.5L611 36.5L611.5 40.5L589.5 46.5V50L587 51Z" fill="black"/>
<path d="M715.5 429L717.5 427.5L734 444.5L732 448.5L759.5 477L750 498.5L770 520L760.5 540L769 549.5L759 572.5L762 576V580.5L770.5 589L760.5 608L694.5 648L705 659.5L632 703.5L628.5 712.5L618 717L610.5 736L599.5 735L588 718.5L580 705L577 700.5L642.5 471L647.5 475.5L709.5 441L715.5 429Z" fill="black"/>
<path d="M755.5 827.5L775 814.5L774 809.5L818 743.5V738.5L821.5 730L812.5 717L827 695L824 692.5V690.5L818 683.5H816L809.5 676V674L804 667.5H802L795.5 659.5V658L789.5 651.5H788L782.5 645L785 640.5L772.5 627L774.5 622.5L760.5 608L694.5 648L704.5 659.5L632 703.5L628.5 712.5L618 717L610 737.5L601 743L599.5 741.5L594.5 745L584 776L575 782.5L573.5 781.5L567.5 785V787L558.5 792.5L556.5 791L551.5 794L547 811L537 818L535 816.5L530.5 819.5L518 868.5L555 920L560 916.5L566 924L564 928L576 943.5L578 941.5L582.5 946.5L637.5 909L642.5 910.5L719.5 858.5L722 854L749 836.5L755.5 827.5Z" fill="black"/>
</svg>
