<svg width="147" height="110" viewBox="0 0 147 110" fill="none" xmlns="http://www.w3.org/2000/svg">
<g clip-path="url(#clip0_1408_37278)">
<path d="M79.6256 81.5913C79.6256 82.0998 79.6256 82.4648 79.6256 82.8297C79.6256 86.4873 79.5352 90.145 79.6503 93.7985C79.7571 97.1445 78.2819 99.6417 75.804 101.647C73.0919 103.841 69.9689 105.341 66.624 106.244C62.7736 107.285 58.8863 108.277 54.9537 108.905C49.172 109.827 43.3164 110.131 37.4525 109.954C31.3913 109.774 25.3631 109.282 19.4211 108.007C15.2667 107.117 11.2108 105.932 7.42622 103.972C5.08395 102.758 2.93482 101.261 1.41851 99.0144C0.489818 97.6407 0.0213642 96.1317 0.017255 94.4956C0.000818016 88.4474 -0.0115097 82.3991 0.017255 76.3509C0.033692 72.9393 2.01435 70.6512 4.64015 68.8306C8.60558 66.0833 13.1011 64.6194 17.761 63.5861C19.228 63.2621 20.7073 62.9997 22.1784 62.7003C22.3674 62.6634 22.5441 62.5527 22.766 62.4625C21.8373 61.4538 20.9333 60.5107 20.0704 59.5307C18.8951 58.1898 18.3691 56.5824 18.3691 54.8315C18.3568 41.6443 18.3527 28.453 18.3691 15.2658C18.3733 12.1904 19.9635 9.90641 22.3017 8.09809C26.3945 4.93251 31.2064 3.41532 36.1539 2.29999C46.1887 0.0283092 56.3591 -0.389942 66.5788 0.307143C73.1002 0.754098 79.5722 1.70541 85.7895 3.83767C89.3481 5.05962 92.7752 6.58091 95.4791 9.36105C97.1598 11.0956 98.0145 13.1212 97.994 15.5241C97.9857 16.2417 98.031 16.9593 97.9899 17.6769C97.9447 18.4847 98.2487 18.7389 99.0706 18.6979C102.317 18.5421 105.571 18.3083 108.818 18.3739C115.561 18.5134 122.275 19.0669 128.875 20.5759C132.479 21.4001 136.017 22.4334 139.325 24.0982C142.222 25.5539 144.893 27.3376 146.315 30.4048C146.73 31.3028 146.968 32.3689 146.972 33.3613C147.017 45.5931 147.009 57.8249 146.997 70.0566C146.997 73.1484 145.365 75.416 143.056 77.2325C139.674 79.8978 135.709 81.3576 131.612 82.4935C124.581 84.4453 117.398 85.208 110.124 85.3925C104.088 85.5442 98.0638 85.3269 92.1054 84.4289C88.3701 83.8671 84.717 82.7846 81.0269 81.9358C80.6077 81.8374 80.1927 81.7267 79.6298 81.5831L79.6256 81.5913ZM101.75 42.4152C104.573 42.6817 107.408 42.7268 110.24 42.5464C112.532 42.3988 114.509 42.2758 116.481 42.1322C122.608 41.6935 128.604 40.5987 134.348 38.3598C136.42 37.5561 138.433 36.6089 140.036 35.0179C141.125 33.9394 141.166 32.7913 139.966 31.8523C138.61 30.7903 137.167 29.7651 135.606 29.0639C130.326 26.6898 124.688 25.5703 118.968 24.9552C110.638 24.0531 102.309 24.049 93.9792 25.1685C89.3604 25.7876 84.8238 26.6939 80.468 28.3751C78.2121 29.2485 75.9643 30.1834 74.259 31.9999C73.3138 33.0045 73.2152 33.9845 74.259 34.8539C75.578 35.9487 77.0122 36.9943 78.5572 37.7283C82.272 39.4997 86.2456 40.611 90.3056 41.1645C94.2422 41.7017 98.2035 42.0789 101.746 42.4152H101.75ZM35.0609 85.3761C37.8264 85.5647 40.6002 85.5975 43.3698 85.4704C44.9436 85.3966 47.0352 85.3761 48.2392 85.2818C53.5525 84.8594 58.4959 84.0557 63.616 82.4771C66.3322 81.6405 68.9786 80.6482 71.3455 79.0572C74.2179 77.1218 74.1069 75.4447 71.1647 73.5995C68.0252 71.6312 64.5899 70.397 61.0231 69.622C57.4768 68.8511 53.8771 68.2893 50.2692 67.8629C41.8329 66.8706 33.3062 67.0674 24.9111 68.3672C20.5963 69.0356 16.3145 69.8762 12.3286 71.6722C10.5575 72.4677 8.83569 73.4847 7.2824 74.6533C6.14825 75.5062 6.04552 77.0644 7.08105 78.0362C7.70154 78.6226 8.40833 79.1392 9.148 79.5739C14.0339 82.4483 19.4786 83.6662 24.9768 84.4412C28.3135 84.9127 31.6831 85.1465 35.0527 85.3761H35.0609ZM49.02 6.5604C42.9013 7.10167 36.8731 8.06119 31.153 10.3575C29.3079 11.0997 27.5492 12.133 25.8891 13.2401C24.1755 14.3842 24.1919 15.8152 25.7 17.2176C25.8233 17.3324 25.9754 17.4185 26.111 17.521C29.686 20.1413 33.8487 21.3591 38.0647 22.3432C44.656 23.885 51.3787 24.3607 58.1343 24.3033C59.4328 24.3033 60.7355 24.3443 62.034 24.2951C70.4045 23.9957 78.66 23.0198 86.4552 19.6984C88.3578 18.8865 90.2604 18.0008 91.5178 16.2048C91.978 15.5487 91.9534 14.9951 91.5178 14.3391C90.3549 12.5963 88.5222 11.7721 86.7429 10.9643C83.5089 9.48816 80.1188 8.42613 76.5971 7.88487C72.8824 7.319 69.1635 6.68752 65.4241 6.40869M140.784 42.1691C140.636 42.1773 140.521 42.1527 140.442 42.1937C136.682 44.2809 132.647 45.5603 128.468 46.5198C122.847 47.8114 117.155 48.4798 111.407 48.652C103.977 48.8776 96.5681 48.5987 89.2372 47.2169C85.5758 46.528 81.9515 45.6997 78.4874 44.3014C76.856 43.6412 75.2698 42.8785 73.6467 42.1568C73.6056 42.2635 73.544 42.3537 73.544 42.4439C73.5357 45.5152 73.4947 48.5905 73.5604 51.6618C73.5727 52.2113 73.8809 52.9494 74.3042 53.2651C75.7671 54.3517 77.2505 55.4917 78.8983 56.2462C83.1062 58.1775 87.6017 59.2723 92.1794 59.8505C96.342 60.3795 100.546 60.7444 104.741 60.851C108.801 60.9576 112.878 60.7567 116.933 60.4738C119.687 60.281 122.419 59.7685 125.144 59.3051C129.812 58.5096 134.307 57.1729 138.396 54.7126C139.419 54.0975 140.673 53.4004 140.73 52.158C140.89 48.8407 140.784 45.5152 140.784 42.165V42.1691ZM6.09894 84.9168C6.09894 88.0619 6.14414 90.8954 6.07839 93.7206C6.04963 95.0861 6.58794 96.0784 7.61936 96.8821C9.85479 98.6248 12.4477 99.6622 15.1064 100.523C19.7088 102.02 24.4467 102.918 29.2627 103.299C33.0433 103.603 36.8443 103.886 40.633 103.861C46.7928 103.816 52.932 103.316 58.9767 101.991C63.2626 101.052 67.4458 99.8468 71.2099 97.5013C72.7139 96.5664 73.6549 95.3772 73.5316 93.4172C73.3796 91.0348 73.4988 88.636 73.4947 86.2454C73.4947 85.8846 73.4659 85.5278 73.4412 85.0112C72.9358 85.2408 72.5783 85.413 72.2126 85.5729C70.3675 86.3725 68.5677 87.3197 66.6651 87.9348C59.1945 90.3582 51.4691 91.33 43.6574 91.6253C37.0785 91.8754 30.5243 91.5105 24.0152 90.4853C18.5294 89.6242 13.1668 88.3613 8.13301 85.9502C7.53306 85.6631 6.94955 85.3474 6.10715 84.9168H6.09894ZM73.5193 60.4697C73.5193 62.6183 73.5933 64.5661 73.4905 66.5015C73.433 67.543 73.8398 68.1253 74.6576 68.6502C76.8272 70.0484 78.5203 71.8486 79.3503 74.3622C79.4407 74.641 79.7243 74.9567 79.9955 75.0592C81.3269 75.5718 82.6706 76.0844 84.039 76.4821C90.2809 78.3068 96.6996 79.0695 103.163 79.2828C110.765 79.5329 118.343 79.1433 125.822 77.577C130.247 76.6502 134.566 75.4365 138.462 73.0377C140.036 72.07 141.067 70.8685 140.948 68.8224C140.812 66.44 140.919 64.0412 140.911 61.6506C140.911 61.298 140.87 60.9453 140.841 60.5066C140.41 60.6583 140.101 60.7239 139.843 60.8674C136.691 62.6306 133.284 63.6804 129.808 64.5702C123.816 66.0997 117.71 66.7967 111.55 67.0469C104.561 67.3298 97.5954 66.9813 90.6877 65.8372C86.2662 65.1032 81.9145 64.115 77.76 62.3846C76.3876 61.8146 75.0521 61.1586 73.5234 60.4656L73.5193 60.4697ZM67.3185 48.5249C52.6567 49.3163 38.2373 48.8653 24.6563 42.3578C24.6111 42.5382 24.5536 42.6612 24.5536 42.7883C24.5494 46.7494 24.5125 50.7146 24.5823 54.6716C24.5946 55.2784 24.9604 55.9878 25.3754 56.4635C26.8301 58.1242 28.8025 59.0427 30.8078 59.8177C32.4803 60.4656 34.2185 61.2201 35.9649 61.3431C40.8714 61.6875 45.8066 61.6383 50.7171 61.9212C55.1222 62.1755 59.4698 62.9423 63.7311 64.115C64.9022 64.4349 66.0734 64.7465 67.3143 65.0786V48.5208L67.3185 48.5249ZM24.6152 23.9219C24.6152 27.3458 24.5741 30.5811 24.6563 33.8164C24.6686 34.3454 25.1206 34.9605 25.5398 35.3541C26.1767 35.9528 26.9287 36.453 27.6889 36.9C30.5983 38.6058 33.7624 39.717 37.0415 40.3895C40.6823 41.1358 44.3683 41.6894 48.0543 42.1855C53.7086 42.9441 59.3917 42.899 65.0666 42.4644C67.3883 42.284 67.3226 42.2101 67.4006 39.918C67.5075 36.736 66.9116 33.5007 68.0499 30.3884C68.0622 30.3515 67.9924 30.2818 67.9225 30.1547C66.9363 30.2244 65.9213 30.3228 64.9022 30.3679C57.1234 30.7082 49.3775 30.5647 41.6686 29.2485C37.0744 28.4653 32.5666 27.4401 28.2683 25.6154C27.089 25.1152 25.9384 24.5411 24.6152 23.926V23.9219Z" fill="#D1C6C2"/>
</g>
<defs>
<clipPath id="clip0_1408_37278">
<rect width="147" height="110" fill="white"/>
</clipPath>
</defs>
</svg>
