<svg width="83" height="89" viewBox="0 0 83 89" fill="none" xmlns="http://www.w3.org/2000/svg">
<path d="M63.6966 45.6758L73.3932 46.6788M9.32031 40.0647L19.017 41.0678M39.0476 65.7064L38.0444 75.403M44.6586 11.3301L43.6555 21.0267M38.9849 60.8685L34.0634 42.3739L43.7391 25.8646L48.6606 44.3592L38.9849 60.8685ZM38.0863 75.0164C79.7671 78.6004 86.1514 16.7113 44.6169 11.7062C2.93604 8.12225 -3.44826 70.0113 38.0863 75.0164Z" stroke="#4A4A49" stroke-width="0.74"/>
<path d="M3.27052 35.635C2.15249 35.635 1.57775 36.1052 1.40012 36.8889H0.365687C0.752298 32.7407 8.80845 35.3843 5.15132 38.4667V38.6861C9.64437 42.0298 0.668732 45.3421 0 40.661H1.05535C3.27053 44.9973 8.73528 38.5816 2.18379 39.1459V38.2264C5.0468 38.8429 6.3634 35.9903 3.26006 35.6246" fill="#4A4A49"/>
<path d="M81.6582 49.0308C81.6791 47.0037 78.6489 47.7978 77.4055 47.6411V50.4623C78.6802 50.2951 81.6582 51.131 81.6582 49.0308ZM77.4055 46.7634C78.5548 46.5857 81.4701 47.4321 81.4074 45.4886C81.3865 43.66 78.5235 44.4228 77.4055 44.2661V46.7634ZM82.6822 49.1144C82.9434 51.9774 78.2936 51.3086 76.4023 51.3609V43.3674C78.9728 43.0853 84.8137 43.4197 81.5537 47.0246V47.244C82.2224 47.5575 82.6822 48.2889 82.6822 49.1039" fill="#4A4A49"/>
<path d="M49.4454 5.8553C48.5049 9.95129 42.037 8.39439 42.5804 4.13123C42.037 0.0247906 48.2646 -1.74108 49.3513 2.22952H48.2855C47.1675 -0.529003 43.1342 1.4145 43.5939 4.13123C43.1237 7.00468 47.3764 8.78101 48.3691 5.8553H49.4349H49.4454Z" fill="#4A4A49"/>
<path d="M44.7006 84.6926C45.0768 80.5026 39.0896 80.5026 39.4657 84.6926C39.0896 88.8826 45.0768 88.8826 44.7006 84.6926ZM45.7246 84.6926C46.153 89.8753 38.4104 90.2096 38.4626 85.0374H36.8117V88.6841H35.8086V80.6907H36.8117V84.097H38.4939C38.6924 79.1129 46.1844 79.6562 45.7351 84.6926" fill="#4A4A49"/>
</svg>
