<svg width="128" height="94" viewBox="0 0 128 94" fill="none" xmlns="http://www.w3.org/2000/svg">
<g clip-path="url(#clip0_858_1219)">
<path d="M128 4.84268C128 0.977768 127.027 0 123.175 0C83.739 0 44.3032 0 4.86737 0C0.981053 0 0 0.965178 0 4.80071C0 32.9126 0 61.0287 0 89.1405C0 93.018 0.968421 94 4.80842 94C29.3263 94 109.945 94 125.457 94C126.863 94 128 92.867 128 91.4696C128 79.1992 128 26.8068 128 4.84688V4.84268ZM47.3011 87.206V63.6766H87.4526V57.0043H47.1158V30.3192H40.3495V87.1808H6.86737V6.86955H40.48V16.6514H47.2505V6.82759H121.128V57.1679H101.171V63.8403H121.373V87.206H47.3011Z" fill="#A2867C"/>
</g>
<defs>
<clipPath id="clip0_858_1219">
<rect width="128" height="94" fill="white"/>
</clipPath>
</defs>
</svg>
