<svg width="14" height="20" viewBox="0 0 14 20" fill="none" xmlns="http://www.w3.org/2000/svg">
<path d="M9.63608 19.8338C10.4056 19.5331 11.0837 19.0976 11.6803 18.5447C13.0706 17.2551 13.7861 15.6485 13.9579 13.7947C14.1361 11.8718 13.7312 10.0356 13.0687 8.24242C12.8726 7.71183 12.6451 7.19218 12.4164 6.62835C12.4455 7.1523 12.4999 7.62698 12.492 8.10049C12.4729 9.26021 12.1058 10.2905 11.2146 11.0925C11.0078 11.2786 10.7652 11.4264 10.5389 11.5918L10.4947 11.5546C10.5564 11.2121 10.6236 10.8704 10.6793 10.5267C10.9767 8.69443 11.007 6.86725 10.5309 5.05611C10.0429 3.20039 9.10833 1.61447 7.57399 0.4C7.40934 0.269795 7.22878 0.158749 7.05419 0.0402737C7.02953 0.0234604 6.99771 0.0168133 6.95556 0C7.01163 0.348778 7.07407 0.680743 7.11702 1.01466C7.34729 2.80391 6.73881 4.30264 5.43474 5.53118C4.73717 6.18847 3.99187 6.79687 3.26208 7.42092C2.37879 8.17673 1.54122 8.97361 0.954211 9.98436C-0.840227 13.0729 -0.215037 17.6626 3.78149 19.7196C4.01335 19.8389 4.25833 19.9335 4.5228 20C4.46911 19.9496 4.41582 19.8987 4.36173 19.8487C3.58184 19.1261 3.18095 18.2268 3.09545 17.1867C2.98608 15.8561 3.3631 14.624 3.91273 13.4201C3.80932 14.4657 3.97397 15.3982 4.99925 16.0231C4.9384 15.6059 4.86841 15.2297 4.83142 14.8504C4.69103 13.4127 4.87477 12.0403 5.71472 10.8086C5.99391 10.3992 6.33434 10.0457 6.74 9.75484C6.78295 9.72434 6.8267 9.69501 6.87204 9.66803C6.88755 9.65865 6.90903 9.65865 6.92971 9.65396C6.89869 9.93353 6.85335 10.2088 6.84062 10.4852C6.80522 11.254 7.06453 11.9288 7.60501 12.4762C8.01941 12.8958 8.47598 13.2755 8.9226 13.6633C9.36604 14.0481 9.79993 14.4399 10.13 14.9275C11.1362 16.4121 10.9672 18.4231 9.72874 19.7337C9.69732 19.767 9.6667 19.8002 9.63568 19.8338H9.63608Z" fill="url(#paint0_linear_304_4122)"/>
<defs>
<linearGradient id="paint0_linear_304_4122" x1="7" y1="0" x2="7" y2="20" gradientUnits="userSpaceOnUse">
<stop stop-color="#FF0000"/>
<stop offset="1" stop-color="#F2B423"/>
</linearGradient>
</defs>
</svg>
