<svg width="135" height="26" viewBox="0 0 135 26" fill="none" xmlns="http://www.w3.org/2000/svg">
<path d="M19.221 19.5479C18.2503 22.3404 15.6939 25.1005 11.3579 25.1005C4.43313 25.1005 0 19.5479 0 12.534C0 5.52017 4.27134 0 11.4873 0C17.7325 0 21.3243 4.02647 22.0039 8.21531H18.8004C18.3473 5.29287 16.1146 2.56525 11.7138 2.56525C6.27757 2.53278 3.3653 6.72161 3.3653 12.534C3.3653 18.3464 6.407 22.5353 11.8109 22.5353C16.5676 22.5353 19.0592 19.418 19.0592 15.7487V14.7096H10.6136V12.1768H22.2304V24.7109H19.2534V19.5154H19.1887L19.221 19.5479Z" fill="#F8F0EC" fill-opacity="0.25"/>
<path d="M30.0596 0.357422H26.9531V24.7436H30.0596V0.357422Z" fill="#F8F0EC" fill-opacity="0.25"/>
<path d="M38.958 2.8902V11.9173H43.9412C47.7919 11.9173 49.7981 10.3262 49.7981 7.40375C49.7981 4.48131 47.8242 2.92268 43.9412 2.92268H38.958V2.8902ZM38.958 24.7436H35.8516V0.357422H43.5853C49.604 0.357422 53.1634 2.85773 53.1634 7.40375C53.1634 10.8457 51.0601 13.1512 47.4359 14.0604L53.6488 24.776H50.057L44.103 14.4826H38.9903V24.776L38.958 24.7436Z" fill="#F8F0EC" fill-opacity="0.25"/>
<path d="M66.3355 0.487308L71.2864 14.8397H61.3846L66.3355 0.487308ZM63.132 0.357422L54.7188 24.7436H58.0193L60.5433 17.405H72.16L74.684 24.7436H77.9846L69.539 0.357422H63.0996H63.132Z" fill="#F8F0EC" fill-opacity="0.25"/>
<path d="M80.7656 0.357422V24.7436H83.8721V13.7032H96.233V11.1705H83.8721V2.8902H96.4595V0.357422H80.7656Z" fill="#F8F0EC" fill-opacity="0.25"/>
<path d="M100.57 0.357422V24.7436H103.677V13.7032H116.038V11.1705H103.677V2.8902H116.232V0.357422H100.57Z" fill="#F8F0EC" fill-opacity="0.25"/>
<path d="M120.375 0.357422V24.7436H135.001V22.2108H123.481V13.5084H134.386V10.9432H123.481V2.8902H134.71V0.357422H120.375Z" fill="#F8F0EC" fill-opacity="0.25"/>
</svg>
