<svg width="1071" height="894" viewBox="0 0 1071 894" fill="none" xmlns="http://www.w3.org/2000/svg">
<mask id="path-1-inside-1_252_1995" fill="white">
<path d="M168.987 893.933L168.469 893.414L530.77 531.113C577.301 484.582 653.01 484.582 699.533 531.113L902.558 734.138L902.04 734.656L699.015 531.632C652.776 485.385 577.527 485.385 531.281 531.632L168.98 893.933H168.987Z"/>
</mask>
<path d="M168.987 893.933L168.469 893.414L530.77 531.113C577.301 484.582 653.01 484.582 699.533 531.113L902.558 734.138L902.04 734.656L699.015 531.632C652.776 485.385 577.527 485.385 531.281 531.632L168.98 893.933H168.987Z" fill="white"/>
<path d="M168.987 893.933V894.933H171.401L169.694 893.226L168.987 893.933ZM168.469 893.414L167.762 892.707L167.055 893.414L167.762 894.121L168.469 893.414ZM530.77 531.113L531.477 531.82L531.477 531.82L530.77 531.113ZM699.533 531.113L698.826 531.82L698.826 531.82L699.533 531.113ZM902.558 734.138L903.265 734.845L903.972 734.138L903.265 733.431L902.558 734.138ZM902.04 734.656L901.332 735.363L902.04 736.071L902.747 735.363L902.04 734.656ZM699.015 531.632L698.308 532.339L698.308 532.339L699.015 531.632ZM531.281 531.632L530.574 530.925L530.574 530.925L531.281 531.632ZM168.98 893.933L168.273 893.226L166.566 894.933H168.98V893.933ZM169.694 893.226L169.176 892.707L167.762 894.121L168.28 894.64L169.694 893.226ZM169.176 894.121L531.477 531.82L530.063 530.406L167.762 892.707L169.176 894.121ZM531.477 531.82C577.617 485.68 652.693 485.68 698.826 531.82L700.241 530.406C653.326 483.484 576.984 483.484 530.063 530.406L531.477 531.82ZM698.826 531.82L901.851 734.845L903.265 733.431L700.24 530.406L698.826 531.82ZM901.851 733.431L901.332 733.949L902.747 735.363L903.265 734.845L901.851 733.431ZM902.747 733.949L699.722 530.925L698.308 532.339L901.332 735.363L902.747 733.949ZM699.722 530.925C653.093 484.288 577.211 484.288 530.574 530.925L531.988 532.339C577.844 486.483 652.459 486.483 698.308 532.339L699.722 530.925ZM530.574 530.925L168.273 893.226L169.687 894.64L531.988 532.339L530.574 530.925ZM168.98 894.933H168.987V892.933H168.98V894.933Z" fill="#D1C6C2" mask="url(#path-1-inside-1_252_1995)"/>
<mask id="path-3-inside-2_252_1995" fill="white">
<path d="M127.116 852.062L126.598 851.543L488.913 489.228C522.641 455.5 567.478 436.927 615.17 436.927C662.862 436.927 707.706 455.5 741.427 489.228L944.452 692.252L943.933 692.771L740.908 489.746C707.319 456.157 662.665 437.664 615.163 437.664C567.66 437.664 523.006 456.164 489.417 489.746L127.102 852.062H127.116Z"/>
</mask>
<path d="M127.116 852.062L126.598 851.543L488.913 489.228C522.641 455.5 567.478 436.927 615.17 436.927C662.862 436.927 707.706 455.5 741.427 489.228L944.452 692.252L943.933 692.771L740.908 489.746C707.319 456.157 662.665 437.664 615.163 437.664C567.66 437.664 523.006 456.164 489.417 489.746L127.102 852.062H127.116Z" fill="white"/>
<path d="M127.116 852.062V853.062H129.531L127.823 851.355L127.116 852.062ZM126.598 851.543L125.891 850.836L125.183 851.543L125.891 852.25L126.598 851.543ZM741.427 489.228L740.72 489.935L740.72 489.935L741.427 489.228ZM944.452 692.252L945.159 692.959L945.866 692.252L945.159 691.545L944.452 692.252ZM943.933 692.771L943.226 693.478L943.933 694.185L944.64 693.478L943.933 692.771ZM489.417 489.746L488.71 489.039L488.71 489.039L489.417 489.746ZM127.102 852.062L126.394 851.355L124.687 853.062H127.102V852.062ZM127.823 851.355L127.305 850.836L125.891 852.25L126.409 852.769L127.823 851.355ZM127.305 852.25L489.62 489.935L488.206 488.521L125.891 850.836L127.305 852.25ZM489.62 489.935C523.161 456.394 567.743 437.927 615.17 437.927V435.927C567.212 435.927 522.122 454.605 488.206 488.521L489.62 489.935ZM615.17 437.927C662.597 437.927 707.187 456.394 740.72 489.935L742.134 488.521C708.226 454.605 663.128 435.927 615.17 435.927V437.927ZM740.72 489.935L943.744 692.959L945.159 691.545L742.134 488.521L740.72 489.935ZM943.745 691.545L943.226 692.064L944.64 693.478L945.159 692.959L943.745 691.545ZM944.64 692.064L741.615 489.039L740.201 490.453L943.226 693.478L944.64 692.064ZM741.615 489.039C707.839 455.262 662.93 436.664 615.163 436.664V438.664C662.4 438.664 706.8 457.052 740.201 490.453L741.615 489.039ZM615.163 436.664C567.395 436.664 522.487 455.27 488.71 489.039L490.124 490.453C523.526 457.059 567.926 438.664 615.163 438.664V436.664ZM488.71 489.039L126.394 851.355L127.809 852.769L490.124 490.453L488.71 489.039ZM127.102 853.062H127.116V851.062H127.102V853.062Z" fill="#D1C6C2" mask="url(#path-3-inside-2_252_1995)"/>
<mask id="path-5-inside-3_252_1995" fill="white">
<path d="M85.2412 810.183L84.7227 809.665L447.053 447.334C491.963 402.425 551.677 377.688 615.188 377.688C678.7 377.688 738.414 402.417 783.324 447.334L986.349 650.359L985.83 650.878L782.805 447.853C738.034 403.082 678.503 378.425 615.188 378.425C551.874 378.425 492.342 403.082 447.571 447.853L85.2412 810.183Z"/>
</mask>
<path d="M85.2412 810.183L84.7227 809.665L447.053 447.334C491.963 402.425 551.677 377.688 615.188 377.688C678.7 377.688 738.414 402.417 783.324 447.334L986.349 650.359L985.83 650.878L782.805 447.853C738.034 403.082 678.503 378.425 615.188 378.425C551.874 378.425 492.342 403.082 447.571 447.853L85.2412 810.183Z" fill="white"/>
<path d="M85.2412 810.183L84.5341 810.89L85.2412 811.597L85.9483 810.89L85.2412 810.183ZM84.7227 809.665L84.0155 808.957L83.3084 809.665L84.0156 810.372L84.7227 809.665ZM447.053 447.334L446.346 446.627L447.053 447.334ZM783.324 447.334L782.617 448.041L782.617 448.041L783.324 447.334ZM986.349 650.359L987.056 651.066L987.763 650.359L987.056 649.652L986.349 650.359ZM985.83 650.878L985.123 651.585L985.83 652.292L986.537 651.585L985.83 650.878ZM782.805 447.853L783.512 447.146L783.512 447.146L782.805 447.853ZM447.571 447.853L446.864 447.146L446.864 447.146L447.571 447.853ZM85.9483 809.476L85.4297 808.957L84.0156 810.372L84.5341 810.89L85.9483 809.476ZM85.4298 810.372L447.76 448.041L446.346 446.627L84.0155 808.957L85.4298 810.372ZM447.76 448.041C492.482 403.319 551.942 378.688 615.188 378.688V376.688C551.411 376.688 491.443 401.53 446.346 446.627L447.76 448.041ZM615.188 378.688C678.435 378.688 737.895 403.312 782.617 448.041L784.031 446.627C738.934 401.523 678.965 376.688 615.188 376.688V378.688ZM782.617 448.041L985.641 651.066L987.056 649.652L784.031 446.627L782.617 448.041ZM985.642 649.652L985.123 650.17L986.537 651.585L987.056 651.066L985.642 649.652ZM986.537 650.171L783.512 447.146L782.098 448.56L985.123 651.585L986.537 650.171ZM783.512 447.146C738.554 402.187 678.768 377.425 615.188 377.425V379.425C678.238 379.425 737.515 403.977 782.098 448.56L783.512 447.146ZM615.188 377.425C551.609 377.425 491.823 402.187 446.864 447.146L448.279 448.56C492.862 403.977 552.139 379.425 615.188 379.425V377.425ZM446.864 447.146L84.5341 809.476L85.9483 810.89L448.279 448.56L446.864 447.146Z" fill="#D1C6C2" mask="url(#path-5-inside-3_252_1995)"/>
<mask id="path-7-inside-4_252_1995" fill="white">
<path d="M43.3584 768.304L42.8398 767.785L405.192 405.433C433.544 377.081 466.6 355.134 503.44 340.19C539.023 325.759 576.629 318.44 615.199 318.44C653.769 318.44 691.375 325.759 726.958 340.19C763.797 355.134 796.853 377.081 825.206 405.433L1028.23 608.458L1027.71 608.977L824.687 405.952C796.408 377.672 763.432 355.776 726.681 340.87C691.185 326.474 653.674 319.178 615.191 319.178C576.709 319.178 539.205 326.474 503.702 340.87C466.951 355.776 433.975 377.672 405.696 405.952L43.3584 768.304Z"/>
</mask>
<path d="M43.3584 768.304L42.8398 767.785L405.192 405.433C433.544 377.081 466.6 355.134 503.44 340.19C539.023 325.759 576.629 318.44 615.199 318.44C653.769 318.44 691.375 325.759 726.958 340.19C763.797 355.134 796.853 377.081 825.206 405.433L1028.23 608.458L1027.71 608.977L824.687 405.952C796.408 377.672 763.432 355.776 726.681 340.87C691.185 326.474 653.674 319.178 615.191 319.178C576.709 319.178 539.205 326.474 503.702 340.87C466.951 355.776 433.975 377.672 405.696 405.952L43.3584 768.304Z" fill="white"/>
<path d="M43.3584 768.304L42.6512 769.011L43.3584 769.718L44.0655 769.011L43.3584 768.304ZM42.8398 767.785L42.1327 767.078L41.4257 767.785L42.1327 768.492L42.8398 767.785ZM405.192 405.433L405.899 406.14L405.899 406.14L405.192 405.433ZM503.44 340.19L503.064 339.264L503.064 339.264L503.44 340.19ZM726.958 340.19L727.334 339.264L727.334 339.264L726.958 340.19ZM1028.23 608.458L1028.94 609.165L1029.64 608.458L1028.94 607.751L1028.23 608.458ZM1027.71 608.977L1027 609.684L1027.71 610.391L1028.42 609.684L1027.71 608.977ZM824.687 405.952L823.98 406.659L823.98 406.659L824.687 405.952ZM726.681 340.87L727.056 339.943L727.056 339.943L726.681 340.87ZM503.702 340.87L503.327 339.943L503.327 339.943L503.702 340.87ZM405.696 405.952L404.989 405.245L404.989 405.245L405.696 405.952ZM44.0655 767.597L43.547 767.078L42.1327 768.492L42.6512 769.011L44.0655 767.597ZM43.547 768.492L405.899 406.14L404.485 404.726L42.1327 767.078L43.547 768.492ZM405.899 406.14C434.158 377.882 467.101 356.01 503.815 341.117L503.064 339.264C466.099 354.258 432.931 376.28 404.485 404.726L405.899 406.14ZM503.815 341.117C539.278 326.734 576.757 319.44 615.199 319.44V317.44C576.5 317.44 538.767 324.783 503.064 339.264L503.815 341.117ZM615.199 319.44C653.641 319.44 691.119 326.734 726.582 341.117L727.334 339.264C691.631 324.783 653.897 317.44 615.199 317.44V319.44ZM726.582 341.117C763.296 356.01 796.24 377.882 824.499 406.14L825.913 404.726C797.467 376.28 764.298 354.258 727.334 339.264L726.582 341.117ZM824.499 406.14L1027.52 609.165L1028.94 607.751L825.913 404.726L824.499 406.14ZM1027.52 607.751L1027 608.269L1028.42 609.684L1028.94 609.165L1027.52 607.751ZM1028.42 608.269L825.394 405.245L823.98 406.659L1027 609.684L1028.42 608.269ZM825.394 405.245C797.021 376.871 763.933 354.9 727.056 339.943L726.305 341.796C762.931 356.652 795.794 378.473 823.98 406.659L825.394 405.245ZM727.056 339.943C691.441 325.499 653.802 318.178 615.191 318.178V320.178C653.546 320.178 690.929 327.45 726.305 341.796L727.056 339.943ZM615.191 318.178C576.581 318.178 538.949 325.499 503.327 339.943L504.078 341.796C539.461 327.45 576.837 320.178 615.191 320.178V318.178ZM503.327 339.943C466.45 354.9 433.362 376.871 404.989 405.245L406.403 406.659C434.589 378.473 467.452 356.652 504.078 341.796L503.327 339.943ZM404.989 405.245L42.6513 767.597L44.0655 769.011L406.403 406.659L404.989 405.245Z" fill="#D1C6C2" mask="url(#path-7-inside-4_252_1995)"/>
<mask id="path-9-inside-5_252_1995" fill="white">
<path d="M1.4873 726.433L0.96875 725.914L363.335 363.547C397.341 329.542 436.985 303.213 481.179 285.297C523.861 267.987 568.96 259.216 615.228 259.216C661.496 259.216 706.596 267.995 749.278 285.297C793.465 303.213 833.116 329.542 867.121 363.547L1070.15 566.572L1069.63 567.091L866.603 364.066C832.67 330.134 793.099 303.855 749.008 285.976C706.413 268.703 661.409 259.946 615.236 259.946C569.062 259.946 524.058 268.703 481.463 285.976C437.364 303.855 397.801 330.134 363.869 364.066L1.4873 726.433Z"/>
</mask>
<path d="M1.4873 726.433L0.96875 725.914L363.335 363.547C397.341 329.542 436.985 303.213 481.179 285.297C523.861 267.987 568.96 259.216 615.228 259.216C661.496 259.216 706.596 267.995 749.278 285.297C793.465 303.213 833.116 329.542 867.121 363.547L1070.15 566.572L1069.63 567.091L866.603 364.066C832.67 330.134 793.099 303.855 749.008 285.976C706.413 268.703 661.409 259.946 615.236 259.946C569.062 259.946 524.058 268.703 481.463 285.976C437.364 303.855 397.801 330.134 363.869 364.066L1.4873 726.433Z" fill="white"/>
<path d="M1.4873 726.433L0.780216 727.14L1.48731 727.847L2.1944 727.14L1.4873 726.433ZM0.96875 725.914L0.261643 725.207L-0.445483 725.914L0.261663 726.621L0.96875 725.914ZM363.335 363.547L362.628 362.84L362.628 362.84L363.335 363.547ZM481.179 285.297L481.554 286.224L481.554 286.224L481.179 285.297ZM749.278 285.297L749.654 284.37L749.654 284.37L749.278 285.297ZM867.121 363.547L867.828 362.84L867.828 362.84L867.121 363.547ZM1070.15 566.572L1070.85 567.279L1071.56 566.572L1070.85 565.865L1070.15 566.572ZM1069.63 567.091L1068.92 567.798L1069.63 568.505L1070.33 567.798L1069.63 567.091ZM749.008 285.976L748.632 286.903L748.632 286.903L749.008 285.976ZM481.463 285.976L481.839 286.903L481.839 286.903L481.463 285.976ZM363.869 364.066L364.576 364.773L364.576 364.773L363.869 364.066ZM2.19439 725.725L1.67584 725.207L0.261663 726.621L0.780216 727.14L2.19439 725.725ZM1.67586 726.621L364.043 364.254L362.628 362.84L0.261643 725.207L1.67586 726.621ZM364.043 364.254C397.954 330.343 437.486 304.089 481.554 286.224L480.803 284.37C436.484 302.337 396.728 328.741 362.628 362.84L364.043 364.254ZM481.554 286.224C524.116 268.963 569.088 260.216 615.228 260.216V258.216C568.832 258.216 523.605 267.012 480.803 284.37L481.554 286.224ZM615.228 260.216C661.368 260.216 706.34 268.97 748.902 286.224L749.654 284.37C706.852 267.019 661.625 258.216 615.228 258.216V260.216ZM748.902 286.224C792.964 304.089 832.502 330.343 866.414 364.254L867.828 362.84C833.729 328.741 793.965 302.337 749.654 284.37L748.902 286.224ZM866.414 364.254L1069.44 567.279L1070.85 565.865L867.828 362.84L866.414 364.254ZM1069.44 565.865L1068.92 566.383L1070.33 567.798L1070.85 567.279L1069.44 565.865ZM1070.33 566.383L867.31 363.359L865.895 364.773L1068.92 567.798L1070.33 566.383ZM867.31 363.359C833.284 329.333 793.6 302.979 749.384 285.049L748.632 286.903C792.599 304.731 832.057 330.934 865.895 364.773L867.31 363.359ZM749.384 285.049C706.669 267.728 661.537 258.946 615.236 258.946V260.946C661.281 260.946 706.157 269.678 748.632 286.903L749.384 285.049ZM615.236 258.946C568.934 258.946 523.802 267.728 481.088 285.049L481.839 286.903C524.314 269.678 569.191 260.946 615.236 260.946V258.946ZM481.088 285.049C436.863 302.979 397.188 329.333 363.161 363.359L364.576 364.773C398.414 330.934 437.865 304.731 481.839 286.903L481.088 285.049ZM363.162 363.359L0.780211 725.725L2.1944 727.14L364.576 364.773L363.162 363.359Z" fill="#D1C6C2" mask="url(#path-9-inside-5_252_1995)"/>
<mask id="path-11-inside-6_252_1995" fill="white">
<path d="M726.583 0.301642L0.96875 725.916L1.48519 726.432L727.1 0.818082L726.583 0.301642Z"/>
</mask>
<path d="M726.583 0.301642L0.96875 725.916L1.48519 726.432L727.1 0.818082L726.583 0.301642Z" fill="white"/>
<path d="M0.96875 725.916L0.261643 725.209L-0.445464 725.916L0.261643 726.623L0.96875 725.916ZM726.583 0.301642L727.29 -0.405465L726.583 -1.11257L725.876 -0.405465L726.583 0.301642ZM727.1 0.818082L727.807 1.52519L728.514 0.818082L727.807 0.110976L727.1 0.818082ZM1.48519 726.432L0.778084 727.14L1.48519 727.847L2.1923 727.14L1.48519 726.432ZM1.67586 726.623L727.29 1.00875L725.876 -0.405465L0.261643 725.209L1.67586 726.623ZM725.876 1.00875L726.392 1.52519L727.807 0.110976L727.29 -0.405465L725.876 1.00875ZM726.392 0.110976L0.778084 725.725L2.1923 727.14L727.807 1.52519L726.392 0.110976ZM2.1923 725.725L1.67586 725.209L0.261643 726.623L0.778084 727.14L2.1923 725.725Z" fill="#D1C6C2" mask="url(#path-11-inside-6_252_1995)"/>
<mask id="path-13-inside-7_252_1995" fill="white">
<path d="M768.497 42.2177L42.8828 767.832L43.3993 768.348L769.014 42.7341L768.497 42.2177Z"/>
</mask>
<path d="M768.497 42.2177L42.8828 767.832L43.3993 768.348L769.014 42.7341L768.497 42.2177Z" fill="white"/>
<path d="M42.8828 767.832L42.1757 767.125L41.4686 767.832L42.1757 768.539L42.8828 767.832ZM768.497 42.2177L769.204 41.5106L768.497 40.8034L767.79 41.5106L768.497 42.2177ZM769.014 42.7341L769.721 43.4412L770.428 42.7341L769.721 42.027L769.014 42.7341ZM43.3993 768.348L42.6921 769.056L43.3993 769.763L44.1064 769.056L43.3993 768.348ZM43.5899 768.539L769.204 42.9248L767.79 41.5106L42.1757 767.125L43.5899 768.539ZM767.79 42.9248L768.307 43.4412L769.721 42.027L769.204 41.5106L767.79 42.9248ZM768.307 42.027L42.6921 767.641L44.1064 769.056L769.721 43.4412L768.307 42.027ZM44.1064 767.641L43.5899 767.125L42.1757 768.539L42.6921 769.056L44.1064 767.641Z" fill="#D1C6C2" mask="url(#path-13-inside-7_252_1995)"/>
<mask id="path-15-inside-8_252_1995" fill="white">
<path d="M810.411 84.1327L84.7969 809.747L85.3133 810.264L810.928 84.6491L810.411 84.1327Z"/>
</mask>
<path d="M810.411 84.1327L84.7969 809.747L85.3133 810.264L810.928 84.6491L810.411 84.1327Z" fill="white"/>
<path d="M84.7969 809.747L84.0898 809.04L83.3827 809.747L84.0898 810.454L84.7969 809.747ZM810.411 84.1327L811.118 83.4256L810.411 82.7185L809.704 83.4256L810.411 84.1327ZM810.928 84.6491L811.635 85.3562L812.342 84.6491L811.635 83.942L810.928 84.6491ZM85.3133 810.264L84.6062 810.971L85.3133 811.678L86.0204 810.971L85.3133 810.264ZM85.504 810.454L811.118 84.8398L809.704 83.4256L84.0898 809.04L85.504 810.454ZM809.704 84.8398L810.221 85.3562L811.635 83.942L811.118 83.4256L809.704 84.8398ZM810.221 83.942L84.6062 809.556L86.0204 810.971L811.635 85.3562L810.221 83.942ZM86.0204 809.556L85.504 809.04L84.0898 810.454L84.6062 810.971L86.0204 809.556Z" fill="#D1C6C2" mask="url(#path-15-inside-8_252_1995)"/>
<mask id="path-17-inside-9_252_1995" fill="white">
<path d="M852.325 126.048L126.711 851.662L127.227 852.179L852.842 126.564L852.325 126.048Z"/>
</mask>
<path d="M852.325 126.048L126.711 851.662L127.227 852.179L852.842 126.564L852.325 126.048Z" fill="white"/>
<path d="M126.711 851.662L126.004 850.955L125.297 851.662L126.004 852.369L126.711 851.662ZM852.325 126.048L853.032 125.341L852.325 124.634L851.618 125.341L852.325 126.048ZM852.842 126.564L853.549 127.271L854.256 126.564L853.549 125.857L852.842 126.564ZM127.227 852.179L126.52 852.886L127.227 853.593L127.934 852.886L127.227 852.179ZM127.418 852.369L853.032 126.755L851.618 125.341L126.004 850.955L127.418 852.369ZM851.618 126.755L852.135 127.271L853.549 125.857L853.032 125.341L851.618 126.755ZM852.135 125.857L126.52 851.471L127.934 852.886L853.549 127.271L852.135 125.857ZM127.934 851.471L127.418 850.955L126.004 852.369L126.52 852.886L127.934 851.471Z" fill="#D1C6C2" mask="url(#path-17-inside-9_252_1995)"/>
<mask id="path-19-inside-10_252_1995" fill="white">
<path d="M894.087 167.797L168.473 893.411L168.989 893.928L894.603 168.313L894.087 167.797Z"/>
</mask>
<path d="M894.087 167.797L168.473 893.411L168.989 893.928L894.603 168.313L894.087 167.797Z" fill="white"/>
<path d="M168.473 893.411L167.766 892.704L167.058 893.411L167.766 894.118L168.473 893.411ZM894.087 167.797L894.794 167.09L894.087 166.383L893.38 167.09L894.087 167.797ZM894.603 168.313L895.311 169.02L896.018 168.313L895.311 167.606L894.603 168.313ZM168.989 893.928L168.282 894.635L168.989 895.342L169.696 894.635L168.989 893.928ZM169.18 894.118L894.794 168.504L893.38 167.09L167.766 892.704L169.18 894.118ZM893.38 168.504L893.896 169.02L895.311 167.606L894.794 167.09L893.38 168.504ZM893.896 167.606L168.282 893.22L169.696 894.635L895.311 169.02L893.896 167.606ZM169.696 893.22L169.18 892.704L167.766 894.118L168.282 894.635L169.696 893.22Z" fill="#D1C6C2" mask="url(#path-19-inside-10_252_1995)"/>
</svg>
