<svg width="368" height="65" viewBox="0 0 368 65" fill="none" xmlns="http://www.w3.org/2000/svg">
<g clip-path="url(#clip0_1408_37102)">
<path d="M301.984 56.7361C296.895 61.9936 289.596 65 281.93 65C281.831 65 281.725 65 281.626 64.9929C273.875 64.9216 266.541 61.7229 261.494 56.2516C257.36 51.7492 255.286 46.1782 255.668 40.5716V40.3935H261.798L261.848 40.5288C262.499 49.2273 273.315 59.2794 284.648 58.0184C293.688 57.0139 301.043 49.5479 301.404 41.0346C301.8 31.353 293.964 22.1345 282.291 22.106L280.529 22.0775L283.367 16.0505C289.511 15.8226 295.889 17.8387 300.731 22.1843C305.743 26.6939 308.553 33.2338 308.78 39.5172C308.999 45.8933 306.592 52.0057 301.991 56.7575L301.984 56.7361ZM258.967 2.47918V10.0378H301.411L304.971 2.47205H258.967V2.47918ZM367.986 39.503C367.759 33.2195 364.949 26.6796 359.937 22.1701C355.096 17.8244 348.725 15.8083 342.573 16.0363L339.735 22.0632L341.497 22.0917C353.177 22.1202 361.013 31.3388 360.61 41.0204C360.249 49.5336 352.901 56.9997 343.855 58.0042C332.522 59.2651 321.705 49.2131 321.054 40.5146L321.005 40.3792H314.881V40.5573C314.492 46.164 316.566 51.735 320.7 56.2374C325.747 61.7158 333.081 64.9145 340.832 64.9786C340.931 64.9858 341.037 64.9858 341.136 64.9858C348.803 64.9858 356.101 61.9794 361.19 56.7218C365.791 51.9772 368.198 45.8576 367.979 39.4816L367.986 39.503ZM318.18 2.47918V10.0378H360.624L364.185 2.47205H318.18V2.47918ZM0 20.8878V45.017H4.0207V35.5562L19.9265 44.8033V40.1299L7.40431 32.8562L19.9265 25.5754V20.902L4.0207 30.1491V20.8878H0ZM189.171 20.902L173.258 30.1491V20.8949H169.237V45.017H173.258V35.5562L189.171 44.8033V40.1299L176.649 32.8562L189.171 25.5825V20.9091V20.902ZM26.7787 33.4048V24.749H33.2203C34.8626 24.749 36.1296 25.148 37.0216 25.9387C37.9135 26.7295 38.3594 27.7696 38.3594 29.0591C38.3594 30.3485 37.9135 31.4171 37.0216 32.215C36.1296 33.0058 34.8626 33.4048 33.2203 33.4048H26.7787ZM26.7787 45.0241V37.266H33.284C35.1315 37.266 36.7596 36.9027 38.1471 36.1831C39.5416 35.4565 40.6175 34.4734 41.382 33.2338C42.1465 31.9942 42.5288 30.605 42.5288 29.0662C42.5288 27.5274 42.1465 26.1667 41.382 24.9129C40.6175 23.659 39.5416 22.683 38.1471 21.9635C36.7526 21.2511 35.1315 20.8949 33.284 20.8949H22.7014V45.017H26.7787V45.0241ZM67.8139 45.0241H71.9266V20.8878H67.8139V45.017V45.0241ZM50.2375 41.1629V32.6852H55.8934C57.5144 32.6852 58.7531 33.0699 59.6097 33.8393C60.4662 34.6087 60.8909 35.6346 60.8909 36.924C60.8909 38.2135 60.4662 39.2394 59.6097 40.0088C58.7531 40.7782 57.5144 41.1629 55.8934 41.1629H50.2375ZM55.8226 45.0241C57.6701 45.0241 59.2982 44.675 60.7069 43.9769C62.1084 43.2716 63.1915 42.3098 63.9418 41.0774C64.6992 39.852 65.0744 38.4628 65.0744 36.924C65.0744 35.3853 64.6992 34.0317 63.9418 32.8063C63.1844 31.581 62.1084 30.605 60.7069 29.8926C59.3053 29.1802 57.6772 28.824 55.8226 28.824H50.2375V20.8949H46.1602V45.017H55.8155L55.8226 45.0241ZM78.9062 45.0241L84.1515 24.7561H87.6767L92.8866 45.0241H96.9993L90.8338 20.8949H81.0015L74.8359 45.0241H78.9133H78.9062ZM107.235 24.7561H111.036L113.677 34.9578H104.602L107.235 24.7561ZM102.032 45.0241L103.639 38.8191H114.632L116.246 45.0241H120.423L114.186 20.8949H104.085L97.8488 45.0241H102.025H102.032ZM131.897 45.0241V24.7561H139.882V20.8949H119.842V24.7561H127.827V45.0241H131.904H131.897ZM154.436 45.7151C156.63 45.7151 158.556 45.2735 160.226 44.3901C161.89 43.5067 163.249 42.3455 164.289 40.9064C165.33 39.4673 166.094 37.9143 166.597 36.233H162.421C161.868 37.7932 160.92 39.1254 159.575 40.2154C158.23 41.3054 156.517 41.8539 154.436 41.8539C152.765 41.8539 151.286 41.4763 149.983 40.7283C148.681 39.9803 147.669 38.9402 146.954 37.608C146.232 36.2758 145.878 34.7227 145.878 32.9559C145.878 31.1892 146.246 29.6717 146.975 28.3324C147.704 27.0002 148.723 25.953 150.026 25.1978C151.328 24.4356 152.801 24.058 154.443 24.058C156.474 24.058 158.145 24.5495 159.462 25.5398C160.771 26.53 161.706 27.734 162.251 29.1588H166.427C165.974 27.5701 165.245 26.1026 164.254 24.749C163.263 23.3954 161.932 22.2983 160.283 21.4577C158.626 20.6171 156.68 20.2039 154.443 20.2039C151.98 20.2039 149.771 20.7524 147.831 21.8566C145.892 22.9609 144.363 24.4854 143.259 26.4232C142.154 28.368 141.602 30.5409 141.602 32.9559C141.602 35.371 142.154 37.5438 143.259 39.4887C144.37 41.4336 145.892 42.951 147.831 44.0552C149.771 45.1595 151.972 45.708 154.443 45.708M200.476 24.749H204.277L206.917 34.9507H197.842L200.476 24.749ZM195.273 45.017L196.88 38.8119H207.873L209.487 45.017H213.663L207.427 20.8878H197.326L191.089 45.017H195.266H195.273ZM224.798 32.7066C223.219 32.7066 222.016 32.3433 221.188 31.6237C220.353 30.8971 219.935 29.9282 219.935 28.71C219.935 27.4918 220.353 26.587 221.188 25.8532C222.023 25.1195 223.227 24.749 224.798 24.749H231.41V32.7066H224.798ZM215.822 45.0099H220.445L225.407 36.5678H231.402V45.0099H235.515V20.8878H224.798C222.972 20.8878 221.365 21.2297 219.985 21.9065C218.604 22.5833 217.549 23.5166 216.835 24.7134C216.12 25.9102 215.759 27.2424 215.759 28.71C215.759 30.5266 216.275 32.0654 217.316 33.3335C218.356 34.5945 219.687 35.5064 221.308 36.0549L215.829 45.017L215.822 45.0099ZM99.7246 8.73411H99.9299C100.284 8.73411 100.56 8.6415 100.751 8.45627C100.942 8.27104 101.091 7.89347 101.197 7.32354C101.303 6.75362 101.36 5.92723 101.36 4.84437V2.03748H106.357V9.68873H105.395V2.91374H102.266V5.02247C102.266 6.26918 102.181 7.23093 102.018 7.90772C101.848 8.59163 101.608 9.05469 101.282 9.30403C100.956 9.55338 100.51 9.68161 99.9441 9.68161H99.7317V8.72698L99.7246 8.73411ZM95.6968 3.02061L94.5359 6.46153H97.2825L96.1216 3.02061H95.6968ZM98.3726 9.68873L97.5869 7.33779H94.2528L93.467 9.68873H92.4902L95.1235 2.03036H96.7445L99.3848 9.68873H98.3867H98.3726ZM92.5964 2.03036V2.88525H90.1047V9.68873H89.142V2.89237H86.629V2.03748H92.5964V2.03036ZM81.051 5.76337H83.1463C84.3285 5.76337 84.916 5.28606 84.916 4.32431C84.916 3.36256 84.3285 2.88525 83.1463 2.88525H81.051V5.75625V5.76337ZM80.0954 2.03036H83.3091C84.1303 2.03036 84.7673 2.22983 85.2133 2.62878C85.6593 3.02773 85.8858 3.59053 85.8858 4.31006C85.8858 5.02959 85.6593 5.60664 85.2133 6.01271C84.7673 6.41879 84.1303 6.61826 83.3091 6.61826H81.051V9.68161H80.0954V2.03748V2.03036ZM75.2394 3.01348L74.0785 6.45441H76.8251L75.6641 3.01348H75.2394ZM77.9152 9.68161L77.1294 7.33067H73.7954L73.0096 9.68161H72.0328L74.666 2.02324H76.2871L78.9274 9.68161H77.9293H77.9152ZM66.2707 8.82672H68.6492C69.1376 8.82672 69.5411 8.71986 69.8525 8.51326C70.164 8.29954 70.3197 7.95046 70.3197 7.4589C70.3197 6.99584 70.164 6.65388 69.8596 6.44728C69.5482 6.23356 69.1517 6.13382 68.6633 6.13382H66.2778V8.83385L66.2707 8.82672ZM66.2707 2.88525V5.27893H68.5996C69.5835 5.27893 70.0791 4.87286 70.0791 4.0536C70.0791 3.65465 69.9375 3.36256 69.6543 3.17021C69.3712 2.97786 69.0102 2.88525 68.5784 2.88525H66.2707ZM71.0559 3.96811C71.0559 4.70189 70.7798 5.22194 70.2277 5.52115V5.75625C70.5462 5.90585 70.8082 6.14095 70.9993 6.46153C71.1975 6.78211 71.2895 7.13832 71.2895 7.52302C71.2895 8.16418 71.0701 8.68424 70.6312 9.08319C70.1923 9.48214 69.5552 9.68161 68.7129 9.68161H65.3151V2.03748H68.6279C69.3995 2.03748 70.0012 2.22271 70.4259 2.59316C70.8506 2.96361 71.0559 3.42668 71.0559 3.98235M58.1019 9.69586V2.03748H59.0646V5.30743H61.3652L62.8871 2.03748H63.8994L62.1934 5.75625L63.9914 9.68873H62.9791L61.3581 6.18369H59.0575V9.68873H58.0948L58.1019 9.69586ZM50.8675 0.705283C51.0657 0.534305 51.1719 0.299211 51.1789 0H51.9576C51.9434 0.520057 51.7665 0.926129 51.4267 1.22534C51.0869 1.51743 50.641 1.66703 50.0959 1.66703C49.5508 1.66703 49.1261 1.51743 48.7863 1.22534C48.4466 0.933253 48.2696 0.527181 48.2554 0H49.0341C49.0412 0.299211 49.1403 0.534305 49.3314 0.705283C49.5225 0.87626 49.7774 0.961749 50.0959 0.961749C50.4144 0.961749 50.6764 0.87626 50.8746 0.705283M46.9954 2.03748H47.9298V8.52039H48.1634L51.7028 2.03748H53.2035V9.68873H52.2691V3.20583H52.0355L48.4961 9.68873H46.9954V2.03748ZM42.3872 9.06894C41.9271 9.48213 41.2759 9.68873 40.4335 9.68873H37.418V2.03748H38.3736V4.96548H40.4335C41.2688 4.96548 41.92 5.17207 42.3801 5.59239C42.8402 6.01271 43.0738 6.58976 43.0738 7.32354C43.0738 8.05732 42.8473 8.65574 42.3872 9.06894ZM38.3736 8.83385H40.2565C41.4811 8.83385 42.097 8.32804 42.097 7.32354C42.097 6.31905 41.4811 5.82036 40.2565 5.82036H38.3736V8.83385ZM44.0932 2.03748H45.0488V9.68873H44.0932V2.03748ZM34.5157 2.03748H35.4713V9.68873H34.5157V6.19082H30.2685V9.68873H29.3058V2.03748H30.2685V5.29318H34.5157V2.03748ZM22.9491 8.83385H25.0798C25.6957 8.83385 26.1416 8.71274 26.4177 8.47052C26.6937 8.2283 26.8282 7.8721 26.8282 7.40903C26.8282 6.46153 26.2478 5.99134 25.0798 5.99134H22.9491V8.83385ZM22.9491 5.14358H25.2426C26.0496 5.14358 26.6796 5.34305 27.1255 5.742C27.5715 6.14095 27.7909 6.69662 27.7909 7.41616C27.7909 8.13569 27.5715 8.69136 27.1255 9.09031C26.6796 9.48926 26.0567 9.68873 25.2426 9.68873H21.9935V2.03748H27.2034V2.92087H22.9562V5.1507L22.9491 5.14358ZM17.5693 6.05546H17.8666L19.7708 2.03748H20.7689L17.1375 9.69586H16.1465L17.2366 7.40191L14.4264 2.04461H15.4599L17.5693 6.06258V6.05546ZM6.63981 8.73411H6.8451C7.19903 8.73411 7.4751 8.6415 7.66622 8.45627C7.85735 8.27104 8.006 7.89347 8.11218 7.32354C8.21836 6.75362 8.27499 5.92723 8.27499 4.84437V2.03748H13.2725V9.68873H12.3169V2.91374H9.18814V5.02247C9.18814 6.26918 9.1032 7.23093 8.94039 7.90772C8.77758 8.59163 8.52982 9.05469 8.2042 9.30403C7.87858 9.55338 7.43263 9.68161 6.86633 9.68161H6.65397V8.72698L6.63981 8.73411ZM0 9.68873V2.03748H0.955624V5.30743H3.2562L4.7852 2.03748H5.79745L4.09148 5.75625L5.88947 9.68873H4.87722L3.2562 6.18369H0.955624V9.68873H0Z" fill="#F8F0EC"/>
</g>
<defs>
<clipPath id="clip0_1408_37102">
<rect width="368" height="65" fill="white"/>
</clipPath>
</defs>
</svg>
