<svg width="368" height="66" viewBox="0 0 368 66" fill="none" xmlns="http://www.w3.org/2000/svg">
<path d="M301.984 57.2361C296.895 62.4936 289.596 65.5 281.93 65.5C281.831 65.5 281.725 65.5 281.626 65.4929C273.875 65.4216 266.541 62.2229 261.494 56.7516C257.36 52.2492 255.286 46.6782 255.668 41.0716V40.8935H261.798L261.848 41.0288C262.499 49.7273 273.315 59.7794 284.648 58.5184C293.688 57.5139 301.043 50.0479 301.404 41.5346C301.8 31.853 293.964 22.6345 282.291 22.606L280.529 22.5775L283.367 16.5505C289.511 16.3226 295.889 18.3387 300.731 22.6843C305.743 27.1939 308.553 33.7338 308.78 40.0172C308.999 46.3933 306.592 52.5057 301.991 57.2575L301.984 57.2361ZM258.967 2.97918V10.5378H301.411L304.971 2.97205H258.967V2.97918ZM367.986 40.003C367.759 33.7195 364.949 27.1796 359.937 22.6701C355.096 18.3244 348.725 16.3083 342.573 16.5363L339.735 22.5632L341.497 22.5917C353.177 22.6202 361.013 31.8388 360.61 41.5204C360.249 50.0336 352.901 57.4997 343.855 58.5042C332.522 59.7651 321.705 49.7131 321.054 41.0146L321.005 40.8792H314.881V41.0573C314.492 46.664 316.566 52.235 320.7 56.7374C325.747 62.2158 333.081 65.4145 340.832 65.4786C340.931 65.4858 341.037 65.4858 341.136 65.4858C348.803 65.4858 356.101 62.4794 361.19 57.2218C365.791 52.4772 368.198 46.3576 367.979 39.9816L367.986 40.003ZM318.18 2.97918V10.5378H360.624L364.185 2.97205H318.18V2.97918ZM0 21.3878V45.517H4.0207V36.0562L19.9265 45.3033V40.6299L7.40431 33.3562L19.9265 26.0754V21.402L4.0207 30.6491V21.3878H0ZM189.171 21.402L173.258 30.6491V21.3949H169.237V45.517H173.258V36.0562L189.171 45.3033V40.6299L176.649 33.3562L189.171 26.0825V21.4091V21.402ZM26.7787 33.9048V25.249H33.2203C34.8626 25.249 36.1296 25.648 37.0216 26.4387C37.9135 27.2295 38.3594 28.2696 38.3594 29.5591C38.3594 30.8485 37.9135 31.9171 37.0216 32.715C36.1296 33.5058 34.8626 33.9048 33.2203 33.9048H26.7787ZM26.7787 45.5241V37.766H33.284C35.1315 37.766 36.7596 37.4027 38.1471 36.6831C39.5416 35.9565 40.6175 34.9734 41.382 33.7338C42.1465 32.4942 42.5288 31.105 42.5288 29.5662C42.5288 28.0274 42.1465 26.6667 41.382 25.4129C40.6175 24.159 39.5416 23.183 38.1471 22.4635C36.7526 21.7511 35.1315 21.3949 33.284 21.3949H22.7014V45.517H26.7787V45.5241ZM67.8139 45.5241H71.9266V21.3878H67.8139V45.517V45.5241ZM50.2375 41.6629V33.1852H55.8934C57.5144 33.1852 58.7531 33.5699 59.6097 34.3393C60.4662 35.1087 60.8909 36.1346 60.8909 37.424C60.8909 38.7135 60.4662 39.7394 59.6097 40.5088C58.7531 41.2782 57.5144 41.6629 55.8934 41.6629H50.2375ZM55.8226 45.5241C57.6701 45.5241 59.2982 45.175 60.7069 44.4769C62.1084 43.7716 63.1915 42.8098 63.9418 41.5774C64.6992 40.352 65.0744 38.9628 65.0744 37.424C65.0744 35.8853 64.6992 34.5317 63.9418 33.3063C63.1844 32.081 62.1084 31.105 60.7069 30.3926C59.3053 29.6802 57.6772 29.324 55.8226 29.324H50.2375V21.3949H46.1602V45.517H55.8155L55.8226 45.5241ZM78.9062 45.5241L84.1515 25.2561H87.6767L92.8866 45.5241H96.9993L90.8338 21.3949H81.0015L74.8359 45.5241H78.9133H78.9062ZM107.235 25.2561H111.036L113.677 35.4578H104.602L107.235 25.2561ZM102.032 45.5241L103.639 39.3191H114.632L116.246 45.5241H120.423L114.186 21.3949H104.085L97.8488 45.5241H102.025H102.032ZM131.897 45.5241V25.2561H139.882V21.3949H119.842V25.2561H127.827V45.5241H131.904H131.897ZM154.436 46.2151C156.63 46.2151 158.556 45.7735 160.226 44.8901C161.89 44.0067 163.249 42.8455 164.289 41.4064C165.33 39.9673 166.094 38.4143 166.597 36.733H162.421C161.868 38.2932 160.92 39.6254 159.575 40.7154C158.23 41.8054 156.517 42.3539 154.436 42.3539C152.765 42.3539 151.286 41.9763 149.983 41.2283C148.681 40.4803 147.669 39.4402 146.954 38.108C146.232 36.7758 145.878 35.2227 145.878 33.4559C145.878 31.6892 146.246 30.1717 146.975 28.8324C147.704 27.5002 148.723 26.453 150.026 25.6978C151.328 24.9356 152.801 24.558 154.443 24.558C156.474 24.558 158.145 25.0495 159.462 26.0398C160.771 27.03 161.706 28.234 162.251 29.6588H166.427C165.974 28.0701 165.245 26.6026 164.254 25.249C163.263 23.8954 161.932 22.7983 160.283 21.9577C158.626 21.1171 156.68 20.7039 154.443 20.7039C151.98 20.7039 149.771 21.2524 147.831 22.3566C145.892 23.4609 144.363 24.9854 143.259 26.9232C142.154 28.868 141.602 31.0409 141.602 33.4559C141.602 35.871 142.154 38.0438 143.259 39.9887C144.37 41.9336 145.892 43.451 147.831 44.5552C149.771 45.6595 151.972 46.208 154.443 46.208M200.476 25.249H204.277L206.917 35.4507H197.842L200.476 25.249ZM195.273 45.517L196.88 39.3119H207.873L209.487 45.517H213.663L207.427 21.3878H197.326L191.089 45.517H195.266H195.273ZM224.798 33.2066C223.219 33.2066 222.016 32.8433 221.188 32.1237C220.353 31.3971 219.935 30.4282 219.935 29.21C219.935 27.9918 220.353 27.087 221.188 26.3532C222.023 25.6195 223.227 25.249 224.798 25.249H231.41V33.2066H224.798ZM215.822 45.5099H220.445L225.407 37.0678H231.402V45.5099H235.515V21.3878H224.798C222.972 21.3878 221.365 21.7297 219.985 22.4065C218.604 23.0833 217.549 24.0166 216.835 25.2134C216.12 26.4102 215.759 27.7424 215.759 29.21C215.759 31.0266 216.275 32.5654 217.316 33.8335C218.356 35.0945 219.687 36.0064 221.308 36.5549L215.829 45.517L215.822 45.5099ZM99.7246 9.23411H99.9299C100.284 9.23411 100.56 9.1415 100.751 8.95627C100.942 8.77104 101.091 8.39347 101.197 7.82354C101.303 7.25362 101.36 6.42723 101.36 5.34437V2.53748H106.357V10.1887H105.395V3.41374H102.266V5.52247C102.266 6.76918 102.181 7.73093 102.018 8.40772C101.848 9.09163 101.608 9.55469 101.282 9.80403C100.956 10.0534 100.51 10.1816 99.9441 10.1816H99.7317V9.22698L99.7246 9.23411ZM95.6968 3.52061L94.5359 6.96153H97.2825L96.1216 3.52061H95.6968ZM98.3726 10.1887L97.5869 7.83779H94.2528L93.467 10.1887H92.4902L95.1235 2.53036H96.7445L99.3848 10.1887H98.3867H98.3726ZM92.5964 2.53036V3.38525H90.1047V10.1887H89.142V3.39237H86.629V2.53748H92.5964V2.53036ZM81.051 6.26337H83.1463C84.3285 6.26337 84.916 5.78606 84.916 4.82431C84.916 3.86256 84.3285 3.38525 83.1463 3.38525H81.051V6.25625V6.26337ZM80.0954 2.53036H83.3091C84.1303 2.53036 84.7673 2.72983 85.2133 3.12878C85.6593 3.52773 85.8858 4.09053 85.8858 4.81006C85.8858 5.52959 85.6593 6.10664 85.2133 6.51271C84.7673 6.91879 84.1303 7.11826 83.3091 7.11826H81.051V10.1816H80.0954V2.53748V2.53036ZM75.2394 3.51348L74.0785 6.95441H76.8251L75.6641 3.51348H75.2394ZM77.9152 10.1816L77.1294 7.83067H73.7954L73.0096 10.1816H72.0328L74.666 2.52324H76.2871L78.9274 10.1816H77.9293H77.9152ZM66.2707 9.32672H68.6492C69.1376 9.32672 69.5411 9.21986 69.8525 9.01326C70.164 8.79954 70.3197 8.45046 70.3197 7.9589C70.3197 7.49584 70.164 7.15388 69.8596 6.94728C69.5482 6.73356 69.1517 6.63382 68.6633 6.63382H66.2778V9.33385L66.2707 9.32672ZM66.2707 3.38525V5.77893H68.5996C69.5835 5.77893 70.0791 5.37286 70.0791 4.5536C70.0791 4.15465 69.9375 3.86256 69.6543 3.67021C69.3712 3.47786 69.0102 3.38525 68.5784 3.38525H66.2707ZM71.0559 4.46811C71.0559 5.20189 70.7798 5.72194 70.2277 6.02115V6.25625C70.5462 6.40585 70.8082 6.64095 70.9993 6.96153C71.1975 7.28211 71.2895 7.63832 71.2895 8.02302C71.2895 8.66418 71.0701 9.18424 70.6312 9.58319C70.1923 9.98214 69.5552 10.1816 68.7129 10.1816H65.3151V2.53748H68.6279C69.3995 2.53748 70.0012 2.72271 70.4259 3.09316C70.8506 3.46361 71.0559 3.92668 71.0559 4.48235M58.1019 10.1959V2.53748H59.0646V5.80743H61.3652L62.8871 2.53748H63.8994L62.1934 6.25625L63.9914 10.1887H62.9791L61.3581 6.68369H59.0575V10.1887H58.0948L58.1019 10.1959ZM50.8675 1.20528C51.0657 1.03431 51.1719 0.799211 51.1789 0.5H51.9576C51.9434 1.02006 51.7665 1.42613 51.4267 1.72534C51.0869 2.01743 50.641 2.16703 50.0959 2.16703C49.5508 2.16703 49.1261 2.01743 48.7863 1.72534C48.4466 1.43325 48.2696 1.02718 48.2554 0.5H49.0341C49.0412 0.799211 49.1403 1.03431 49.3314 1.20528C49.5225 1.37626 49.7774 1.46175 50.0959 1.46175C50.4144 1.46175 50.6764 1.37626 50.8746 1.20528M46.9954 2.53748H47.9298V9.02039H48.1634L51.7028 2.53748H53.2035V10.1887H52.2691V3.70583H52.0355L48.4961 10.1887H46.9954V2.53748ZM42.3872 9.56894C41.9271 9.98213 41.2759 10.1887 40.4335 10.1887H37.418V2.53748H38.3736V5.46548H40.4335C41.2688 5.46548 41.92 5.67207 42.3801 6.09239C42.8402 6.51271 43.0738 7.08976 43.0738 7.82354C43.0738 8.55732 42.8473 9.15574 42.3872 9.56894ZM38.3736 9.33385H40.2565C41.4811 9.33385 42.097 8.82804 42.097 7.82354C42.097 6.81905 41.4811 6.32036 40.2565 6.32036H38.3736V9.33385ZM44.0932 2.53748H45.0488V10.1887H44.0932V2.53748ZM34.5157 2.53748H35.4713V10.1887H34.5157V6.69082H30.2685V10.1887H29.3058V2.53748H30.2685V5.79318H34.5157V2.53748ZM22.9491 9.33385H25.0798C25.6957 9.33385 26.1416 9.21274 26.4177 8.97052C26.6937 8.7283 26.8282 8.3721 26.8282 7.90903C26.8282 6.96153 26.2478 6.49134 25.0798 6.49134H22.9491V9.33385ZM22.9491 5.64358H25.2426C26.0496 5.64358 26.6796 5.84305 27.1255 6.242C27.5715 6.64095 27.7909 7.19662 27.7909 7.91616C27.7909 8.63569 27.5715 9.19136 27.1255 9.59031C26.6796 9.98926 26.0567 10.1887 25.2426 10.1887H21.9935V2.53748H27.2034V3.42087H22.9562V5.6507L22.9491 5.64358ZM17.5693 6.55546H17.8666L19.7708 2.53748H20.7689L17.1375 10.1959H16.1465L17.2366 7.90191L14.4264 2.54461H15.4599L17.5693 6.56258V6.55546ZM6.63981 9.23411H6.8451C7.19903 9.23411 7.4751 9.1415 7.66622 8.95627C7.85735 8.77104 8.006 8.39347 8.11218 7.82354C8.21836 7.25362 8.27499 6.42723 8.27499 5.34437V2.53748H13.2725V10.1887H12.3169V3.41374H9.18814V5.52247C9.18814 6.76918 9.1032 7.73093 8.94039 8.40772C8.77758 9.09163 8.52982 9.55469 8.2042 9.80403C7.87858 10.0534 7.43263 10.1816 6.86633 10.1816H6.65397V9.22698L6.63981 9.23411ZM0 10.1887V2.53748H0.955624V5.80743H3.2562L4.7852 2.53748H5.79745L4.09148 6.25625L5.88947 10.1887H4.87722L3.2562 6.68369H0.955624V10.1887H0Z" fill="#63483F"/>
</svg>
