<svg width="85" height="119" viewBox="0 0 85 119" fill="none" xmlns="http://www.w3.org/2000/svg">
<path d="M42.1591 118.501C38.7134 113.069 35.422 107.883 32.1356 102.695C24.185 90.1461 16.199 77.6167 8.30146 65.0366C3.90019 58.0311 0.828659 50.497 0.118288 42.3187C-0.490963 35.3204 1.28623 28.6502 4.68893 22.4362C12.7255 7.7615 28.6267 -0.55925 45.8905 0.787322C65.116 2.28593 81.1057 16.811 83.8865 35.0139C84.928 41.8336 83.4289 48.1779 81.1411 54.5005C78.8962 60.7073 75.3216 66.2529 71.7849 71.8226C63.1618 85.3945 54.5565 98.9784 45.9436 112.555C44.7301 114.469 43.5116 116.382 42.1617 118.506L42.1591 118.501Z" fill="#63483F"/>
<path d="M28.4714 59.5333C31.8144 59.5333 34.9968 58.3129 37.2162 56.1786L37.2193 56.1873C39.2257 54.2584 40.2751 51.7771 40.1795 49.1888C40.0807 46.6381 38.8552 43.9833 36.6698 42.1527C34.5585 40.3886 31.7773 39.5701 29.098 39.6627L27.8602 42.1093L28.6288 42.1208C33.7189 42.1324 37.1359 45.8746 36.9631 49.8047C36.8056 53.2606 33.5985 56.2914 29.6567 56.6992C24.7148 57.211 19.9983 53.1305 19.7143 49.5994L19.6927 49.5445H17.0195V49.6168C16.8529 51.8927 17.7573 54.1542 19.5599 55.982C21.7608 58.203 24.9587 59.5015 28.3387 59.5304C28.3819 59.5333 28.4281 59.5333 28.4713 59.5333H28.4714Z" fill="white"/>
<path d="M18.458 37.2219V34.1535V34.1506H38.5188L36.9661 37.2219H18.458Z" fill="white"/>
<path d="M62.4874 42.1469C64.6729 43.9775 65.8983 46.6323 65.9971 49.183L65.994 49.1743C66.0897 51.7626 65.0402 54.2468 63.0338 56.1728C60.8144 58.3071 57.632 59.5275 54.289 59.5275H54.2889C54.2457 59.5275 54.1995 59.5275 54.1563 59.5246C50.7763 59.4986 47.5784 58.2001 45.3776 55.9762C43.5749 54.1485 42.6705 51.887 42.8402 49.611V49.5387H45.5103L45.5319 49.5936C45.8159 53.1247 50.5324 57.2052 55.4743 56.6934C59.4192 56.2856 62.6232 53.2548 62.7807 49.799C62.9566 45.8688 59.5396 42.1266 54.4464 42.1151L53.6778 42.1035L54.9156 39.6569C57.598 39.5644 60.3761 40.3828 62.4874 42.1469Z" fill="white"/>
<path d="M44.2787 37.2219V34.1535V34.1506H64.3395L62.7868 37.2219H44.2787Z" fill="white"/>
</svg>
