<svg width="71" height="104" viewBox="0 0 71 104" fill="none" xmlns="http://www.w3.org/2000/svg">
<path d="M35.5399 103.996C32.6352 99.2024 29.8605 94.6263 27.0901 90.0481C20.3878 78.9751 13.6556 67.9192 6.99808 56.8186C3.28784 50.6369 0.698554 43.9889 0.0997158 36.7723C-0.413879 30.597 1.08428 24.7113 3.95274 19.2281C10.7275 6.27914 24.1321 -1.06308 38.6854 0.125136C54.8924 1.4475 68.3715 14.2644 70.7157 30.3266C71.5938 36.3443 70.33 41.9425 68.4014 47.5216C66.509 52.9984 63.4956 57.8918 60.5142 62.8065C53.245 74.7823 45.9908 86.7688 38.7301 98.7489C37.7072 100.437 36.68 102.126 35.542 104L35.5399 103.996Z" fill="#63483F"/>
<path d="M22.4714 47C25.8144 47 28.9968 45.798 31.2162 43.6959L31.2193 43.7045C33.2257 41.8046 34.2751 39.3607 34.1795 36.8114C34.0807 34.2992 32.8552 31.6844 30.6698 29.8814C28.5585 28.1439 25.7773 27.3378 23.098 27.429L21.8602 29.8387L22.6288 29.8501C27.7189 29.8615 31.1359 33.5472 30.9631 37.4181C30.8056 40.8219 27.5985 43.807 23.6567 44.2086C18.7148 44.7128 13.9983 40.6937 13.7143 37.2159L13.6927 37.1618H11.0195V37.233C10.8529 39.4747 11.7573 41.7021 13.5599 43.5022C15.7608 45.6898 18.9587 46.9687 22.3387 46.9972C22.3819 47 22.4281 47 22.4713 47H22.4714Z" fill="white"/>
<path d="M12.458 25.025V22.0028V22H32.5188L30.9661 25.025H12.458Z" fill="white"/>
<path d="M56.4874 29.8757C58.6729 31.6787 59.8983 34.2935 59.9971 36.8057L59.994 36.7972C60.0897 39.3465 59.0402 41.7932 57.0338 43.6902C54.8144 45.7923 51.632 46.9943 48.289 46.9943H48.2889C48.2457 46.9943 48.1995 46.9943 48.1563 46.9915C44.7763 46.9658 41.5784 45.6869 39.3776 43.4965C37.5749 41.6964 36.6705 39.469 36.8402 37.2273V37.1561H39.5103L39.5319 37.2102C39.8159 40.688 44.5324 44.7071 49.4743 44.2029C53.4192 43.8013 56.6232 40.8162 56.7807 37.4124C56.9566 33.5415 53.5396 29.8558 48.4464 29.8444L47.6778 29.833L48.9156 27.4233C51.598 27.3321 54.3761 28.1382 56.4874 29.8757Z" fill="white"/>
<path d="M38.2787 25.025V22.0028V22H58.3395L56.7868 25.025H38.2787Z" fill="white"/>
</svg>
