<svg width="29" height="28" viewBox="0 0 29 28" fill="none" xmlns="http://www.w3.org/2000/svg">
<path d="M28.5523 14.8311H26.8272V1.63307C26.7584 1.69652 26.7181 1.73038 26.6816 1.76786C25.6856 2.78828 24.6886 3.80738 23.698 4.83273C23.6383 4.89454 23.6044 5.005 23.604 5.09277C23.5993 8.26646 23.6 11.4402 23.6 14.6138V14.8305H21.8602V1.67252C21.8347 1.65411 21.8091 1.6357 21.7836 1.61729C21.7561 1.67022 21.7393 1.73367 21.6994 1.77476C20.7058 2.79715 19.7081 3.81593 18.7182 4.84161C18.6598 4.90243 18.6343 5.01617 18.6343 5.10526C18.6302 8.27337 18.6309 11.4415 18.6309 14.6099V14.8288H16.8988C16.8954 14.7588 16.8894 14.695 16.8894 14.6313C16.8891 11.2442 16.8894 7.85718 16.8867 4.47013C16.8867 4.35145 16.922 4.26697 17.0062 4.18182C18.3563 2.81918 19.7024 1.45325 21.0525 0.0909346C21.0972 0.0458967 21.173 0.00611871 21.2348 0.00578997C21.9948 0.000201324 22.7544 0.00217379 23.5144 0.00283127C23.5359 0.00283127 23.5577 0.00776243 23.5956 0.0120361V2.54895C23.6705 2.4809 23.7138 2.44507 23.7531 2.40496C24.5033 1.63899 25.2526 0.87203 26.0045 0.108029C26.0505 0.0613477 26.12 0.00743369 26.179 0.00710494C26.9662 0.000530068 27.7534 0.00250253 28.5526 0.00250253V14.8311H28.5523Z" fill="#F8F0EC"/>
<path d="M21.9059 26.1607V27.9997H20.0966V26.1669H13.4844V19.7656H28.5538V26.1607H21.9056H21.9059ZM26.8247 21.3781H26.6417C25.1288 21.3781 23.6159 21.3804 22.1027 21.3745C21.9398 21.3738 21.8976 21.4205 21.8989 21.5763C21.9059 22.4949 21.9023 23.4134 21.9029 24.3319C21.9029 24.3953 21.91 24.4591 21.9137 24.5232H26.8247V21.3778V21.3781ZM15.2135 24.5229H20.0785V21.386H15.2135V24.5229Z" fill="#F8F0EC"/>
<path d="M8.45312 0.0117188H15.1416V14.8295H8.45312V0.0117188ZM13.4054 13.1983V1.63736H10.1953V13.1983H13.4054Z" fill="#F8F0EC"/>
<path d="M6.69721 0.00265042V14.8257H3.71688e-05C3.71688e-05 14.7678 3.71688e-05 14.7093 3.71688e-05 14.6511C3.71688e-05 11.2532 -0.000634193 7.85535 0.00372966 4.45746C0.00372966 4.37461 0.0332696 4.26909 0.0893284 4.21188C1.424 2.85023 2.76571 1.49515 4.10139 0.134148C4.20008 0.0335523 4.29844 -0.000965766 4.4364 2.04653e-05C5.12354 0.00593785 5.81068 0.00265042 6.49815 0.00265042C6.55891 0.00265042 6.61967 0.00265042 6.69721 0.00265042ZM1.73316 13.2066H1.95471C2.88186 13.2066 3.80935 13.2066 4.7365 13.2066C4.88845 13.2066 4.96454 13.1337 4.96476 12.9877C4.96476 9.27322 4.96476 5.55875 4.96476 1.84427V1.67201C4.94395 1.65853 4.92347 1.64505 4.90266 1.63158C4.87379 1.67628 4.85197 1.72757 4.81572 1.76537C3.82546 2.78316 2.83252 3.798 1.84595 4.81907C1.78217 4.88515 1.73786 4.99857 1.73752 5.08996C1.73182 7.73207 1.73282 10.3745 1.73282 13.0166C1.73282 13.0709 1.73282 13.1251 1.73282 13.2066H1.73316Z" fill="#F8F0EC"/>
<path d="M1.72793 26.1614V27.9997H0.015625V19.7637H11.7262V26.161H1.72793V26.1614ZM9.99744 21.3919H1.74103V24.5226H9.99744V21.3919Z" fill="#F8F0EC"/>
<path d="M28.5572 16.4863V18.084H0.0078125V16.4863H28.5572Z" fill="#F8F0EC"/>
</svg>
