<svg xmlns="http://www.w3.org/2000/svg" xmlns:xlink="http://www.w3.org/1999/xlink">
    <symbol viewBox="0 0 18 30" id="arrow_left" xmlns="http://www.w3.org/2000/svg">
        <g clip-path="url(#clip0_1408_38252)">
            <path d="M2.69812 29.69L0.578125 27.56L13.0481 15.09L0.578125 2.62L2.69812 0.5L17.2881 15.09L2.69812 29.69Z"/>
        </g>
        <defs>
            <clipPath id="clip0_1408_38252">
            <rect width="16.71" height="29.19" fill="white" transform="translate(0.578125 0.5)"/>
            </clipPath>
        </defs>
    </symbol>
    <symbol viewBox="0 0 46 24" id="arrow_long_left" xmlns="http://www.w3.org/2000/svg">
        <path d="M12.2069 24.3892L13.3087 23.2994L3.11144 13.2136L46 13.2136L46 11.6728L2.85266 11.6728L13.0499 1.587L11.9481 0.498125L1.04193e-06 12.3157L12.2069 24.3892Z" fill="#63483F"/>
    </symbol>
    <symbol viewBox="0 0 18 30" id="arrow_right" xmlns="http://www.w3.org/2000/svg">
        <g clip-path="url(#clip0_1408_37131)">
            <path d="M14.5909 -0.000547224L16.7109 2.12945L4.24094 14.5995L16.7109 27.0695L14.5909 29.1895L0.00093714 14.5995L14.5909 -0.000547224Z"/>
        </g>
        <defs>
            <clipPath id="clip0_1408_37131">
            <rect width="16.71" height="29.19" fill="white" transform="translate(16.7109 29.1895) rotate(180)"/>
            </clipPath>
        </defs>
  </symbol>
   <symbol viewBox="0 0 29 27" id="favorites" xmlns="http://www.w3.org/2000/svg">
        <g clip-path="url(#clip0_1408_37097)">
            <path d="M14.6317 5.03877C14.6816 4.97418 14.7163 4.93607 14.7432 4.89345C15.0922 4.34122 15.4255 3.77801 15.7915 3.23676C16.5092 2.17558 17.4085 1.30494 18.5985 0.760459C19.2026 0.484022 19.8422 0.338699 20.5028 0.254735C21.2526 0.158499 21.9991 0.181751 22.7417 0.28057C23.5309 0.385849 24.2774 0.642263 24.9826 1.00912C26.391 1.7422 27.4222 2.82275 28.0539 4.26436C28.5262 5.34104 28.645 6.46616 28.5302 7.62681C28.4587 8.34697 28.3202 9.05033 28.1097 9.74271C27.739 10.9628 27.2175 12.117 26.5655 13.2163C25.8642 14.3982 25.0521 15.504 24.2078 16.5897C22.7863 18.4182 21.2008 20.1026 19.5484 21.7257C17.97 23.2758 16.3616 24.7969 14.7695 26.3334C14.6855 26.4148 14.6396 26.4071 14.5582 26.3315C12.2373 24.182 9.96566 21.9815 7.79761 19.6822C6.54533 18.3542 5.3265 16.9934 4.27167 15.502C3.51334 14.4305 2.75961 13.3558 2.17775 12.1745C1.69494 11.1947 1.29151 10.1877 1.03501 9.12783C0.809353 8.19906 0.67422 7.2522 0.76081 6.29888C0.87692 5.01745 1.2961 3.83808 2.12986 2.81759C3.0594 1.68019 4.22837 0.899969 5.64268 0.478855C6.60174 0.193376 7.58113 0.14106 8.57758 0.246339C9.06761 0.298009 9.54779 0.369702 10.0214 0.506628C11.0336 0.799212 11.872 1.35596 12.6027 2.09226C13.2121 2.7065 13.6641 3.42794 14.1063 4.15843C14.2762 4.43875 14.4421 4.72164 14.6311 5.03812L14.6317 5.03877Z"/>
        </g>
        <defs>
            <clipPath id="clip0_1408_37097">
            <rect width="27.8363" height="26.1988" fill="white" transform="translate(0.734375 0.193359)"/>
            </clipPath>
        </defs>
    </symbol>
   <symbol viewBox="0 0 16 15" id="play" xmlns="http://www.w3.org/2000/svg">
        <g clip-path="url(#clip0_1408_37105)">
            <path d="M9.45347e-05 7.46707C9.45347e-05 5.45634 9.45347e-05 3.4456 9.45347e-05 1.43487C0.00127622 0.209189 0.881631 -0.330958 2.0515 0.209189C4.68074 1.42368 7.29817 2.65942 9.91915 3.88846C11.6444 4.69812 13.3626 5.51896 15.0914 6.31856C15.6326 6.56906 15.9824 6.9191 15.9989 7.50957C16.0166 8.12353 15.609 8.44225 15.0855 8.68828C10.7581 10.7191 6.43318 12.7545 2.10467 14.7831C0.926535 15.3356 0.00600295 14.7954 0.0024579 13.5552C-0.00226883 11.5254 0.00127622 9.4957 0.00127622 7.46707H9.45347e-05Z"/>
        </g>
        <defs>
            <clipPath id="clip0_1408_37105">
            <rect width="16" height="15" fill="white"/>
            </clipPath>
        </defs>
    </symbol>
    <symbol viewBox="0 0 24 24" id="close" xmlns="http://www.w3.org/2000/svg">
        <path d="M0.999998 22.631L22.1306 1.5M0.999998 1.50061L22.1306 22.6313" stroke-width="2.6087"/>
    </symbol>
     <symbol viewBox="0 0 29 28" id="nash_dom" xmlns="http://www.w3.org/2000/svg">
        <path d="M28.5523 14.8311H26.8272V1.63307C26.7584 1.69652 26.7181 1.73038 26.6816 1.76786C25.6856 2.78828 24.6886 3.80738 23.698 4.83273C23.6383 4.89454 23.6044 5.005 23.604 5.09277C23.5993 8.26646 23.6 11.4402 23.6 14.6138V14.8305H21.8602V1.67252C21.8347 1.65411 21.8091 1.6357 21.7836 1.61729C21.7561 1.67022 21.7393 1.73367 21.6994 1.77476C20.7058 2.79715 19.7081 3.81593 18.7182 4.84161C18.6598 4.90243 18.6343 5.01617 18.6343 5.10526C18.6302 8.27337 18.6309 11.4415 18.6309 14.6099V14.8288H16.8988C16.8954 14.7588 16.8894 14.695 16.8894 14.6313C16.8891 11.2442 16.8894 7.85718 16.8867 4.47013C16.8867 4.35145 16.922 4.26697 17.0062 4.18182C18.3563 2.81918 19.7024 1.45325 21.0525 0.0909346C21.0972 0.0458967 21.173 0.00611871 21.2348 0.00578997C21.9948 0.000201324 22.7544 0.00217379 23.5144 0.00283127C23.5359 0.00283127 23.5577 0.00776243 23.5956 0.0120361V2.54895C23.6705 2.4809 23.7138 2.44507 23.7531 2.40496C24.5033 1.63899 25.2526 0.87203 26.0045 0.108029C26.0505 0.0613477 26.12 0.00743369 26.179 0.00710494C26.9662 0.000530068 27.7534 0.00250253 28.5526 0.00250253V14.8311H28.5523Z"/>
        <path d="M21.9059 26.1607V27.9997H20.0966V26.1669H13.4844V19.7656H28.5538V26.1607H21.9056H21.9059ZM26.8247 21.3781H26.6417C25.1288 21.3781 23.6159 21.3804 22.1027 21.3745C21.9398 21.3738 21.8976 21.4205 21.8989 21.5763C21.9059 22.4949 21.9023 23.4134 21.9029 24.3319C21.9029 24.3953 21.91 24.4591 21.9137 24.5232H26.8247V21.3778V21.3781ZM15.2135 24.5229H20.0785V21.386H15.2135V24.5229Z" />
        <path d="M8.45312 0.0117188H15.1416V14.8295H8.45312V0.0117188ZM13.4054 13.1983V1.63736H10.1953V13.1983H13.4054Z" />
        <path d="M6.69721 0.00265042V14.8257H3.71688e-05C3.71688e-05 14.7678 3.71688e-05 14.7093 3.71688e-05 14.6511C3.71688e-05 11.2532 -0.000634193 7.85535 0.00372966 4.45746C0.00372966 4.37461 0.0332696 4.26909 0.0893284 4.21188C1.424 2.85023 2.76571 1.49515 4.10139 0.134148C4.20008 0.0335523 4.29844 -0.000965766 4.4364 2.04653e-05C5.12354 0.00593785 5.81068 0.00265042 6.49815 0.00265042C6.55891 0.00265042 6.61967 0.00265042 6.69721 0.00265042ZM1.73316 13.2066H1.95471C2.88186 13.2066 3.80935 13.2066 4.7365 13.2066C4.88845 13.2066 4.96454 13.1337 4.96476 12.9877C4.96476 9.27322 4.96476 5.55875 4.96476 1.84427V1.67201C4.94395 1.65853 4.92347 1.64505 4.90266 1.63158C4.87379 1.67628 4.85197 1.72757 4.81572 1.76537C3.82546 2.78316 2.83252 3.798 1.84595 4.81907C1.78217 4.88515 1.73786 4.99857 1.73752 5.08996C1.73182 7.73207 1.73282 10.3745 1.73282 13.0166C1.73282 13.0709 1.73282 13.1251 1.73282 13.2066H1.73316Z" />
        <path d="M1.72793 26.1614V27.9997H0.015625V19.7637H11.7262V26.161H1.72793V26.1614ZM9.99744 21.3919H1.74103V24.5226H9.99744V21.3919Z" />
        <path d="M28.5572 16.4863V18.084H0.0078125V16.4863H28.5572Z" />
    </symbol>
</svg>