<svg width="41" height="41" viewBox="0 0 41 41" fill="none" xmlns="http://www.w3.org/2000/svg">
<mask id="mask0_1418_146" style="mask-type:alpha" maskUnits="userSpaceOnUse" x="0" y="0" width="41" height="41">
<rect x="0.0898438" y="0.376953" width="40" height="40" fill="#D9D9D9"/>
</mask>
<g mask="url(#mask0_1418_146)">
</g>
<g clip-path="url(#clip0_1418_146)">
<path d="M4.59041 29.3577C5.16464 29.3594 5.73943 29.351 6.3131 29.3679C6.51374 29.3741 6.58834 29.2885 6.6556 29.1224C7.6995 26.54 8.74849 23.9599 9.79635 21.3797C11.397 17.4388 12.9976 13.4991 14.5987 9.5588C14.6162 9.51601 14.6366 9.47491 14.679 9.38258C16.4927 13.15 18.2883 16.8798 20.1138 20.6726C21.9439 16.8832 23.7435 13.1568 25.5685 9.37695C25.7227 9.74796 25.859 10.0689 25.9895 10.3914C28.5136 16.6197 31.0383 22.8474 33.5551 29.0785C33.6439 29.2981 33.7501 29.3746 33.9841 29.3673C34.5103 29.3504 35.0382 29.3617 35.5898 29.3617V30.9729H24.4731V29.3667H26.6841C25.8205 27.2347 24.9801 25.1602 24.1024 22.9949C22.7595 25.6877 21.4499 28.3128 20.1138 30.9915C18.7885 28.3218 17.4857 25.6989 16.1439 22.9961C15.2656 25.1472 14.4156 27.2291 13.5498 29.3504H15.7477V30.9735C15.6601 30.9802 15.5782 30.9921 15.4962 30.9921C11.9362 30.9932 8.37604 30.9926 4.81535 30.9921C4.74018 30.9921 4.66501 30.9876 4.58984 30.9853C4.58984 30.4426 4.58984 29.8999 4.58984 29.3566L4.59041 29.3577Z" fill="#F8F0EC"/>
</g>
<defs>
<clipPath id="clip0_1418_146">
<rect width="31" height="22" fill="white" transform="translate(4.58984 9.37695)"/>
</clipPath>
</defs>
</svg>
