<svg width="41" height="41" viewBox="0 0 41 41" fill="none" xmlns="http://www.w3.org/2000/svg">
<mask id="mask0_1418_145" style="mask-type:alpha" maskUnits="userSpaceOnUse" x="0" y="0" width="41" height="41">
<rect x="0.355469" y="0.376953" width="40" height="40" fill="#D9D9D9"/>
</mask>
<g mask="url(#mask0_1418_145)">
</g>
<g clip-path="url(#clip0_1418_145)">
<path d="M19.5124 0.376953C20.0737 0.376953 20.6358 0.376953 21.1971 0.376953C21.5724 0.438198 21.9507 0.488725 22.3236 0.561453C26.7224 1.42041 30.036 4.75365 30.8562 9.14949C30.9044 9.40595 31.0047 9.56365 31.2551 9.68691C34.215 11.1431 36.131 13.4711 36.994 16.652C37.1595 17.2629 37.2376 17.8976 37.3555 18.5207V19.9753C37.3348 20.0741 37.3157 20.1728 37.2942 20.2716C37.0921 21.1757 36.9818 22.1127 36.6716 22.9778C34.6729 28.5442 28.5205 31.3821 22.9585 29.3366C22.4745 29.1582 22.0066 28.9362 21.5042 28.7226V39.5751H19.2068V28.695C19.0207 28.7861 18.8967 28.8481 18.7726 28.9071C15.8319 30.3073 12.8299 30.4183 9.85252 29.1298C6.62697 27.7335 4.56543 25.2661 3.68093 21.8532C3.52241 21.2408 3.46115 20.6031 3.35547 19.9768C3.35547 19.4922 3.35547 19.0069 3.35547 18.5223C3.37921 18.4243 3.41367 18.3278 3.42592 18.2283C3.92522 14.3331 5.9209 11.4868 9.42214 9.70681C9.69247 9.56901 9.8104 9.39906 9.86094 9.11351C10.5877 5.00092 13.8071 1.61103 17.8651 0.684708C18.4096 0.560687 18.9633 0.478772 19.5124 0.376953ZM26.6488 16.2003C26.5141 16.2754 26.4061 16.3389 26.2943 16.3971C24.7941 17.1864 23.2954 17.978 21.7914 18.7596C21.59 18.8645 21.4958 18.9755 21.4965 19.2212C21.508 21.3648 21.4981 23.5084 21.5134 25.6519C21.5142 25.8073 21.626 26.0171 21.7539 26.1074C23.8996 27.6217 26.2537 28.0718 28.803 27.4181C33.5273 26.2062 36.2374 21.0639 34.5511 16.4997C33.6031 13.9343 31.8042 12.2233 29.2258 11.3314C28.9171 11.225 28.7571 11.1101 28.7387 10.7388C28.6729 9.38451 28.3106 8.11062 27.6467 6.91559C25.4665 2.98827 20.2674 1.48624 16.3573 3.69412C13.7512 5.16552 12.2832 7.40937 12.0067 10.3943C11.9554 10.9471 11.8015 11.2234 11.2355 11.4317C7.2488 12.8939 5.01649 16.8702 5.81828 20.9789C6.9486 26.7681 13.7666 29.5953 18.683 26.3264C19.0789 26.063 19.2727 25.789 19.2122 25.3097C19.1708 24.9828 19.1877 24.646 19.2099 24.316C19.2259 24.0741 19.1295 23.9585 18.9196 23.8521C18.0895 23.4326 17.2693 22.9924 16.4461 22.5591C15.6588 22.1441 14.8716 21.7284 14.0553 21.2974C14.4144 20.6153 14.7613 19.9554 15.122 19.271C16.4859 19.986 17.8222 20.6865 19.216 21.4168V11.8252H21.518V16.3113C22.8995 15.5879 24.2343 14.8882 25.5859 14.1808C25.955 14.8843 26.2966 15.5343 26.6473 16.2019L26.6488 16.2003Z" fill="#F8F0EC"/>
</g>
<defs>
<clipPath id="clip0_1418_145">
<rect width="34" height="40" fill="white" transform="translate(3.35547 0.376953)"/>
</clipPath>
</defs>
</svg>
