<svg width="41" height="41" viewBox="0 0 41 41" fill="none" xmlns="http://www.w3.org/2000/svg">
<mask id="mask0_1418_149" style="mask-type:alpha" maskUnits="userSpaceOnUse" x="0" y="0" width="41" height="41">
<rect x="0.808594" y="0.376953" width="40" height="40" fill="#D9D9D9"/>
</mask>
<g mask="url(#mask0_1418_149)">
</g>
<g clip-path="url(#clip0_1418_149)">
<path d="M21.3647 19.5084C20.926 19.7158 20.5071 19.9132 20.0885 20.1114C18.3287 20.9451 16.4763 21.503 14.5848 21.9434C13.5846 22.1764 12.5762 22.3658 11.546 22.4007C11.3143 22.4085 11.0815 22.3949 10.8497 22.382C10.4618 22.361 10.1596 22.1676 9.87437 21.918C8.4154 20.6399 7.09052 19.2327 5.81329 17.7784C5.65028 17.5928 5.48862 17.4055 5.30859 17.1988C5.51517 17.0972 5.70099 17.0057 5.88714 16.9146C5.92288 16.8973 5.96372 16.8882 5.99503 16.8655C6.4143 16.5616 6.82984 16.6043 7.30969 16.7693C8.91091 17.3194 10.5285 17.8218 12.1423 18.3357C12.227 18.3628 12.3458 18.3536 12.4265 18.3153C14.3142 17.419 16.1986 16.5156 18.0843 15.6152C21.2677 14.0952 24.4521 12.5763 27.6355 11.0563C28.4836 10.6512 29.33 10.242 30.1784 9.83752C30.889 9.49945 31.651 9.3985 32.4269 9.37953C33.1389 9.36226 33.8433 9.43 34.5281 9.63732C34.899 9.74978 35.2523 9.89951 35.5405 10.1712C35.8257 10.4398 35.9139 10.7687 35.8441 11.1437C35.7369 11.7199 35.417 12.182 35.029 12.603C34.5451 13.1278 33.9441 13.4804 33.3029 13.7832C31.475 14.6467 29.6533 15.5227 27.8312 16.3984C27.7693 16.4282 27.708 16.499 27.6849 16.5644C26.6547 19.4803 25.6286 22.3973 24.6025 25.3146C24.1663 26.5551 23.7306 27.7955 23.2978 29.0371C23.1854 29.3589 22.9809 29.5916 22.6712 29.7349C21.9875 30.0509 21.3024 30.3639 20.6214 30.6854C20.2291 30.8707 20.1552 30.7386 20.1967 30.3792C20.423 28.4171 20.6289 26.4528 20.8416 24.4894C21.0162 22.8793 21.1905 21.2693 21.364 19.6592C21.3681 19.6206 21.3647 19.5813 21.3647 19.5095V19.5084Z" fill="#F8F0EC"/>
<path d="M21.6589 12.4735C21.2318 12.6808 20.8414 12.8715 20.4501 13.0599C19.3025 13.612 18.1539 14.1618 17.0084 14.7177C16.9134 14.7638 16.8467 14.759 16.7613 14.7048C15.1917 13.7038 13.6205 12.7059 12.0509 11.7052C11.7933 11.5409 11.8011 11.3878 12.0737 11.2554C12.7863 10.9095 13.4996 10.5643 14.2167 10.2273C14.4764 10.1053 14.753 10.0863 15.0284 10.1812C16.9175 10.8329 18.8063 11.4864 20.6951 12.1395C21.0041 12.2462 21.3128 12.3536 21.6589 12.4735Z" fill="#F8F0EC"/>
</g>
<defs>
<clipPath id="clip0_1418_149">
<rect width="31" height="22" fill="white" transform="translate(5.30859 9.37695)"/>
</clipPath>
</defs>
</svg>
