<svg width="41" height="41" viewBox="0 0 41 41" fill="none" xmlns="http://www.w3.org/2000/svg">
<mask id="mask0_1418_148" style="mask-type:alpha" maskUnits="userSpaceOnUse" x="0" y="0" width="41" height="41">
<rect x="0.171875" y="0.376953" width="40" height="40" fill="#D9D9D9"/>
</mask>
<g mask="url(#mask0_1418_148)">
</g>
<g clip-path="url(#clip0_1418_148)">
<path d="M21.5018 34.8759H18.4049C17.957 34.7016 17.7868 34.3646 17.7968 33.8822C17.814 33.0707 17.8012 32.2592 17.8012 31.4471C17.8012 31.3478 17.8012 31.2479 17.8012 31.131C17.2557 31.131 16.7501 31.1333 16.2445 31.131C15.2083 31.1253 14.5719 30.4869 14.5603 29.4246C14.5503 28.5376 14.5519 27.65 14.5625 26.763C14.5647 26.5548 14.5054 26.4504 14.3119 26.3635C12.9037 25.7342 11.5017 25.0912 10.0991 24.4494C9.94828 24.3807 9.79915 24.3024 9.66222 24.2093C9.29743 23.9602 9.08898 23.4052 9.20319 23.0199C9.32404 22.6124 9.59625 22.4501 10.1645 22.4501C11.51 22.4501 12.8549 22.4501 14.2005 22.4501C14.3086 22.4501 14.4172 22.4501 14.5575 22.4501C14.5575 22.323 14.5575 22.2311 14.5575 22.1386C14.5575 21.3174 14.5492 20.4963 14.563 19.6751C14.5669 19.4527 14.5004 19.3443 14.2997 19.254C12.8832 18.6201 11.4729 17.9738 10.0614 17.3285C9.92777 17.2673 9.79583 17.1975 9.67442 17.114C9.29022 16.8496 9.08344 16.3037 9.20817 15.9041C9.33236 15.5046 9.61288 15.3423 10.1778 15.3417C11.5322 15.3417 12.8871 15.3417 14.2415 15.3417C14.3396 15.3417 14.4377 15.3417 14.558 15.3417C14.558 15.2106 14.558 15.1176 14.558 15.0245C14.558 13.9389 14.5525 12.8539 14.563 11.7682C14.5652 11.5583 14.5032 11.4539 14.3119 11.3682C12.8954 10.7348 11.4845 10.089 10.073 9.44381C9.9311 9.37911 9.79084 9.3042 9.66167 9.21454C9.29521 8.96144 9.08898 8.41211 9.20429 8.02565C9.32404 7.62273 9.60124 7.4593 10.1673 7.4593C11.5216 7.4593 12.8766 7.4593 14.2309 7.4593C14.3307 7.4593 14.43 7.4593 14.5309 7.4593C14.5503 7.40425 14.568 7.37077 14.5736 7.33502C14.7293 6.37597 15.292 5.88055 16.2362 5.87771C16.7246 5.87601 17.213 5.87771 17.7014 5.87771C19.7011 5.87771 21.7008 5.87601 23.6999 5.87884C24.4317 5.87998 24.9922 6.24147 25.229 6.87195C25.2971 7.05298 25.3243 7.24989 25.3753 7.45987C25.4784 7.45987 25.5782 7.45987 25.678 7.45987C27.0878 7.45987 28.4976 7.45703 29.9074 7.46157C30.4901 7.46327 30.8189 7.89059 30.7069 8.47453C30.6137 8.95804 30.3022 9.23667 29.8847 9.42621C28.4544 10.0743 27.0274 10.7297 25.5943 11.3704C25.4019 11.4561 25.3426 11.5622 25.3443 11.7716C25.3542 12.8567 25.3487 13.9423 25.3498 15.0279C25.3498 15.1272 25.3592 15.2265 25.3648 15.3434C25.642 15.3434 25.8892 15.3434 26.137 15.3434C27.3811 15.3434 28.6251 15.34 29.8692 15.3451C30.4907 15.3474 30.8261 15.7724 30.7047 16.3808C30.6104 16.8524 30.3038 17.1265 29.8969 17.3115C28.4677 17.9613 27.0401 18.6156 25.6065 19.2563C25.4047 19.3465 25.3404 19.4566 25.3443 19.6779C25.3576 20.4985 25.3498 21.3203 25.3498 22.1414V22.4518C25.4912 22.4518 25.5993 22.4518 25.7079 22.4518C27.09 22.4518 28.4721 22.4479 29.8548 22.4535C30.5805 22.4564 30.9231 23.021 30.6365 23.7105C30.4884 24.0658 30.2146 24.2672 29.8847 24.4165C28.4555 25.0663 27.0291 25.7234 25.596 26.3652C25.4025 26.4515 25.3432 26.5565 25.3454 26.7647C25.3559 27.6421 25.3476 28.52 25.3504 29.3979C25.3526 29.9557 25.1907 30.4353 24.7494 30.7916C24.4378 31.043 24.0775 31.1316 23.6905 31.1327C23.1688 31.1344 22.6472 31.1327 22.1061 31.1327C22.1061 32.0747 22.0944 32.9793 22.1111 33.8833C22.1199 34.3657 21.9508 34.7033 21.5029 34.877L21.5018 34.8759ZM19.9501 20.9991C21.4541 21.0002 22.7137 19.7148 22.7159 18.1758C22.7181 16.6407 21.4563 15.3446 19.9578 15.3423C18.4604 15.34 17.1936 16.6345 17.1919 18.1684C17.1903 19.7075 18.4476 20.9979 19.9501 20.9991ZM19.9523 22.7498C18.4443 22.7503 17.1908 24.0334 17.1919 25.5747C17.193 27.1092 18.4587 28.4048 19.9556 28.4031C21.4541 28.4014 22.717 27.1064 22.7159 25.5713C22.7153 24.0295 21.4608 22.7492 19.9523 22.7498ZM19.9672 13.5916C21.4796 13.5842 22.7253 12.2954 22.7153 10.7496C22.7054 9.22135 21.4486 7.94507 19.9539 7.9445C18.4482 7.9445 17.1881 9.2361 17.1914 10.7774C17.1947 12.3221 18.4543 13.599 19.9672 13.5916Z" fill="#F8F0EC"/>
</g>
<defs>
<clipPath id="clip0_1418_148">
<rect width="22" height="29" fill="white" transform="translate(9.17188 5.87695)"/>
</clipPath>
</defs>
</svg>
