<svg width="41" height="41" viewBox="0 0 41 41" fill="none" xmlns="http://www.w3.org/2000/svg">
<mask id="mask0_1418_147" style="mask-type:alpha" maskUnits="userSpaceOnUse" x="0" y="0" width="41" height="41">
<rect x="0.4375" y="0.376953" width="40" height="40" fill="#D9D9D9"/>
</mask>
<g mask="url(#mask0_1418_147)">
</g>
<g clip-path="url(#clip0_1418_147)">
<path d="M17.6801 33.0108C13.8032 33.0108 9.92627 33.0108 6.04935 33.0108C5.45713 33.0108 4.97477 32.7005 4.79389 32.1686C4.69273 31.8703 4.64114 31.5547 4.5708 31.2464C4.42208 30.5917 4.27536 29.9358 4.12864 29.2804C3.98394 28.6358 3.84057 27.9912 3.69586 27.3466C3.55116 26.7019 3.40444 26.058 3.2584 25.414C3.11503 24.7807 2.97166 24.1474 2.83098 23.5135C2.71039 22.9716 2.58176 22.4311 2.47792 21.8865C2.26421 20.7641 2.9174 19.5756 3.97791 19.1278C4.32158 18.983 4.67732 18.9123 5.05115 18.9143C5.82626 18.9196 6.60205 18.9116 7.37717 18.919C7.54197 18.9203 7.58351 18.8656 7.58284 18.7088C7.57815 17.0851 7.57949 15.4609 7.58016 13.8373C7.58016 12.6668 8.26684 11.7025 9.38296 11.3435C9.6382 11.2614 9.9189 11.2421 10.1896 11.2274C10.5399 11.208 10.8923 11.2181 11.2434 11.2247C11.3888 11.2274 11.439 11.172 11.4383 11.0285C11.4343 10.2558 11.435 9.48235 11.437 8.7096C11.439 8.13704 11.6942 7.71596 12.2228 7.4844C12.3715 7.419 12.5457 7.38364 12.7079 7.38297C14.4316 7.37563 16.1553 7.37563 17.8791 7.37963C18.5852 7.38163 19.152 7.94886 19.1573 8.65488C19.1627 9.43898 19.1634 10.2231 19.1553 11.0072C19.154 11.1747 19.2015 11.2261 19.3724 11.2261C21.3695 11.2207 23.3665 11.2307 25.3636 11.2174C25.8848 11.2141 26.2888 11.3849 26.6566 11.7539C28.99 14.0962 31.3368 16.4258 33.6755 18.7635C33.7874 18.8756 33.9 18.9203 34.0574 18.9196C35.0723 18.9136 36.088 18.9337 37.1029 18.9116C37.9678 18.8929 38.5748 19.7017 38.4106 20.5145C38.2318 21.3974 38.0482 22.2763 37.7601 23.1298C37.2872 24.5311 36.6299 25.8444 35.8032 27.0723C34.4594 29.0682 32.7698 30.7339 30.8745 32.204C30.6501 32.3781 30.421 32.5456 30.1952 32.7171C29.9292 32.9193 29.6338 33.0148 29.2948 33.0148C25.4232 33.0108 21.5524 33.0121 17.6808 33.0121L17.6801 33.0108ZM20.2915 21.4741C16.0528 21.4741 11.8135 21.4741 7.5748 21.4741C6.78293 21.4741 5.99107 21.4768 5.19853 21.4721C5.05918 21.4715 5.01765 21.5209 5.04847 21.651C5.12149 21.9646 5.19116 22.2789 5.26285 22.5926C5.43167 23.334 5.6025 24.0747 5.76932 24.8167C5.95824 25.6562 6.1418 26.4964 6.33139 27.3359C6.54242 28.2728 6.75948 29.2077 6.97051 30.1446C7.03818 30.4436 7.03282 30.4449 7.34702 30.4449C13.8729 30.4449 20.3987 30.4449 26.9246 30.4449C27.5268 30.4449 28.1298 30.4509 28.7314 30.4396C28.85 30.4376 28.9826 30.3915 29.0818 30.3255C29.2895 30.1867 29.4817 30.0238 29.6767 29.8664C31.1391 28.6852 32.4562 27.3659 33.5295 25.8171C34.3937 24.5698 35.0489 23.2218 35.4837 21.7691C35.5721 21.4741 35.5701 21.4735 35.268 21.4735C30.2763 21.4735 25.2832 21.4741 20.2915 21.4741ZM26.2721 15.0605C26.2399 15.0018 26.2352 14.9844 26.2238 14.9737C25.85 14.5994 25.4782 14.2237 25.0997 13.8546C25.0581 13.8139 24.9811 13.7946 24.9201 13.7926C24.697 13.7852 24.4739 13.7899 24.2509 13.7899C19.6316 13.7899 15.0124 13.7899 10.3939 13.7886C10.2532 13.7886 10.1514 13.7852 10.1527 13.9814C10.1594 15.561 10.1581 17.1405 10.154 18.7194C10.154 18.8743 10.2097 18.9176 10.3611 18.9176C16.8936 18.9143 23.4262 18.915 29.9587 18.9143C30.0096 18.9143 30.0605 18.9063 30.1476 18.8996C30.0813 18.8242 30.0445 18.7768 30.0023 18.7341C29.6914 18.4232 29.3752 18.1169 29.0704 17.7999C28.9565 17.6818 28.8372 17.6384 28.6738 17.6384C25.1874 17.6424 21.7004 17.6411 18.2141 17.6411C18.0915 17.6411 17.9682 17.6444 17.8456 17.6397C16.9117 17.603 16.3161 16.6814 16.6913 15.8319C16.9211 15.3121 17.3525 15.0625 17.9159 15.0618C20.6158 15.0578 23.3163 15.0598 26.0161 15.0598C26.0912 15.0598 26.1656 15.0605 26.2721 15.0605ZM15.2824 11.2214C15.6562 11.2214 16.0294 11.2187 16.4032 11.2227C16.5238 11.2241 16.5761 11.1814 16.5741 11.0579C16.57 10.7409 16.57 10.4239 16.5741 10.107C16.5754 9.98351 16.5225 9.9428 16.4026 9.9428C15.6609 9.94614 14.9193 9.94681 14.1777 9.9428C14.041 9.94214 14.0075 10.0002 14.0095 10.1243C14.0156 10.43 14.0169 10.7363 14.0095 11.0412C14.0055 11.1827 14.0598 11.2247 14.1951 11.2221C14.5575 11.2161 14.92 11.2201 15.2824 11.2201V11.2214Z" fill="#F8F0EC"/>
<path d="M17.8672 25.3272C17.8618 23.9112 19.0108 22.758 20.4324 22.752C21.8473 22.7454 23.0096 23.8998 23.0123 25.3145C23.015 26.7379 21.8741 27.8784 20.4458 27.881C19.0141 27.8837 17.8726 26.7519 17.8672 25.3272Z" fill="#F8F0EC"/>
<path d="M28.1487 27.8804C26.7177 27.881 25.5768 26.7452 25.5781 25.3212C25.5795 23.8985 26.7284 22.7493 28.1467 22.752C29.5636 22.7547 30.7293 23.9158 30.7266 25.3205C30.7239 26.7386 29.575 27.8791 28.1487 27.8804Z" fill="#F8F0EC"/>
<path d="M15.2936 25.3245C15.2922 26.7519 14.1553 27.881 12.721 27.8804C11.2954 27.879 10.1444 26.7319 10.1484 25.3165C10.1525 23.9045 11.3155 22.7487 12.7304 22.752C14.1527 22.7553 15.295 23.9011 15.2936 25.3245Z" fill="#F8F0EC"/>
</g>
<defs>
<clipPath id="clip0_1418_147">
<rect width="36" height="26" fill="white" transform="translate(2.4375 7.37695)"/>
</clipPath>
</defs>
</svg>
