<svg width="174" height="99" viewBox="0 0 174 99" fill="none" xmlns="http://www.w3.org/2000/svg">
<g clip-path="url(#clip0_1408_37245)">
<path d="M117.948 98.9992V97.6039C117.948 74.7189 117.965 51.8339 117.922 28.9489C117.922 26.8432 118.726 25.5292 120.581 24.6176C127.178 21.3734 133.736 18.0607 140.316 14.7822C148.807 10.5579 157.302 6.34638 165.792 2.11777C166.831 1.59989 167.832 1.01354 168.866 0.487101C171.508 -0.848249 173.997 0.66686 173.997 3.62432C174.001 34.2347 173.997 64.8407 173.997 95.4511C173.997 97.758 172.765 98.9949 170.512 98.9949C164.428 98.9949 158.34 98.9949 152.257 98.9949C150.209 98.9949 148.986 97.788 148.969 95.6993C148.948 93.1356 148.922 90.5719 148.986 88.0125C149.012 86.981 148.789 86.5188 147.644 86.6172C146.37 86.7242 145.083 86.6771 143.804 86.6301C143.018 86.6001 142.74 86.874 142.748 87.6701C142.783 90.482 142.77 93.294 142.757 96.1059C142.748 97.8736 141.616 98.9949 139.871 98.9949C132.932 98.9949 125.994 98.9949 119.055 98.9949C118.738 98.9949 118.422 98.9949 117.952 98.9949L117.948 98.9992ZM167.579 92.8018V8.27237C167.096 8.43929 166.669 8.54201 166.284 8.7346C158.533 12.608 150.79 16.5028 143.039 20.3761C137.101 23.3421 131.158 26.2868 125.207 29.2271C124.446 29.6037 124.117 30.0703 124.121 31.0076C124.16 51.1876 124.151 71.3677 124.151 91.5478V92.8018H136.558C136.558 92.3695 136.558 91.9843 136.558 91.6034C136.558 89.1124 136.584 86.6215 136.549 84.1306C136.524 82.0933 137.811 80.5226 140.106 80.4926C143.984 80.4412 147.866 80.437 151.744 80.4926C153.753 80.5226 155.258 81.7295 155.202 83.9166C155.134 86.5145 155.22 89.1124 155.172 91.7104C155.155 92.5835 155.403 92.8874 156.305 92.8745C159.721 92.8275 163.137 92.8574 166.553 92.8531C166.87 92.8531 167.182 92.8232 167.584 92.8018H167.579Z" fill="#634840" fill-opacity="0.25"/>
<path d="M0.0171012 98.9993V97.5784C0.0171012 74.6634 0.0256517 51.7484 0 28.8292C0 26.8733 0.726799 25.5764 2.50959 24.7076C9.36288 21.3521 16.1948 17.9538 23.0182 14.5341C30.6496 10.7078 38.2638 6.83872 45.8867 2.99958C47.4899 2.19067 49.1231 1.44167 50.7263 0.64132C53.7447 -0.86523 56.0362 0.538601 56.0362 3.9155C56.0362 32.1676 56.0362 60.4239 56.0362 88.676C56.0362 90.953 56.0362 93.2299 56.0362 95.5069C56.0319 97.7581 54.8092 98.9993 52.6117 98.9993C46.528 98.9993 40.4442 98.9993 34.3605 98.9993C32.2613 98.9993 31.0985 97.8822 31.0643 95.738C31.0258 93.14 31.013 90.5421 31.0728 87.9442C31.0942 86.917 30.7693 86.5574 29.7304 86.6259C28.4563 86.7115 27.1695 86.6858 25.8912 86.6302C25.0874 86.596 24.8352 86.9084 24.8437 87.6831C24.8736 90.4223 24.8651 93.1614 24.848 95.9006C24.8352 97.9507 23.7621 98.9908 21.7056 98.995C14.8395 98.995 7.97341 98.995 1.1073 98.995H0.0171012V98.9993ZM49.7729 8.24683C49.2898 8.38807 48.9777 8.43515 48.7084 8.56783C45.8354 9.97166 42.9581 11.3755 40.1022 12.8136C35.1215 15.3173 30.1622 17.8639 25.1772 20.3634C19.2132 23.3508 13.2406 26.3169 7.25517 29.2658C6.49844 29.6381 6.19489 30.079 6.19917 30.9692C6.2291 51.1792 6.22055 71.3892 6.22055 91.5993V92.7677H18.6403C18.6403 90.0114 18.6403 87.3492 18.6403 84.6914C18.6403 81.7254 19.8715 80.4842 22.8044 80.4799C26.3614 80.4799 29.9185 80.4756 33.4755 80.4799C36.2032 80.4842 37.3447 82.0078 37.2976 84.2334C37.2463 86.6516 37.3361 89.0741 37.2634 91.4923C37.2335 92.5366 37.4815 92.9175 38.6101 92.8875C41.8465 92.8062 45.0829 92.8618 48.3236 92.8576C49.2841 92.8576 49.7658 92.3711 49.7686 91.3981C49.7686 64.1432 49.7686 36.8884 49.7686 9.63354C49.7686 9.24834 49.7686 8.85886 49.7686 8.25111L49.7729 8.24683Z" fill="#634840" fill-opacity="0.25"/>
<path d="M102.782 46.9893C102.106 46.9893 101.687 46.9893 101.264 46.9893C89.2802 46.9893 77.2923 46.9808 65.3086 47.0022C64.2783 47.0022 63.4061 46.7839 62.8204 45.9022C61.7217 44.2501 62.799 42.1701 64.8597 41.9432C65.2488 41.9004 65.6421 41.9261 66.0311 41.9261C77.7326 41.9261 89.4341 41.9261 101.131 41.9261H102.388C102.435 41.8405 102.487 41.7592 102.534 41.6736C101.495 40.625 100.439 39.5935 99.4212 38.5193C98.9936 38.0699 98.5746 37.582 98.2882 37.0384C97.7495 36.0069 98.0958 34.7101 98.9936 34.0082C99.8401 33.3491 101.187 33.302 102.042 34.1023C104.09 36.0155 106.061 38.0057 108.057 39.9745C108.814 40.7235 109.554 41.4896 110.306 42.2428C111.841 43.7708 111.867 45.2046 110.349 46.7282C107.719 49.369 105.103 52.0183 102.44 54.6205C100.798 56.2255 98.4891 55.6177 97.9932 53.3793C97.8521 52.7416 98.3053 51.8043 98.7713 51.2436C99.8273 49.981 101.063 48.8682 102.221 47.6912C102.367 47.5457 102.478 47.3702 102.773 46.9936L102.782 46.9893Z" fill="#634840" fill-opacity="0.25"/>
<path d="M71.2194 66.2023C72.5319 67.4092 73.9043 68.552 75.1398 69.8317C76.6191 71.3596 76.0676 73.3969 74.0753 74.1117C73.0065 74.4969 72.207 73.9747 71.5058 73.2856C69.3511 71.1585 67.2177 69.0099 65.0758 66.8657C64.426 66.2151 63.7248 65.6074 63.1562 64.8926C61.8522 63.2491 61.8394 62.8596 63.0835 61.5157C65.8325 58.5454 68.7483 55.7249 71.6384 52.883C72.7072 51.8344 74.148 51.8687 75.1356 52.8359C76.3241 53.9958 76.3839 55.2456 75.1783 56.4696C73.9257 57.7408 72.5789 58.9221 71.275 60.1461L71.4887 60.5228C71.959 60.557 72.425 60.6255 72.8953 60.6255C84.6395 60.6298 96.3795 60.6255 108.124 60.6426C108.821 60.6426 109.586 60.6597 110.193 60.9379C111.24 61.4173 111.664 62.7954 111.347 64.0623C111.142 64.884 110.133 65.6159 109.073 65.6844C108.611 65.7144 108.149 65.7058 107.688 65.7058C96.0888 65.7058 84.4856 65.7058 72.8868 65.7058C72.4379 65.7058 71.9847 65.7058 71.5358 65.7058C71.4289 65.8727 71.322 66.0354 71.2194 66.2023Z" fill="#634840" fill-opacity="0.25"/>
<path d="M161.418 37.1399C159.451 37.1399 157.647 37.1656 155.847 37.1057C155.621 37.0971 155.223 36.652 155.214 36.3995C155.155 34.8373 155.15 33.2751 155.214 31.7129C155.227 31.4475 155.672 30.9982 155.928 30.9853C157.523 30.9168 159.122 30.9211 160.717 30.9853C160.956 30.9939 161.371 31.4048 161.379 31.6401C161.435 33.4121 161.409 35.184 161.409 37.1356L161.418 37.1399Z" fill="#634840" fill-opacity="0.25"/>
<path d="M161.37 43.3473V49.5061C159.429 49.5061 157.531 49.5233 155.628 49.4762C155.474 49.4762 155.209 49.0311 155.201 48.7871C155.162 47.2249 155.149 45.6627 155.209 44.1005C155.218 43.8437 155.602 43.3858 155.825 43.3815C157.625 43.3216 159.433 43.3473 161.366 43.3473H161.37Z" fill="#634840" fill-opacity="0.25"/>
<path d="M161.413 61.8615C159.43 61.8615 157.621 61.8829 155.817 61.8315C155.599 61.8272 155.219 61.4335 155.214 61.2066C155.163 59.576 155.163 57.941 155.214 56.3103C155.223 56.0921 155.62 55.7111 155.851 55.7026C157.484 55.6512 159.118 55.6512 160.746 55.7026C160.973 55.7111 161.375 56.0792 161.384 56.2932C161.435 58.0951 161.413 59.9012 161.413 61.8615Z" fill="#634840" fill-opacity="0.25"/>
<path d="M161.41 74.2567C159.443 74.2567 157.605 74.2781 155.766 74.2268C155.565 74.2225 155.219 73.7945 155.21 73.5505C155.159 71.9541 155.159 70.3534 155.21 68.757C155.219 68.5216 155.582 68.1064 155.796 68.0979C157.463 68.0422 159.135 68.0465 160.802 68.0893C161.008 68.0936 161.38 68.436 161.384 68.6286C161.427 70.4647 161.41 72.3051 161.41 74.2567Z" fill="#634840" fill-opacity="0.25"/>
<path d="M136.496 31.0586V37.0762H130.383V31.0586H136.496Z" fill="#634840" fill-opacity="0.25"/>
<path d="M136.504 49.4667H130.391V43.4062H136.504V49.4667Z" fill="#634840" fill-opacity="0.25"/>
<path d="M155.188 18.6855H161.409C161.409 20.5645 161.426 22.4048 161.379 24.2409C161.374 24.4207 160.985 24.7289 160.767 24.7374C159.134 24.7802 157.501 24.7845 155.868 24.7331C155.637 24.7246 155.222 24.3608 155.218 24.1511C155.167 22.3834 155.188 20.6115 155.188 18.6898V18.6855Z" fill="#634840" fill-opacity="0.25"/>
<path d="M142.805 31.0195H148.906V37.0586H142.805V31.0195Z" fill="#634840" fill-opacity="0.25"/>
<path d="M148.902 49.445H142.797V43.4316H148.902V49.445Z" fill="#634840" fill-opacity="0.25"/>
<path d="M130.391 61.7929V55.7539H136.496V61.7929H130.391Z" fill="#634840" fill-opacity="0.25"/>
<path d="M136.48 74.2147H130.418V68.1543H136.48V74.2147Z" fill="#634840" fill-opacity="0.25"/>
<path d="M148.873 61.8054H142.836V55.7578H148.873V61.8054Z" fill="#634840" fill-opacity="0.25"/>
<path d="M148.956 74.1874H142.765C142.765 72.2785 142.748 70.4381 142.791 68.602C142.795 68.418 143.176 68.097 143.389 68.0884C145.022 68.0456 146.66 68.0413 148.293 68.0884C148.52 68.097 148.922 68.4608 148.93 68.6662C148.981 70.4724 148.96 72.2785 148.96 74.1831L148.956 74.1874Z" fill="#634840" fill-opacity="0.25"/>
<path d="M40.429 43.3434C41.1729 43.3434 41.9211 43.3648 42.6607 43.3348C43.2806 43.3134 43.5628 43.5274 43.5499 44.1908C43.52 45.7145 43.5756 47.2424 43.5072 48.7618C43.4944 49.0272 43.054 49.4851 42.7932 49.4937C41.1985 49.5622 39.6039 49.5579 38.0092 49.4937C37.7655 49.4851 37.338 49.0743 37.3294 48.8389C37.2695 47.2467 37.261 45.646 37.3294 44.0539C37.3422 43.8056 37.7997 43.4076 38.0904 43.3733C38.86 43.2792 39.6466 43.3391 40.4247 43.3391L40.429 43.3434Z" fill="#634840" fill-opacity="0.25"/>
<path d="M43.5459 34.1531C43.5459 34.8979 43.6144 35.6511 43.5117 36.383C43.4733 36.6655 43.05 37.0978 42.7892 37.1106C41.1945 37.1791 39.5999 37.1748 38.0052 37.1106C37.7615 37.102 37.3425 36.6869 37.334 36.4429C37.2741 34.8508 37.2741 33.2501 37.334 31.6579C37.3425 31.414 37.7572 30.9945 37.9966 30.986C39.5913 30.926 41.186 30.9646 42.7807 30.9474C43.4049 30.9389 43.5673 31.2556 43.5502 31.812C43.5246 32.5909 43.5459 33.3742 43.5417 34.1531H43.5459Z" fill="#634840" fill-opacity="0.25"/>
<path d="M40.5344 55.6772C41.2441 55.6772 41.9538 55.7028 42.6635 55.6686C43.2962 55.6386 43.5613 55.8826 43.5528 56.5289C43.5271 58.0526 43.5357 59.5805 43.5485 61.1042C43.5528 61.6392 43.3518 61.8746 42.8003 61.8703C41.2056 61.8532 39.6067 61.896 38.012 61.8275C37.764 61.8146 37.345 61.3438 37.3322 61.0742C37.2638 59.5505 37.3194 58.0226 37.2895 56.4989C37.2766 55.8312 37.5802 55.6386 38.1958 55.6643C38.9739 55.6986 39.7563 55.6729 40.5344 55.6729V55.6772Z" fill="#634840" fill-opacity="0.25"/>
<path d="M37.3091 74.2569C37.3091 72.3053 37.2877 70.4692 37.339 68.6373C37.3433 68.4404 37.7794 68.098 38.0231 68.0895C39.6178 68.0381 41.2167 68.0296 42.8114 68.098C43.0636 68.1109 43.4997 68.5817 43.5083 68.8556C43.5767 70.4135 43.5639 71.98 43.5125 73.5379C43.504 73.7819 43.162 74.2184 42.9653 74.227C41.1269 74.2783 39.2886 74.2569 37.3048 74.2569H37.3091Z" fill="#634840" fill-opacity="0.25"/>
<path d="M40.3973 18.5352C41.4062 18.625 42.7487 18.3682 43.3216 18.9161C43.8346 19.404 43.5139 20.7821 43.5396 21.7708C43.5567 22.5155 43.6123 23.2688 43.5054 24.0007C43.4669 24.2832 43.0437 24.7154 42.7829 24.7283C41.1882 24.7968 39.5892 24.7882 37.9945 24.7283C37.7551 24.7197 37.3404 24.3003 37.3276 24.0563C37.2677 22.4984 37.3062 20.9362 37.2891 19.374C37.2849 18.839 37.4943 18.5994 38.0459 18.6208C38.824 18.6464 39.6063 18.625 40.3887 18.625C40.3887 18.5951 40.393 18.5651 40.3973 18.5352Z" fill="#634840" fill-opacity="0.25"/>
<path d="M24.9141 37.133V30.9698C26.8166 30.9698 28.6849 30.9527 30.5489 30.9998C30.7242 31.0041 31.0235 31.4107 31.032 31.6418C31.0748 33.2382 31.0748 34.8389 31.032 36.4396C31.0277 36.675 30.7413 37.103 30.5788 37.1073C28.7062 37.1544 26.8337 37.1373 24.9141 37.1373V37.133Z" fill="#634840" fill-opacity="0.25"/>
<path d="M12.4805 49.4548V43.4414H18.5728V49.4548H12.4805Z" fill="#634840" fill-opacity="0.25"/>
<path d="M24.8624 49.5232C24.8624 47.5416 24.8453 45.7012 24.8923 43.8608C24.8966 43.6853 25.2942 43.3729 25.5123 43.3686C27.1454 43.3258 28.7828 43.3215 30.4117 43.3771C30.6298 43.3857 31.006 43.7795 31.0145 44.0063C31.0659 45.6413 31.0616 47.2762 31.0145 48.9069C31.0103 49.1166 30.6725 49.4932 30.4844 49.4975C28.646 49.5446 26.8077 49.5232 24.8624 49.5232Z" fill="#634840" fill-opacity="0.25"/>
<path d="M12.4844 37.0512V31.0293H18.551V37.0512H12.4844Z" fill="#634840" fill-opacity="0.25"/>
<path d="M18.6354 61.7974H12.4961V55.6856C14.4242 55.6856 16.2968 55.6728 18.1694 55.7113C18.3276 55.7113 18.6098 56.0708 18.614 56.2677C18.6482 58.0739 18.6354 59.88 18.6354 61.7974Z" fill="#634840" fill-opacity="0.25"/>
<path d="M12.5156 68.0727C14.4352 68.0727 16.2779 68.0598 18.1163 68.0941C18.2915 68.0941 18.6079 68.4236 18.6122 68.6034C18.6507 70.4438 18.6336 72.2842 18.6336 74.193H12.5156V68.0727Z" fill="#634840" fill-opacity="0.25"/>
<path d="M24.8603 61.8581C24.8603 59.885 24.8389 58.1131 24.886 56.3412C24.8902 56.1143 25.2622 55.7163 25.476 55.7077C27.1091 55.6521 28.7466 55.6521 30.3797 55.7077C30.6063 55.7163 31.0082 56.0929 31.0125 56.3112C31.0638 57.9804 31.0552 59.6539 31.0125 61.3231C31.0082 61.5071 30.6961 61.8367 30.5208 61.8409C28.6824 61.8795 26.8398 61.8666 24.856 61.8666L24.8603 61.8581Z" fill="#634840" fill-opacity="0.25"/>
<path d="M31.0523 71.0771C31.0523 71.8603 31.0266 72.6435 31.0608 73.4225C31.0907 74.0773 30.8086 74.287 30.1758 74.2742C28.6838 74.2442 27.1874 74.2442 25.6953 74.2742C25.0369 74.287 24.8317 74.0302 24.8445 73.3925C24.8788 71.8988 24.8788 70.4051 24.8445 68.9114C24.8274 68.2523 25.084 68.0426 25.721 68.0554C27.2131 68.0854 28.7094 68.0896 30.2015 68.0554C30.8727 68.0383 31.0822 68.325 31.0565 68.9456C31.0309 69.6561 31.0523 70.3666 31.0523 71.0814V71.0771Z" fill="#634840" fill-opacity="0.25"/>
</g>
<defs>
<clipPath id="clip0_1408_37245">
<rect width="174" height="99" fill="white"/>
</clipPath>
</defs>
</svg>
