<svg width="110" height="11" viewBox="0 0 110 11" fill="none" xmlns="http://www.w3.org/2000/svg">
<path d="M0.117188 8.58454V0.538845C1.04714 0.622437 4.42218 0.308979 5.20585 0.810528C6.6687 1.44791 6.72095 3.81982 5.1745 4.33182V4.39451C7.08666 4.70798 7.13887 7.61276 5.40435 8.29194C4.50574 8.81439 1.16208 8.5114 0.117188 8.58454ZM3.91016 3.92429C5.06999 4.02878 5.75964 2.62863 4.91328 1.84496C4.38038 1.23892 1.87263 1.59418 1.15165 1.51059V3.92429H3.91016ZM3.91016 7.60234C5.4775 7.83222 6.35521 5.77373 4.86102 5.07365C4.28632 4.76018 1.83084 4.95874 1.15165 4.9065V7.60234H3.91016Z" fill="#878787"/>
<path d="M10.4414 8.58281V0.537109H11.4759C11.4654 0.704292 11.4968 7.09905 11.4654 7.26623H11.4863L15.551 0.537109H16.9302V8.58281H15.8958C15.9062 8.41562 15.8749 2.02082 15.9062 1.86408H15.8853L11.8207 8.58281H10.4414Z" fill="#878787"/>
<path d="M20.2109 10.1397V7.611H21.1304L22.9172 0.537109H25.9683L27.7446 7.611H28.6641V10.1397H27.6297V8.58281H21.2558V10.1397H20.2214H20.2109ZM22.1649 7.611H26.7102L25.1637 1.51931H23.7218L22.1649 7.611Z" fill="#878787"/>
<path d="M32.2169 4.04774C31.3183 4.07909 31.3183 2.63713 32.2169 2.66847C33.1155 2.63713 33.1155 4.08954 32.2169 4.04774ZM32.2169 8.76022C31.3183 8.79157 31.3183 7.34961 32.2169 7.38096C33.1155 7.34961 33.1155 8.80202 32.2169 8.76022Z" fill="#878787"/>
<path d="M48.2324 10.1397V8.58281H42.1406V0.537109H43.1751V7.611H47.1352V0.537109H48.1697V7.611H49.2668V10.1397H48.2324Z" fill="#878787"/>
<path d="M52.7188 8.58281V0.537109H58.3507V1.51931H53.7532V4.04794H57.4835V5.01968H53.7532V7.611H58.3507V8.58281H52.7188Z" fill="#878787"/>
<path d="M62.0273 8.58288V0.537181C63.1349 0.620773 66.0397 0.286425 66.9906 0.882014C70.7836 3.98535 66.6458 6.52442 63.0618 5.82434V8.58288H62.0273ZM65.4232 4.84214C67.0846 5.01977 68.0355 3.06582 66.8652 1.96868C66.2069 1.23726 63.9813 1.58207 63.0618 1.50893V4.84214H65.4128H65.4232Z" fill="#878787"/>
<path d="M72.0156 8.58281V0.537109H73.0501V4.04794H74.5965L77.1252 0.537109H78.3373L75.516 4.445L78.4522 8.58281H77.1879L74.6592 5.01968H73.0501V8.58281H72.0156Z" fill="#878787"/>
<path d="M85.1182 8.81341C79.6325 9.01194 79.6325 0.10943 85.1182 0.30796C90.6039 0.10943 90.6039 9.01194 85.1182 8.81341ZM85.1182 7.84167C89.2769 8.00885 89.2769 1.12298 85.1182 1.29016C80.9595 1.12298 80.9595 8.00885 85.1182 7.84167Z" fill="#878787"/>
<path d="M93.0508 8.58454V0.538845C93.9807 0.622437 97.3557 0.308979 98.1394 0.810528C99.6023 1.44791 99.6545 3.81982 98.1081 4.33182V4.39451C100.02 4.70798 100.072 7.61276 98.3379 8.29194C97.4393 8.81439 94.0957 8.5114 93.0508 8.58454ZM96.8438 3.92429C98.0036 4.02878 98.6932 2.62863 97.8468 1.84496C97.3139 1.23892 94.8062 1.59418 94.0852 1.51059V3.92429H96.8438ZM96.8438 7.60234C98.4111 7.83222 99.2888 5.77373 97.7946 5.07365C97.2199 4.76018 94.7644 4.95874 94.0852 4.9065V7.60234H96.8438Z" fill="#878787"/>
<path d="M103.383 8.58281V0.537109H104.417V3.29565C108.001 2.59557 112.139 5.13464 108.346 8.23797C107.406 8.83356 104.47 8.49922 103.383 8.58281ZM106.779 7.611C108.44 7.78863 109.391 5.83468 108.221 4.73754C107.562 4.00611 105.337 4.35099 104.417 4.27785V7.611H106.768H106.779Z" fill="#878787"/>
</svg>
