<svg width="82" height="10" viewBox="0 0 82 10" fill="none" xmlns="http://www.w3.org/2000/svg">
<path d="M0.242188 8.27399V0.228304C1.17214 0.311895 4.5367 -0.00157288 5.33082 0.499976C6.79367 1.13736 6.84592 3.50927 5.29947 4.02127V4.07351C7.21163 4.38698 7.26387 7.29179 5.52935 7.97097C4.63074 8.49342 1.28708 8.1904 0.242188 8.26354V8.27399ZM4.03516 3.61376C5.19499 3.71825 5.88461 2.31809 5.03825 1.53442C4.50535 0.928383 1.9976 1.28365 1.27662 1.20006V3.62421H4.03516V3.61376ZM4.03516 7.29179C5.6025 7.52166 6.48018 5.46322 4.98598 4.76314C4.41129 4.44968 1.9558 4.64821 1.27662 4.59596V7.29179H4.03516Z" fill="#878787"/>
<path d="M10.5781 8.2742V0.228516H11.6126C11.6021 0.395699 11.6335 6.79045 11.6021 6.95763H11.623L15.6877 0.228516H17.0669V8.2742H16.0325C16.0429 8.10702 16.0116 1.71227 16.0429 1.54508H16.022L11.9574 8.2742H10.5781Z" fill="#878787"/>
<path d="M20.3438 9.83109V7.30245H21.2633L23.05 0.228516H26.1011L27.8774 7.30245H28.7969V9.83109H27.7625V8.28465H21.3886V9.83109H20.3542H20.3438ZM22.2977 7.30245H26.843L25.2965 1.21072H23.8546L22.2977 7.30245Z" fill="#878787"/>
<path d="M32.3536 3.73951C31.455 3.78131 31.455 2.32891 32.3536 2.36025C33.2523 2.31846 33.2523 3.78131 32.3536 3.73951ZM32.3536 8.45199C31.455 8.48333 31.455 7.04138 32.3536 7.07273C33.2523 7.03093 33.2523 8.49378 32.3536 8.45199Z" fill="#878787"/>
<path d="M41.4219 9.83109V7.30245H42.3414L44.1281 0.228516H47.1792L48.9556 7.30245H49.8751V9.83109H48.8406V8.28465H42.4668V9.83109H41.4323H41.4219ZM43.3758 7.30245H47.9211L46.3747 1.21072H44.9327L43.3758 7.30245Z" fill="#878787"/>
<path d="M53.1328 8.27399V0.228304C54.0628 0.311895 57.4273 -0.00157288 58.2214 0.499976C59.6843 1.13736 59.7365 3.50927 58.1901 4.02127V4.07351C60.1023 4.38698 60.1545 7.29179 58.42 7.97097C57.5214 8.49342 54.1777 8.1904 53.1328 8.26354V8.27399ZM56.9258 3.61376C58.0856 3.71825 58.7752 2.31809 57.9289 1.53442C57.396 0.928383 54.8882 1.28365 54.1672 1.20006V3.62421H56.9258V3.61376ZM56.9258 7.29179C58.4931 7.52166 59.3708 5.46322 57.8766 4.76314C57.3019 4.44968 54.8464 4.64821 54.1672 4.59596V7.29179H56.9258Z" fill="#878787"/>
<path d="M67.251 8.50481C61.7653 8.70334 61.7653 -0.199164 67.251 -0.000634188C72.7367 -0.199164 72.7367 8.70334 67.251 8.50481ZM67.251 7.5226C71.4097 7.68979 71.4097 0.803934 67.251 0.971117C63.0923 0.803934 63.0923 7.68979 67.251 7.5226Z" fill="#878787"/>
<path d="M75.1797 8.27428V0.228596C76.2873 0.312188 79.1921 -0.0221783 80.1429 0.573411C83.9359 3.67675 79.7981 6.21584 76.2141 5.51576V8.27428H75.1797ZM78.5756 4.53356C80.237 4.71119 81.1878 2.75724 80.0176 1.6601C79.3593 0.928675 77.1336 1.27349 76.2141 1.20035V4.53356H78.5651H78.5756Z" fill="#878787"/>
</svg>
