<svg width="10" height="141" viewBox="0 0 10 141" fill="none" xmlns="http://www.w3.org/2000/svg">
<path d="M8.43414 140.956H0.38846C0.472052 140.026 0.158583 136.651 0.660133 135.867C1.29752 134.404 3.66943 134.352 4.18143 135.899H4.24412C4.55759 133.986 7.46239 133.934 8.14157 135.669C8.66402 136.578 8.361 139.911 8.43414 140.956ZM3.77392 137.163C3.87841 136.003 2.47825 135.303 1.69458 136.16C1.08854 136.693 1.4438 139.2 1.36021 139.921H3.77392V137.163ZM7.45194 137.163C7.68182 135.596 5.62338 134.718 4.9233 136.212C4.60983 136.787 4.80836 139.242 4.75612 139.921H7.45194V137.163Z" fill="#878787"/>
<path d="M8.43631 130.622H0.390625V129.587C0.557808 129.598 6.95256 129.566 7.11974 129.598V129.577L0.390625 125.512V124.133H8.43631V125.167C8.26913 125.157 1.87437 125.188 1.71764 125.157V125.178L8.43631 129.242V130.622Z" fill="#878787"/>
<path d="M9.98148 120.852H7.45284V119.932L0.378906 118.145V115.094L7.45284 113.318V112.398H9.98148V113.433H8.42459V119.807H9.98148V120.841V120.852ZM7.45284 118.898V114.352L1.36111 115.909V117.351L7.45284 118.908V118.898Z" fill="#878787"/>
<path d="M3.88795 108.856C3.9193 109.754 2.47734 109.754 2.50869 108.856C2.4669 107.957 3.92975 107.957 3.88795 108.856ZM8.60042 108.856C8.63177 109.754 7.18982 109.754 7.22116 108.856C7.17937 107.957 8.64222 107.957 8.60042 108.856Z" fill="#878787"/>
<path d="M8.43504 97.2581L5.38395 95.9937V97.8328L0.378906 99.7867V98.7L4.40175 97.1536V95.5967L0.378906 94.0398V92.9531L8.42459 96.1714V97.2581H8.43504Z" fill="#878787"/>
<path d="M8.43631 90.9367L0.390625 88.8678V85.8794L8.43631 83.8105V84.845L1.37283 86.684V88.0632L8.43631 89.9023V90.9367Z" fill="#878787"/>
<path d="M8.59889 80.0802C8.63024 80.9788 7.18828 80.9788 7.21963 80.0802C7.17783 79.1816 8.64068 79.1816 8.59889 80.0802Z" fill="#878787"/>
<path d="M8.66496 66.3486C8.86349 71.8343 -0.0390078 71.8343 0.159522 66.3486C-0.0390078 60.863 8.86349 60.863 8.66496 66.3486ZM7.69321 66.3486C7.86039 62.19 0.97454 62.19 1.14172 66.3486C0.97454 70.5073 7.86039 70.5073 7.69321 66.3486Z" fill="#878787"/>
<path d="M8.66395 54.6251C7.29514 64.353 -5.82873 54.9072 3.09467 50.6545V51.6889C-0.102709 52.8174 0.921287 58.0523 4.42168 57.7807C8.01612 58.0419 8.92518 52.6398 5.57107 51.6262V50.5918C7.33694 51.1142 8.73709 52.6607 8.6744 54.6146L8.66395 54.6251Z" fill="#878787"/>
<path d="M8.43631 46.9249H0.390625V41.293H1.37283V45.8905H3.89102V42.1602H4.86277V45.8905H7.45411V41.293H8.42586V46.9249H8.43631Z" fill="#878787"/>
<path d="M8.43631 37.6141H0.390625V36.5796H3.89102V32.2747H0.390625V31.2402H8.43631V32.2747H4.87322V36.5796H8.43631V37.6141Z" fill="#878787"/>
<path d="M8.43631 27.1141H0.390625V26.0796H3.89102V21.7747H0.390625V20.7402H8.43631V21.7747H4.87322V26.0796H8.43631V27.1141Z" fill="#878787"/>
<path d="M5.33176 14.9928C4.86156 17.2289 1.67463 17.6782 0.71333 15.578C0.149087 14.6376 0.462555 11.6492 0.389413 10.5625H8.4351V11.5969H5.4467V13.8957L8.4351 15.6825V16.8841L5.33176 14.9928ZM4.4645 14.0106V11.5969H1.36116C1.43431 12.4955 1.09994 14.763 1.77912 15.4213C2.83446 16.5497 4.65258 15.6093 4.4645 14.0106Z" fill="#878787"/>
<path d="M5.33176 4.83659C4.86156 7.07266 1.67463 7.52197 0.71333 5.42173C0.149087 4.48132 0.462555 1.49294 0.389413 0.40625H8.4351V1.44068H5.4467V3.73945L8.4351 5.52622V6.72785L5.33176 4.83659ZM4.4645 3.85439V1.44068H1.36116C1.43431 2.33929 1.09994 4.60672 1.77912 5.265C2.83446 6.39349 4.65258 5.45308 4.4645 3.85439Z" fill="#878787"/>
</svg>
