<svg xmlns="http://www.w3.org/2000/svg" version="1.1" xmlns:xlink="http://www.w3.org/1999/xlink" xmlns:svgjs="http://svgjs.dev/svgjs" width="113" height="64"><svg width="113" height="64" viewBox="0 0 113 64" fill="none" xmlns="http://www.w3.org/2000/svg">
<path d="M46.7201 55.2538C41.6305 60.5113 34.3323 63.5177 26.6661 63.5177C26.567 63.5177 26.4608 63.5177 26.3617 63.5106C18.6106 63.4393 11.2771 60.2406 6.22997 54.7693C2.09601 50.2669 0.0219278 44.6959 0.404177 39.0893V38.9112H6.53432L6.58388 39.0465C7.23512 47.745 18.0514 57.7971 29.3844 56.5361C38.4238 55.5316 45.7786 48.0656 46.1396 39.5523C46.536 29.8707 38.6999 20.6522 27.0271 20.6237L25.2645 20.5952L28.1031 14.5682C34.2474 14.3403 40.6253 16.3564 45.4672 20.702C50.4789 25.2116 53.2891 31.7515 53.5156 38.0349C53.7351 44.4109 51.3283 50.5234 46.7272 55.2751L46.7201 55.2538ZM3.70287 0.99687V8.55551H46.1467L49.7073 0.989746H3.70287V0.99687ZM112.722 38.0207C112.495 31.7372 109.685 25.1973 104.673 20.6878C99.8315 16.3421 93.4607 14.326 87.3093 14.554L84.4707 20.5809L86.2333 20.6094C97.9132 20.6379 105.749 29.8565 105.346 39.5381C104.985 48.0513 97.6371 55.5174 88.5905 56.5219C77.2575 57.7828 66.4413 47.7308 65.7901 39.0323L65.7405 38.8969H59.6175V39.075C59.2281 44.6817 61.3022 50.2527 65.4361 54.7551C70.4832 60.2335 77.8167 63.4322 85.5679 63.4963C85.667 63.5034 85.7732 63.5034 85.8723 63.5034C93.5386 63.5034 100.837 60.4971 105.926 55.2395C110.527 50.4949 112.934 44.3753 112.715 37.9993L112.722 38.0207ZM62.9161 0.99687V8.55551H105.36L108.921 0.989746H62.9161V0.99687Z" fill="#63483F"></path>
</svg><style>@media (prefers-color-scheme: light) { :root { filter: none; } }
@media (prefers-color-scheme: dark) { :root { filter: none; } }
</style></svg>