<svg width="960" height="685" viewBox="0 0 960 685" fill="none" xmlns="http://www.w3.org/2000/svg">
<path d="M1005.82 -86.5118L1005.3 -87.0319L439.521 478.749C408.367 509.904 366.942 527.06 322.88 527.06C278.818 527.06 237.393 509.904 206.238 478.749C175.083 447.595 157.927 406.17 157.927 362.108C157.927 318.046 175.083 276.621 206.238 245.466L772.027 -320.308L771.507 -320.828L205.733 244.953C174.439 276.247 157.202 317.855 157.202 362.108C157.202 406.36 174.439 447.968 205.733 479.262C237.027 510.556 278.635 527.793 322.887 527.793C367.14 527.793 408.748 510.556 440.042 479.262L1005.82 -86.5118Z" fill="#F7F0ED"/>
<path d="M1033.62 -58.7461L1033.1 -59.2662L467.292 506.537C428.717 545.112 377.425 566.356 322.873 566.356C268.321 566.356 217.028 545.112 178.453 506.537C139.878 467.962 118.634 416.67 118.634 362.118C118.634 307.566 139.878 256.274 178.453 217.698L744.257 -348.105L743.736 -348.625L177.94 217.178C139.226 255.893 117.902 307.368 117.902 362.118C117.902 416.867 139.226 468.343 177.94 507.057C216.655 545.772 268.13 567.096 322.88 567.096C377.63 567.096 429.105 545.772 467.819 507.057L1033.62 -58.7461Z" fill="#F7F0ED"/>
<path d="M1061.42 -30.976L1060.9 -31.4961L495.07 534.329C449.074 580.325 387.914 605.656 322.865 605.656C257.816 605.656 196.657 580.325 150.661 534.329C104.665 488.333 79.3336 427.174 79.3336 362.125C79.3336 297.076 104.665 235.916 150.661 189.92L716.486 -375.898L715.966 -376.418L150.148 189.407C104.013 235.542 78.601 296.885 78.601 362.132C78.601 427.379 104.005 488.714 150.148 534.857C196.283 580.992 257.625 606.404 322.872 606.404C388.119 606.404 449.455 580.992 495.59 534.857L1061.42 -30.9686L1061.42 -30.976Z" fill="#F7F0ED"/>
<path d="M1089.21 -3.20222L1088.69 -3.72231L522.84 562.125C495.839 589.126 464.362 610.026 429.28 624.251C395.393 637.994 359.587 644.96 322.858 644.96C286.128 644.96 250.315 637.994 216.435 624.251C181.354 610.026 149.877 589.119 122.875 562.125C95.874 535.131 74.9747 503.647 60.7489 468.565C47.0065 434.678 40.0401 398.872 40.0401 362.143C40.0401 325.413 47.0065 289.6 60.7489 255.713C74.9748 220.631 95.8813 189.154 122.875 162.153L688.715 -403.687L688.195 -404.207L122.355 161.64C95.288 188.707 74.3301 220.265 60.0677 255.441C46.2887 289.417 39.3076 325.318 39.3076 362.143C39.3076 398.967 46.296 434.869 60.0676 468.844C74.3301 504.02 95.288 535.578 122.355 562.645C149.422 589.712 180.98 610.67 216.156 624.933C250.131 638.712 286.033 645.693 322.858 645.693C359.682 645.693 395.584 638.704 429.559 624.933C464.735 610.67 496.293 589.712 523.36 562.645L1089.21 -3.20222Z" fill="#F7F0ED"/>
<path d="M1117 24.5677L1116.48 24.0476L550.611 589.917C519.859 620.662 484.008 644.469 444.056 660.673C405.459 676.327 364.678 684.26 322.843 684.26C281.008 684.26 240.228 676.327 201.63 660.672C161.671 644.469 125.82 620.662 95.0758 589.917C64.3239 559.165 40.5238 523.315 24.3202 483.362C8.67319 444.765 0.732499 403.985 0.732501 362.149C0.732503 320.314 8.66587 279.534 24.3202 240.937C40.5239 200.977 64.3313 165.127 95.0758 134.382L660.945 -431.48L660.425 -432L94.5557 133.869C63.7379 164.687 39.8792 200.618 23.6389 240.666C7.95531 279.351 -3.28809e-05 320.226 -3.47137e-05 362.157C-3.65465e-05 404.087 7.9553 444.963 23.6389 483.641C39.8792 523.688 63.7379 559.619 94.5557 590.437C125.373 621.255 161.304 645.114 201.352 661.354C240.037 677.037 280.905 684.993 322.836 684.993C364.766 684.993 405.642 677.037 444.32 661.354C484.367 645.114 520.298 621.255 551.116 590.437L1116.99 24.5677L1117 24.5677Z" fill="#F7F0ED"/>
</svg>
