<svg width="373" height="43" viewBox="0 0 373 43" fill="none" xmlns="http://www.w3.org/2000/svg">
<path d="M198.375 1.625H207.936C211.194 1.625 213.61 2.45875 215.186 4.23046C216.762 6.00217 217.603 8.50341 217.603 11.7342V15.7987C217.603 19.1337 216.762 21.6349 215.186 23.3024C213.61 24.9699 211.194 25.9079 207.936 25.9079H204.889V42.4786H198.375V1.625ZM207.936 19.9674C208.987 19.9674 209.828 19.6548 210.353 19.1337C210.878 18.5084 211.194 17.5704 211.194 16.1114V11.3173C211.194 9.96247 210.878 8.92028 210.353 8.29497C209.828 7.66966 208.987 7.46123 207.936 7.46123H204.889V19.9674H207.936Z" fill="#B19C94"/>
<path d="M225.901 40.2891C224.219 38.5174 223.379 36.0161 223.379 32.6811V11.2121C223.379 7.98138 224.219 5.37592 225.901 3.60421C227.582 1.8325 229.998 0.894531 233.15 0.894531C236.303 0.894531 238.719 1.8325 240.4 3.60421C242.081 5.37592 242.922 7.87716 242.922 11.2121V32.6811C242.922 35.9119 242.081 38.5174 240.4 40.2891C238.719 42.0608 236.303 42.9988 233.15 42.9988C229.998 42.9988 227.582 42.0608 225.901 40.2891ZM236.513 33.098V10.8995C236.513 8.18982 235.357 6.83498 233.15 6.83498C230.944 6.83498 229.788 8.18982 229.788 10.8995V33.098C229.788 35.8077 230.944 37.1625 233.15 37.1625C235.357 37.1625 236.513 35.8077 236.513 33.098Z" fill="#B19C94"/>
<path d="M248.703 1.625H266.355V7.46123H255.218V18.1957H264.043V24.0319H255.218V36.5382H266.355V42.3744H248.703V1.625Z" fill="#B19C94"/>
<path d="M270.453 1.625H276.968V18.821L285.163 1.625H291.677L284.007 16.6324L291.782 42.4786H285.058L279.594 24.2404L276.968 29.4513V42.4786H270.453V1.625Z" fill="#B19C94"/>
<path d="M300.08 7.46123H293.355V1.625H313.319V7.46123H306.594V42.3744H300.08V7.46123Z" fill="#B19C94"/>
<path d="M318.365 40.2891C316.684 38.5174 315.844 36.0161 315.844 32.6811V11.2121C315.844 7.98138 316.684 5.37592 318.365 3.60421C320.047 1.8325 322.463 0.894531 325.615 0.894531C328.767 0.894531 331.184 1.8325 332.865 3.60421C334.546 5.37592 335.387 7.87716 335.387 11.2121V32.6811C335.387 35.9119 334.546 38.5174 332.865 40.2891C331.184 42.0608 328.767 42.9988 325.615 42.9988C322.463 42.9988 320.047 42.0608 318.365 40.2891ZM328.978 33.098V10.8995C328.978 8.18982 327.822 6.83498 325.615 6.83498C323.409 6.83498 322.253 8.18982 322.253 10.8995V33.098C322.253 35.8077 323.409 37.1625 325.615 37.1625C327.822 37.1625 328.978 35.8077 328.978 33.098Z" fill="#B19C94"/>
<path d="M353.562 1.625H363.019C366.276 1.625 368.588 2.35453 370.164 3.9178C371.74 5.48108 372.37 7.77388 372.37 11.0047V12.6721C372.37 14.7565 372.055 16.5282 371.319 17.7788C370.584 19.0295 369.638 20.0717 368.272 20.5927C371.424 21.8434 373.001 24.6573 373.001 29.2429V32.7863C373.001 35.9128 372.16 38.3099 370.584 39.9774C369.008 41.6449 366.591 42.4786 363.439 42.4786H353.562V1.625ZM362.283 18.1957C363.544 18.1957 364.49 17.8831 365.12 17.2578C365.751 16.6324 366.066 15.486 366.066 13.9228V11.63C366.066 10.1709 365.856 9.0245 365.33 8.39919C364.805 7.77388 363.964 7.46123 362.914 7.46123H359.867V18.1957H362.283ZM363.439 36.5382C364.595 36.5382 365.33 36.2255 365.856 35.6002C366.381 34.9749 366.696 33.9327 366.696 32.4736V28.9302C366.696 27.0543 366.381 25.8037 365.751 25.0741C365.12 24.3446 364.07 24.0319 362.599 24.0319H359.762V36.5382H363.334H363.439Z" fill="#B19C94"/>
<path d="M189.337 1.625H174.838H172.211V7.46123V42.3744H178.095V7.46123H185.975V42.3744H191.859V7.46123V1.625H189.337Z" fill="#B19C94"/>
<path d="M16.7062 1.62695H0V42.5848H5.25352V6.83787H16.7062V1.62695Z" fill="#B19C94"/>
<path d="M31.5202 34.56L32.8861 42.4805H39.9258L32.0456 1.62695H22.1689L14.1836 42.5848H20.5929L21.9588 34.4557H31.0999V34.6642H31.4151L31.5202 34.56ZM22.7994 29.4533V29.0364L26.3718 8.08849H27.1073L30.6797 29.4533H22.7994Z" fill="#B19C94"/>
<path d="M86.1569 6.83787V1.62695H68.8203V42.5848H86.1569V37.3738H74.7043V23.8255H83.7403V18.6145H74.7043V6.83787H86.1569Z" fill="#B19C94"/>
<path d="M129.972 6.83787V1.62695H112.74V42.5848H129.972V37.3738H118.519V23.8255H127.66V18.6145H118.519V6.83787H129.972Z" fill="#B19C94"/>
<path d="M107.066 23.0952C108.642 21.4277 109.378 18.9265 109.378 15.6957V11.6312C109.378 8.40044 108.537 5.8992 107.066 4.23171C105.49 2.56422 103.074 1.73047 99.9216 1.73047H90.5703V42.5841H96.4543V25.5965H99.9216C103.074 25.5965 105.49 24.7627 107.066 23.0952ZM96.4543 6.83717H99.9216C101.077 6.83717 102.023 7.14982 102.653 7.87935C103.284 8.50466 103.599 9.65106 103.599 11.2143V16.1126C103.599 17.6759 103.284 18.7181 102.653 19.4476C102.023 20.0729 101.182 20.4898 99.9216 20.4898H96.4543V6.83717Z" fill="#B19C94"/>
<path d="M54.2163 8.08849V8.40115L59.785 42.5848H66.4044L58.8394 1.62695H49.278L41.7129 42.5848H47.912L53.3757 8.08849H54.2163Z" fill="#B19C94"/>
<path d="M154.244 42.5842V1.41797H144.682C137.117 1.41797 133.44 5.27405 133.44 13.2989C133.44 14.6537 133.44 15.8001 133.65 17.0507C133.86 18.1971 134.07 19.2393 134.596 20.1773C135.016 21.011 135.646 21.8448 136.382 22.4701C137.117 23.0954 137.958 23.6165 138.903 23.9291H139.219L139.114 24.346L133.02 42.48H138.903L144.682 24.5544H148.36V42.48H154.139L154.244 42.5842ZM144.892 20.1773C143.737 20.1773 142.686 19.9688 141.951 19.6562C141.215 19.3435 140.585 18.8224 140.164 18.3013C139.744 17.676 139.534 16.9465 139.429 16.1128C139.324 15.279 139.219 14.341 139.219 13.2989C139.219 11.1103 139.639 9.44278 140.374 8.19216C141.11 6.94154 142.791 6.31623 145.208 6.31623H148.465V20.0731H144.892V20.1773Z" fill="#B19C94"/>
<path d="M347.256 1.73047H341.688V31.8496H347.256V1.73047Z" fill="#B19C94"/>
<path d="M347.256 36.4355H341.688V42.2718H347.256V36.4355Z" fill="#B19C94"/>
</svg>
