<svg width="199" height="37" viewBox="0 0 199 37" fill="none" xmlns="http://www.w3.org/2000/svg">
<path d="M28.3332 28.815C26.9022 32.9314 23.134 37 16.7423 37C6.53476 37 0 28.815 0 18.4761C0 8.13713 6.29626 0 16.9331 0C26.139 0 31.4336 5.93532 32.4353 12.11H27.7131C27.0453 7.80207 23.7541 3.78137 17.267 3.78137C9.2536 3.73351 4.96069 9.90815 4.96069 18.4761C4.96069 27.044 9.44439 33.2186 17.4101 33.2186C24.4219 33.2186 28.0947 28.6235 28.0947 23.2147V21.6831H15.6453V17.9495H32.7692V36.4256H28.3809V28.7671H28.2855L28.3332 28.815Z" fill="#B19C94"/>
<path d="M44.3115 0.527344H39.7324V36.4743H44.3115V0.527344Z" fill="#B19C94"/>
<path d="M57.4287 4.26085V17.5674H64.7743C70.4505 17.5674 73.4079 15.222 73.4079 10.9141C73.4079 6.60626 70.4982 4.30871 64.7743 4.30871H57.4287V4.26085ZM57.4287 36.4743H52.8496V0.527344H64.2497C73.1217 0.527344 78.3685 4.21298 78.3685 10.9141C78.3685 15.9879 75.2681 19.3863 69.9258 20.7266L79.084 36.5222H73.7894L65.0128 21.3488H57.4764V36.5222L57.4287 36.4743Z" fill="#B19C94"/>
<path d="M97.7821 0.718806L105.08 21.8753H90.4842L97.7821 0.718806ZM93.0599 0.527344L80.6582 36.4743H85.5235L89.244 25.6567H106.368L110.088 36.4743H114.954L102.504 0.527344H93.0122H93.0599Z" fill="#B19C94"/>
<path d="M119.057 0.527344V36.4743H123.636V20.2H141.857V16.4665H123.636V4.26085H142.191V0.527344H119.057Z" fill="#B19C94"/>
<path d="M148.248 0.527344V36.4743H152.827V20.2H171.048V16.4665H152.827V4.26085H171.334V0.527344H148.248Z" fill="#B19C94"/>
<path d="M177.439 0.527344V36.4743H198.999V32.7408H182.019V19.9129H198.093V16.1315H182.019V4.26085H198.57V0.527344H177.439Z" fill="#B19C94"/>
</svg>
