<svg width="130" height="104" viewBox="0 0 130 104" fill="none" xmlns="http://www.w3.org/2000/svg">
<path d="M7.78823 10.9535V9.519C6.33463 9.519 5.18476 9.12778 4.33863 8.41053C3.49251 7.67156 3.05859 6.65003 3.05859 5.34596C3.05859 4.04188 3.49251 3.04209 4.36033 2.32485C5.22815 1.58587 6.35632 1.21639 7.78823 1.17292V0.0644531H10.2181V1.19465C11.6284 1.21639 12.7782 1.60761 13.646 2.34659C14.5356 3.08556 14.9695 4.10709 14.9695 5.36769C14.9695 6.6283 14.5356 7.67156 13.6677 8.41053C12.7999 9.14951 11.6717 9.519 10.2181 9.54073V10.9752H7.78823V10.9535ZM7.78823 7.28034V3.43331C6.33463 3.47678 5.64037 4.25923 5.64037 5.36769C5.64037 6.6283 6.35632 7.28034 7.78823 7.30207V7.28034ZM10.2181 3.41158V7.28034C11.7802 7.28034 12.3877 6.6283 12.3877 5.34596C12.3877 4.23749 11.7368 3.45505 10.2181 3.41158Z" fill="#B19C94"/>
<path d="M25.0588 9.78056C24.7333 10.1501 24.256 10.4543 23.6052 10.6717C22.976 10.889 22.3034 10.9977 21.5875 10.9977C19.9386 10.9977 18.5935 10.4978 17.5521 9.49801C16.5107 8.47649 16.0117 7.15068 16.0117 5.49885C16.0117 3.84702 16.489 2.58642 17.4653 1.54316C18.4416 0.499896 19.8084 0 21.5658 0C22.9109 0 24.1476 0.456426 24.8201 1.10846L23.7354 2.93417C23.0194 2.49948 22.2817 2.28213 21.5658 2.28213C20.698 2.28213 19.982 2.56468 19.4179 3.12978C18.8538 3.69488 18.5718 4.47733 18.5718 5.49885C18.5718 6.43344 18.8755 7.21588 19.4613 7.82445C20.0471 8.41129 20.8281 8.71557 21.7827 8.71557C22.6289 8.71557 23.4099 8.45475 24.0825 7.93312L25.0154 9.75883L25.0588 9.78056Z" fill="#B19C94"/>
<path d="M26.7285 10.8455V0.173828H29.1584V4.82503L32.6297 0.173828H35.5369L31.5449 5.08585L35.8624 10.8238H32.7816L29.1584 5.75962V10.8238H26.7285V10.8455Z" fill="#B19C94"/>
<path d="M4.25234 93.2867H5.38051C13.5814 93.2867 13.256 103.676 5.38051 103.698H0V87.7227H10.1535V91.0263H4.25234V93.2867ZM4.25234 96.7208V100.198H5.38051C7.74533 100.198 7.85381 96.7208 5.38051 96.7208H4.25234Z" fill="#B19C94"/>
<path d="M23.1702 91.1352H17.0087V93.9607H22.9099V97.3731H17.0087V100.199H23.1702V103.676H12.9082V87.7012H23.1702V91.1135V91.1352Z" fill="#B19C94"/>
<path d="M36.9042 92.8733C35.494 91.4606 34.0621 91.0042 32.8688 91.0476C30.0267 91.1128 28.4863 93.308 28.4863 95.7423C28.4863 98.1766 30.0701 100.372 32.8688 100.372C34.1054 100.372 35.8194 99.8719 37.1428 98.2418L39.8331 100.394C37.7503 102.806 35.5807 104.001 32.8688 104.001C27.293 104.001 24.2773 100.002 24.2773 95.7423C24.2773 91.4823 27.293 87.418 32.8688 87.418C35.3204 87.418 37.4032 88.2221 39.4643 90.5912L36.9042 92.8733Z" fill="#B19C94"/>
<path d="M51.982 87.7012V91.2222H48.0985V103.676H43.8245V91.2222H39.9844V87.7012H51.982Z" fill="#B19C94"/>
<path d="M68.5575 81.3089C67.2124 79.8961 65.8239 79.4397 64.674 79.4832C61.9404 79.5484 60.4434 81.7436 60.4434 84.1779C60.4434 86.6121 61.9621 88.8073 64.674 88.8073C65.8673 88.8073 67.5161 88.3074 68.7962 86.6773L71.3996 88.8291C69.4037 91.2416 67.3209 92.437 64.6957 92.437C59.3152 92.437 56.4297 88.4378 56.4297 84.1779C56.4297 79.9179 59.3152 75.8535 64.6957 75.8535C67.0605 75.8535 69.0565 76.6577 71.0308 79.0268L68.5792 81.3089H68.5575Z" fill="#B19C94"/>
<path d="M83.0933 76.1367V79.6577H79.3399V92.1116H75.2178V79.6577H71.5078V76.1367H83.0716H83.0933Z" fill="#B19C94"/>
<path d="M88.1272 92.1116H84.0918V76.1367H89.4506C97.76 76.1802 97.5214 87.5908 89.4723 87.5908H88.1489V92.1116H88.1272ZM89.4289 79.549H88.0404V84.3524H89.4289C92.271 84.3524 92.4229 79.549 89.4289 79.549Z" fill="#B19C94"/>
<path d="M113.076 84.1559C113.076 89.1766 109.279 92.415 104.767 92.415C100.254 92.415 96.4355 89.1983 96.4355 84.1559C96.4355 79.1135 100.232 75.875 104.767 75.875C109.301 75.875 113.076 79.2004 113.076 84.1559ZM104.767 88.7419C106.828 88.7419 108.954 87.5899 108.954 84.1559C108.954 80.7218 106.806 79.5481 104.745 79.5481C102.554 79.5481 100.558 81.0696 100.558 84.1559C100.558 87.2422 102.684 88.7419 104.767 88.7419Z" fill="#B19C94"/>
<path d="M126.398 79.9616L125.161 83.3957L121.017 92.1113H115.246V76.1363H119.303V84.7215L118.739 88.6555L118.848 88.6989L120.301 84.8954L124.575 76.1581H129.999V92.133H125.877V83.5044L126.55 80.0051L126.398 79.9616ZM118.956 72.2676C118.956 76.5276 126.354 76.571 126.354 72.2676H123.404C123.404 73.2456 121.82 73.1804 121.82 72.2676H118.956Z" fill="#B19C94"/>
<path d="M4.14376 16.9316H27.0977V81.1573H4.42581C1.69216 81.1573 0.976206 79.1795 1.88742 77.7667C3.12407 75.8541 6.09637 77.1582 6.40011 72.8982C6.70384 68.6382 6.4218 45.2735 6.46519 31.0157C6.46519 27.1686 6.55197 24.1475 6.33502 23.6911C5.27193 21.648 3.86172 21.1482 2.4732 20.7352C1.08468 20.3222 0.433816 16.9316 4.16546 16.9316H4.14376Z" fill="#B19C94"/>
<path d="M32.5872 16.9316C35.4077 16.9316 44.0642 17.2142 48.0779 18.4748C52.0916 19.7354 58.1447 22.8434 58.4267 32.9283C58.7738 45.4692 42.871 47.9469 42.871 47.9469C42.871 47.9469 59.2728 49.7074 59.2728 64.0957C59.2728 78.484 46.8846 81.1573 40.7665 81.1573H33.3683C31.7411 81.1573 30.9818 78.2666 32.4571 76.9191C33.9324 75.5716 38.2932 78.8317 38.2932 64.5087C38.2932 48.7293 31.8279 50.2073 31.8279 50.2073V45.6865C31.8279 45.6865 38.2281 46.2516 38.2281 33.1456C38.2281 18.8878 32.392 22.8434 31.893 21.5176C31.394 20.1918 31.1987 16.9316 32.5872 16.9316Z" fill="#B19C94"/>
<path d="M63.2422 45.1863V65.1387C63.2422 66.421 64.3053 67.9642 65.9107 67.9642C67.5162 67.9642 66.9087 65.2908 70.3583 65.2908C73.8079 65.2908 74.7409 66.8557 77.3009 67.7903C79.861 68.7249 82.6597 68.0946 82.6597 68.0946C82.6597 68.0946 82.573 65.2908 82.573 64.291C82.573 63.2912 80.2515 63.0522 77.6915 61.183C74.1334 58.5748 69.816 52.9021 69.0783 45.947C68.6661 42.0566 63.2422 43.2737 63.2422 45.1646V45.1863Z" fill="#B19C94"/>
<path d="M86.8895 64.0313V67.4219C86.8895 68.1392 87.5621 68.5304 89.4496 68.2044C91.3371 67.8784 110.82 65.8353 110.82 45.2961C110.82 20.9534 79.3178 23.4529 79.3178 14.3678C79.3178 7.06498 85.4576 5.45662 85.4576 5.45662V1.52266C85.4576 0.196853 81.8128 0.457669 79.8602 1.08797C77.9076 1.71827 63.3281 4.47857 63.3281 22.1053C63.3281 39.7321 79.3395 43.9268 82.7891 45.3613C86.2387 46.7958 94.6132 49.3822 94.7867 54.5333C95.0471 62.5534 87.3235 62.9011 86.8895 64.0313Z" fill="#B19C94"/>
<path d="M89.5391 1.2599V5.54161C89.5391 5.54161 94.247 6.43273 97.7183 10.4319C101.19 14.4311 101.906 18.365 102.426 20.6689C102.947 22.9728 104.834 23.8856 105.811 23.8856C106.787 23.8856 108.653 22.7337 108.653 19.8864V3.67244C108.653 1.34684 105.811 0.107966 104.119 2.69438C102.426 5.2808 101.992 4.73743 98.6078 3.04214C95.2233 1.34684 90.1682 -0.34846 89.5391 1.2599Z" fill="#B19C94"/>
</svg>
