<svg width="244" height="79" viewBox="0 0 244 79" fill="none" xmlns="http://www.w3.org/2000/svg">
<path d="M43.5961 0.00953824C43.5993 0.337018 43.8505 0.232097 44.0222 0.244815C44.9824 0.32748 45.9775 0.267071 46.89 0.524603C47.7453 0.76306 48.6896 0.674036 49.4622 1.19864C51.2108 1.39258 52.7465 2.32415 54.457 2.64527C55.8623 3.61182 57.6651 3.81848 58.9591 4.99804C60.1005 5.30326 60.9081 6.1935 61.9477 6.68313C62.4501 6.91841 62.8698 7.34127 63.3181 7.68465C64.3863 8.50493 65.4324 9.35066 66.4371 10.2536C67.0666 10.8195 67.747 11.3505 68.3193 11.9769C70.2174 14.0626 72.0932 16.1896 73.5208 18.6187C75.0978 21.3053 76.554 24.065 77.4601 27.0886C77.8289 28.3159 78.185 29.5558 78.5634 30.7831C78.7096 31.2632 78.7954 31.81 78.84 32.3315C78.8813 32.7861 78.9322 33.2217 79.0752 33.6636C79.2024 34.0452 78.9512 34.5189 79.3264 34.8718C79.3646 34.91 79.3359 35.0244 79.3328 35.1039C79.2596 36.9384 79.7588 38.7507 79.568 40.5884C79.5045 41.1925 79.4091 41.7902 79.3328 42.3911C79.2596 42.992 79.3805 43.5866 79.1325 44.2098C78.9194 44.7407 78.983 45.3989 78.8908 46.003C78.5316 48.3239 77.9847 50.5972 77.1644 52.7846C76.3537 54.9466 75.3839 57.0419 74.1917 59.0481C73.4699 60.2626 72.6401 61.4009 71.9279 62.6186C71.5845 63.2068 71.025 63.6646 70.6212 64.221C69.4321 65.852 67.8551 67.1111 66.4911 68.5704C65.4642 69.6673 64.1733 70.4368 63.0192 71.3683C60.7968 73.1679 58.2564 74.3824 55.7129 75.5906C54.0214 76.395 52.2632 77.0563 50.4351 77.5014C49.3859 77.7558 48.3684 78.0991 47.2843 78.2518C46.0411 78.4266 44.7852 78.5347 43.5548 78.7382C41.396 79.0911 39.2467 78.84 37.0974 78.9194C36.5378 78.9417 35.9751 78.7636 35.4091 78.7001C34.8814 78.6428 34.3186 78.84 33.8417 78.4584C32.7035 78.6524 31.6861 78.0674 30.5892 77.9497C29.6862 77.8543 28.815 77.4664 27.9312 77.2089C25.4162 76.4776 23.0444 75.3966 20.7425 74.1662C19.5661 73.5367 18.4406 72.8086 17.3246 72.0773C16.2118 71.3492 15.1817 70.5099 14.1389 69.6769C12.6255 68.4655 11.2774 67.092 9.99608 65.674C8.38412 63.8872 6.87072 62.0018 5.69751 59.862C5.13158 58.8287 4.42575 57.8558 3.92976 56.7875C3.36382 55.5603 2.87419 54.2949 2.35277 53.0454C1.92673 52.0184 1.67555 50.9469 1.33217 49.9041C1.05875 49.0679 0.76306 48.2095 0.70583 47.3033C0.683574 46.9377 0.530962 46.5784 0.483271 46.2128C0.438759 45.8758 0.406965 45.5642 0.276609 45.2272C0.117638 44.8139 0.251174 44.2892 0.228918 43.8155C0.222559 43.7074 0.0794854 43.6089 0 43.5071C0 40.8141 0 38.118 0 35.425C0.0794854 35.3233 0.228918 35.2184 0.228918 35.1166C0.21938 34.007 0.511886 32.9451 0.680395 31.8609C0.893416 30.4874 1.29084 29.1807 1.67873 27.8644C2.29236 25.7882 3.09993 23.7757 4.07601 21.8458C4.5561 20.8951 5.17609 19.9953 5.69433 19.0638C6.87707 16.9304 8.38412 15.0386 9.99926 13.2518C11.6939 11.3728 13.5252 9.61455 15.576 8.08525C17.2897 6.81031 19.0352 5.60849 20.9492 4.66102C22.4626 3.91068 23.9569 3.10311 25.5307 2.5022C26.971 1.95216 28.4558 1.49115 29.9819 1.16049C31.8259 0.75988 33.6382 0.222559 35.549 0.228918C35.6126 0.228918 35.6762 0.0794854 35.7366 0C38.3565 0 40.9763 0 43.5993 0L43.5961 0.00953824ZM59.2738 34.9577C59.6872 34.4458 60.11 33.848 60.6124 33.3234C62.59 31.2409 64.5898 29.1807 66.5833 27.114C66.7804 26.9074 66.9871 26.7103 67.2256 26.4718C64.2464 26.3637 61.3913 26.2111 58.533 26.1729C54.9244 26.1221 51.3126 26.1602 47.7008 26.1602H44.4673C42.8204 27.6355 41.3928 29.1966 39.7967 30.605C37.2882 32.8179 34.9513 35.2216 32.5477 37.5489C31.8736 38.2038 31.2155 38.8747 30.6209 39.4661C28.4144 37.2627 26.2683 35.123 24.1095 32.9674C26.1952 30.7799 28.3445 28.5257 30.5701 26.192H18.1926C15.967 28.4144 13.7224 30.6527 11.4777 32.8942C11.4554 32.9165 11.4427 32.961 11.4364 32.996C11.43 33.0341 11.4364 33.0755 11.4364 33.1486C13.4171 35.2406 15.4901 37.2755 17.4868 39.3898C20.8601 42.9634 24.4179 46.359 27.8898 49.8373C28.265 50.2157 28.7006 50.5336 28.9263 51.0678C29.0535 51.373 29.4064 51.586 29.6608 51.8308C29.9342 52.0947 30.2172 52.3522 30.5669 52.6765C31.3363 51.7927 32.0199 50.9501 32.7639 50.168C35.8384 46.9409 39.1545 43.9554 42.1241 40.6202C43.9077 38.6172 45.9076 36.8049 47.7644 34.9513H59.2738V34.9577ZM49.1951 37.6188C44.143 42.6614 39.1768 47.6181 34.255 52.5271H45.9394C48.2127 50.257 50.5114 47.9647 52.8323 45.65H59.3342C62.0844 43.0493 64.8919 40.3945 67.8233 37.6188H49.1951Z" fill="#B19C94"/>
<path d="M139.592 60.5898V38.798H136.724C133.78 44.6736 130.801 50.6128 127.812 56.5773H120.413C117.453 50.6732 114.481 44.7372 111.502 38.798H108.653V60.6025H99.3848V18.6151C99.4356 18.5738 99.5596 18.4752 99.725 18.3385H109.61C110.386 19.8138 111.13 21.3399 111.972 22.8088C112.942 24.5034 113.686 26.322 114.799 27.9467C115.167 28.484 115.352 29.1422 115.657 29.7272C116.713 31.7493 117.794 33.7555 118.849 35.7776C119.51 37.0462 120.029 38.4102 120.82 39.5897C121.593 40.7407 122.041 42.0283 122.808 43.2461H125.446C126.047 42.1015 126.661 40.9283 127.284 39.7582C128.286 37.8728 129.303 35.997 130.301 34.1116C130.988 32.8112 131.627 31.4854 132.343 30.2009C133.862 27.4666 135.312 24.6973 136.74 21.9154C137.293 20.8375 137.9 19.7851 138.565 18.5706C138.825 18.3957 139.283 18.3035 139.798 18.3067C142.38 18.3258 144.958 18.3067 147.54 18.3258C147.976 18.329 148.411 18.4593 148.863 18.5325V60.5898H139.588H139.592Z" fill="#B19C94"/>
<path d="M203.681 60.6356V18.6578C203.783 18.5719 203.903 18.4702 204.056 18.3398H240.982C241.09 18.4479 241.176 18.5306 241.287 18.6451V27.5411H213.636C213.55 27.611 213.515 27.6301 213.493 27.6619C213.47 27.6905 213.445 27.7287 213.445 27.7605C213.445 29.8938 213.445 32.0304 213.445 34.2465H214.637C219.362 34.2465 224.086 34.2306 228.808 34.256C230.086 34.2624 231.37 34.3355 232.636 34.504C233.545 34.6248 234.423 34.9682 235.322 35.1907C236.041 35.3688 236.696 35.7185 237.383 35.9697C237.796 36.1191 238.244 36.4116 238.623 36.6946C240.384 38.0045 241.91 39.5148 242.753 41.6132C243.153 42.6115 243.513 43.5939 243.751 44.659C243.942 45.5207 243.881 46.3473 243.926 47.1867C243.97 48.0547 244.075 48.9576 243.901 49.7938C243.665 50.9066 243.554 52.0607 243.033 53.1131C242.517 54.1496 241.977 55.1384 241.274 56.0763C239.494 58.4577 236.88 59.3925 234.995 60.1587C233.777 60.2064 232.629 60.661 231.38 60.6547C222.567 60.6133 213.753 60.6324 204.943 60.6324H203.678L203.681 60.6356ZM213.467 51.8382C218.611 51.8382 223.651 51.8127 228.687 51.8604C229.59 51.87 230.464 51.7205 231.32 51.5584C232.14 51.4058 232.998 51.0274 233.447 50.223C234.187 48.894 234.467 47.4855 233.936 45.9912C233.679 45.2695 233.354 44.5891 232.731 44.1185C232.413 43.8801 232.016 43.737 231.59 43.5208C228.662 43.0471 225.632 43.3364 222.608 43.2887C219.565 43.241 216.523 43.2792 213.461 43.2792V51.8382H213.467Z" fill="#B19C94"/>
<path d="M167.348 18.3164C167.514 18.4817 167.599 18.5676 167.723 18.6884V34.6872H172.801C174.035 33.3964 175.338 32.1882 176.441 30.8274C177.36 29.6955 178.498 28.783 179.398 27.6575C180.406 26.3953 181.675 25.3811 182.673 24.1347C183.509 23.0887 184.558 22.2557 185.375 21.216C186.18 20.1986 187.108 19.3116 188.033 18.3514H199.546C199.632 18.4372 199.743 18.5485 199.855 18.6598C197.759 20.8409 195.613 22.9774 193.582 25.2157C192.237 26.6973 190.749 28.0518 189.471 29.5811C188.304 30.9737 186.902 32.1214 185.751 33.5013C184.438 35.0719 182.946 36.4645 181.535 37.9366C181.252 38.2291 181.058 38.6106 180.775 39.0208C180.924 39.1893 181.096 39.3896 181.274 39.5803C182.45 40.8362 183.697 42.038 184.784 43.367C185.48 44.2159 186.329 44.9217 186.975 45.7865C187.588 46.61 188.396 47.2364 189.003 48.0344C189.741 49.0041 190.698 49.7672 191.439 50.7146C192.167 51.6462 193.057 52.4061 193.81 53.2931C195.273 55.0132 196.777 56.6919 198.357 58.3071C199.05 59.0129 199.651 59.811 200.319 60.5931H187.9C186.949 59.5979 185.929 58.6695 185.089 57.6013C184.53 56.8922 183.872 56.2977 183.299 55.6173C181.897 53.9481 180.4 52.3711 178.937 50.7592C177.583 49.2648 176.247 47.7514 174.906 46.2444C174.235 45.4909 173.545 44.7532 172.868 44.022H167.73V60.5835H157.73V18.6471C157.835 18.5421 157.95 18.4277 158.061 18.3164C161.158 18.3164 164.255 18.3164 167.351 18.3164H167.348Z" fill="#B19C94"/>
</svg>
