<svg width="139" height="185" viewBox="0 0 139 185" fill="none" xmlns="http://www.w3.org/2000/svg">
<path d="M91.7227 88.1035L125.075 110.955L122.16 114.484L91.7227 88.1035Z" fill="#B19C94"/>
<path d="M87.6328 92.0781L115.885 120.998L112.339 123.892L87.6328 92.0781Z" fill="#B19C94"/>
<path d="M82.8477 95.1777L104.914 129.052L100.872 131.198L82.8477 95.1777Z" fill="#B19C94"/>
<path d="M77.5469 97.2852L92.582 134.813L88.198 136.13L77.5469 97.2852Z" fill="#B19C94"/>
<path d="M71.9375 98.3164L79.3665 138.06L74.8098 138.492L71.9375 98.3164Z" fill="#B19C94"/>
<path d="M66.2342 98.2344L65.7634 138.66L61.2109 138.198L66.2342 98.2344Z" fill="#B19C94"/>
<path d="M60.6579 97.043L52.3089 136.601L47.9336 135.262L60.6579 97.043Z" fill="#B19C94"/>
<path d="M55.4217 94.7891L39.5142 131.958L35.4844 129.786L55.4217 94.7891Z" fill="#B19C94"/>
<path d="M50.7292 91.5547L27.8764 124.906L24.3477 121.991L50.7292 91.5547Z" fill="#B19C94"/>
<path d="M46.7522 87.4648L17.8353 115.715L14.9414 112.17L46.7522 87.4648Z" fill="#B19C94"/>
<path d="M43.6509 82.6797L9.77554 104.745L7.62891 100.703L43.6509 82.6797Z" fill="#B19C94"/>
<path d="M41.546 77.3789L4.01225 92.4133L2.69922 88.0296L41.546 77.3789Z" fill="#B19C94"/>
<path d="M40.5134 71.7695L0.768269 79.1982L0.332031 74.6417L40.5134 71.7695Z" fill="#B19C94"/>
<path d="M40.5916 66.0679L0.164062 65.5972L0.626215 61.0449L40.5916 66.0679Z" fill="#B19C94"/>
<path d="M41.7821 60.4933L2.22266 52.1447L3.56592 47.7695L41.7821 60.4933Z" fill="#B19C94"/>
<path d="M44.042 55.2568L6.87109 39.3499L9.03932 35.3203L44.042 55.2568Z" fill="#B19C94"/>
<path d="M47.2785 50.5582L13.9258 27.7064L16.8369 24.1777L47.2785 50.5582Z" fill="#B19C94"/>
<path d="M51.3694 46.5848L23.1133 17.6648L26.6593 14.7754L51.3694 46.5848Z" fill="#B19C94"/>
<path d="M56.1531 43.4833L34.082 9.60943L38.1248 7.46289L56.1531 43.4833Z" fill="#B19C94"/>
<path d="M61.4535 41.3806L46.4141 3.84854L50.798 2.53125L61.4535 41.3806Z" fill="#B19C94"/>
<path d="M67.0614 40.3433L59.6367 0.604188L64.1935 0.167969L67.0614 40.3433Z" fill="#B19C94"/>
<path d="M72.7617 40.4258L73.2325 0L77.7849 0.462133L72.7617 40.4258Z" fill="#B19C94"/>
<path d="M78.3359 41.6183L86.6849 2.06055L91.0646 3.40376L78.3359 41.6183Z" fill="#B19C94"/>
<path d="M83.5781 43.8763L99.4857 6.70703L103.515 8.87517L83.5781 43.8763Z" fill="#B19C94"/>
<path d="M88.2695 47.113L111.122 13.7617L114.651 16.6727L88.2695 47.113Z" fill="#B19C94"/>
<path d="M92.2461 51.2022L121.167 22.9473L124.061 26.4932L92.2461 51.2022Z" fill="#B19C94"/>
<path d="M4.5481 183.615C3.11845 182.691 2.0041 181.369 1.20073 179.646C0.397365 177.922 0 175.905 0 173.595C0 171.284 0.414642 169.211 1.24393 167.44C2.07321 165.669 3.23507 164.305 4.72951 163.341C6.22395 162.378 7.93866 161.895 9.86934 161.895C10.9578 161.895 12.0203 162.089 13.0612 162.469C14.1021 162.853 14.9789 163.35 15.6916 163.963L15.2813 164.741C14.5427 164.11 13.7134 163.626 12.7977 163.303C11.8821 162.974 10.9275 162.81 9.92117 162.81C8.34466 162.81 6.97116 163.255 5.79203 164.149C4.61721 165.043 3.71018 166.287 3.07958 167.894C2.44466 169.496 2.12936 171.336 2.12936 173.409C2.12936 175.482 2.44898 177.365 3.09254 178.963C3.73609 180.561 4.64744 181.796 5.82658 182.669C7.00572 183.541 8.39218 183.978 9.973 183.978C11.1089 183.978 12.2017 183.718 13.2556 183.2C14.3095 182.682 15.1819 181.995 15.8644 181.144L16.3136 181.796C15.4886 182.803 14.4865 183.589 13.3031 184.155C12.124 184.72 10.8368 185.001 9.45038 185.001C7.60608 185.001 5.96479 184.539 4.53514 183.615" fill="#B19C94"/>
<path d="M27.7377 184.624H25.7422V162.234H27.7377V180.892L38.6911 164.1V162.234H40.6866V184.624H38.6781V165.703L27.7377 182.495V184.624Z" fill="#B19C94"/>
<path d="M63.547 162.235V184.624H61.5515V163.15H58.3035C57.1589 163.15 56.1828 163.375 55.3794 163.829C54.5717 164.278 53.9627 164.908 53.5524 165.712C53.1378 166.515 52.9348 167.435 52.9348 168.471C52.9348 169.508 53.1421 170.45 53.561 171.257C53.9757 172.065 54.5976 172.7 55.4226 173.153C56.2476 173.611 57.2453 173.84 58.4158 173.84H62.3419L62.3117 174.617H58.3553L52.451 184.624H50.0625L56.4463 174.496C55.2844 174.319 54.2823 173.961 53.4358 173.421C52.5935 172.881 51.9457 172.186 51.4965 171.335C51.0473 170.484 50.8227 169.512 50.8227 168.424C50.8227 167.202 51.0991 166.122 51.652 165.189C52.2048 164.256 53.0082 163.53 54.0577 163.008C55.1073 162.49 56.3642 162.23 57.8241 162.23H63.547V162.235Z" fill="#B19C94"/>
<path d="M87.6271 172.876V162.234H89.6269V184.624H87.6271V173.779H76.7298V184.624H74.7344V162.234H76.7298V172.876H87.6271Z" fill="#B19C94"/>
<path d="M102.808 184.624H100.812V162.234H102.808V180.892L113.761 164.1V162.234H115.757V184.624H113.748V165.703L102.808 182.495V184.624Z" fill="#B19C94"/>
<path d="M139 184.624H126.949V162.234H138.421V163.15H128.945V172.673H135.721V173.593H128.945V183.708H139V184.624Z" fill="#B19C94"/>
</svg>
