<svg width="355" height="65" viewBox="0 0 355 65" fill="none" xmlns="http://www.w3.org/2000/svg">
<path d="M289.403 0.487251H293.076C293.207 3.28836 293.071 6.03145 293.157 8.85189C294.358 9.13642 295.532 8.99554 296.727 8.95963C297.174 7.57012 297.524 6.18891 298.062 4.88504C299.163 2.21653 301.169 0.553549 304.065 0.177859C308.229 -0.360815 310.992 1.50106 312.64 4.89609C313.417 6.4983 313.794 8.22482 313.889 9.9541C314.041 12.7939 314.147 15.6585 313.342 18.4486C312.646 20.8629 311.519 23.0149 309.139 24.1558C305.48 25.9071 300.068 25.2193 297.967 20.2635C297.113 18.2469 296.763 16.1254 296.633 13.9596C296.611 13.5977 296.63 13.2331 296.63 12.8132C295.482 12.4679 294.403 12.6171 293.132 12.7V24.4099C291.92 24.6281 290.793 24.5453 289.473 24.4762C289.331 22.4845 289.428 20.5259 289.412 18.5729C289.395 16.548 289.409 14.5259 289.409 12.5011V0.487251H289.403ZM300.622 12.5011C300.622 13.327 300.581 14.1585 300.631 14.9817C300.717 16.3712 301.055 17.711 301.721 18.9403C302.439 20.269 303.496 21.1447 305.089 21.2359C306.745 21.3298 307.946 20.6033 308.72 19.1917C309.073 18.5508 309.375 17.8629 309.558 17.1585C310.365 14.0259 310.302 10.8823 309.505 7.75797C309.328 7.05631 309.003 6.36847 308.623 5.74968C308.168 5.00383 307.563 4.37399 306.676 4.07565C304.689 3.40714 302.792 4.153 301.763 6.06736C300.678 8.08394 300.525 10.2745 300.622 12.5011Z" fill="#B19C94"/>
<path d="M101.74 40.4262H105.771C105.168 41.987 104.641 43.3958 104.081 44.7881C103.462 46.324 102.841 47.8599 102.167 49.3737C101.806 50.1859 101.809 50.9317 102.106 51.7632C103.498 55.6582 104.852 59.5698 106.217 63.4731C106.292 63.6859 106.345 63.9068 106.459 64.2936C105.168 64.719 103.92 64.5229 102.572 64.3765C101.212 60.5284 99.8531 56.6803 98.4799 52.7908H95.0814C95.0315 54.7024 95.0703 56.6168 95.062 58.5284C95.0537 60.4538 95.062 62.3792 95.062 64.4151H91.2558V52.7936H88.0432C86.6561 56.6582 85.2774 60.5008 83.8681 64.4207H79.9453C80.3254 63.2604 80.6694 62.1941 81.0273 61.1334C82.0842 57.998 83.1273 54.8571 84.2176 51.7328C84.4895 50.9566 84.5311 50.2715 84.2065 49.487C83.1579 46.9345 82.1786 44.3571 81.1798 41.7853C81.0328 41.4068 80.9163 41.0201 80.7498 40.5229C82.0454 40.114 83.266 40.3903 84.5727 40.3184C86.0181 43.2162 86.7893 46.3544 88.1237 49.2825H91.2114V40.4566H94.9732C95.1952 43.3323 94.9538 46.2162 95.1147 49.1472C96.2161 49.5008 97.3008 49.3074 98.4521 49.2715C99.5479 46.3212 100.633 43.4041 101.74 40.4262Z" fill="#B19C94"/>
<path d="M77.5708 24.4524H74.1669C73.9838 22.748 74.1003 21.1043 74.0809 19.4662C74.0587 17.8088 74.0753 16.1541 74.0753 14.4966V4.57672C73.2764 4.27561 72.9656 4.57119 72.8353 5.24246C72.519 6.86401 72.175 8.4828 71.8476 10.1043C71.0126 14.248 70.1776 18.3889 69.3453 22.5325C69.2204 23.1513 69.1095 23.7728 68.9819 24.4552H61.8521C61.7939 24.0353 61.6912 23.6458 61.6912 23.2535C61.6801 16.0298 61.6829 8.80324 61.6884 1.57948C61.6884 1.26733 61.755 0.952408 61.8022 0.538044C62.9202 0.306 64.0021 0.444121 65.2811 0.47727C65.2949 2.18722 65.3116 3.82534 65.3171 5.4607C65.3227 7.16235 65.3171 8.86677 65.3171 10.5684C65.3171 12.2259 65.3171 13.8806 65.3171 15.538C65.3171 17.1845 65.3171 18.8336 65.3171 20.5104H66.1383C67.4977 13.8226 68.8487 7.17893 70.2081 0.493845H77.5681C77.5764 8.4828 77.5708 16.411 77.5736 24.4579L77.5708 24.4524Z" fill="#B19C94"/>
<path d="M269.413 0.5H282.887C283.12 1.70166 283.14 2.80939 282.843 4.0663H273.183V8.66851C273.536 8.71547 273.882 8.78729 274.232 8.80663C275.43 8.8674 276.632 8.87845 277.83 8.96409C281.378 9.21547 283.967 11.5801 284.441 15.1022C284.707 17.0829 284.632 19.0608 283.628 20.884C282.38 23.1492 280.28 24.0912 277.861 24.4724C277.092 24.5939 276.293 24.5331 275.508 24.5359C273.527 24.5414 271.544 24.5359 269.419 24.5359C269.349 24 269.247 23.5635 269.247 23.1298C269.236 16.2707 269.236 9.4116 269.247 2.55249C269.247 1.91436 269.346 1.27624 269.413 0.5ZM273.158 20.8481C274.656 20.8481 275.999 20.942 277.322 20.826C279.411 20.6464 280.504 19.3619 280.543 17.2459C280.552 16.8315 280.554 16.4171 280.535 16.0028C280.446 14.2155 279.569 13.0525 277.819 12.6215C276.293 12.2459 274.731 12.3757 273.155 12.4807V20.8453L273.158 20.8481Z" fill="#B19C94"/>
<path d="M18.672 52.6472C18.7303 54.9622 18.3752 57.2135 17.6289 59.4124C16.7439 62.0174 14.9407 63.7274 12.4689 64.8185C12.3856 64.8544 12.2941 64.8876 12.2053 64.8876C9.76954 64.9373 7.32268 65.1638 5.17544 63.5561C3.82162 62.5423 2.92555 61.2191 2.38735 59.697C0.670106 54.8434 0.667332 49.9704 2.5427 45.15C4.10459 41.1334 7.72772 39.255 12.1803 40.2937C13.8393 40.6804 15.1709 41.6721 16.1835 43.0754C17.8924 45.4456 18.4223 48.1721 18.6665 50.9898C18.7136 51.5367 18.672 52.092 18.672 52.6445V52.6472ZM5.12272 52.2688C5.09498 54.639 5.34466 56.7743 6.27403 58.7798C7.31713 61.034 9.6336 61.8157 11.8336 60.6887C12.7435 60.2218 13.3677 59.4649 13.6423 58.5229C14.0529 57.1196 14.4663 55.6914 14.6216 54.2439C14.9157 51.5202 14.6522 48.824 13.5785 46.2605C13.0931 45.1003 12.2441 44.2798 11.0068 43.9262C9.03992 43.3599 7.14513 44.2826 6.26015 46.2716C5.38628 48.2384 5.07556 50.3185 5.12272 52.2688Z" fill="#B19C94"/>
<path d="M59.9633 52.5912C59.9022 49.732 60.3017 47.0331 61.564 44.5C63.0426 41.5331 65.4645 40.0525 68.7631 40.0276C72.0034 40.0028 74.2727 41.6436 75.7624 44.3895C76.7833 46.2735 77.1495 48.3536 77.316 50.4834C77.5296 53.2072 77.4048 55.9006 76.6751 58.5331C75.8457 61.5304 74.2311 63.9558 70.9852 64.6796C67.0292 65.5608 63.4671 64.5967 61.478 60.5691C60.2324 58.047 59.8773 55.3177 59.966 52.5939L59.9633 52.5912ZM63.8971 52.989C63.972 53.6989 64.0025 55.0939 64.2883 56.4309C64.513 57.4889 64.893 58.5829 65.4839 59.4779C67.0708 61.8785 70.4359 61.7873 71.9507 59.3453C72.4056 58.616 72.7441 57.7818 72.9688 56.9503C73.2296 55.9807 73.3766 54.9669 73.4487 53.9641C73.6346 51.4199 73.4404 48.9088 72.4556 46.5193C71.6011 44.4475 70.0725 43.547 67.9946 43.8564C66.3467 44.1022 65.4312 45.232 64.8265 46.6354C64.0469 48.4448 63.9581 50.3785 63.8971 52.9834V52.989Z" fill="#B19C94"/>
<path d="M218.699 12.5859C218.735 10.0886 219.034 7.63561 219.98 5.29583C221.007 2.75992 222.743 1.06931 225.459 0.279257C229.352 -0.850577 233.199 1.59141 234.612 4.61904C235.327 6.14942 235.721 7.74887 235.94 9.37594C236.362 12.5003 236.215 15.6218 235.374 18.6743C234.811 20.7212 233.768 22.4837 231.973 23.7212C230.245 24.9119 228.292 25.1494 226.278 24.9201C222.527 24.492 220.516 22.1163 219.509 18.713C218.918 16.7185 218.682 14.666 218.696 12.5831L218.699 12.5859ZM232.395 12.5527C232.331 12.5444 232.265 12.5362 232.201 12.5279C232.201 11.9284 232.245 11.3262 232.192 10.7351C232.029 8.84279 231.699 6.99473 230.55 5.4008C229.074 3.35384 226.011 3.27373 224.486 5.28478C224.05 5.85937 223.67 6.52788 223.454 7.21296C222.369 10.6356 222.405 14.0969 223.293 17.5527C223.44 18.1218 223.751 18.6549 224.025 19.1853C225.373 21.8069 229.216 22.05 230.808 19.3152C231.174 18.6853 231.527 18.0003 231.668 17.2958C231.984 15.7295 232.162 14.1384 232.395 12.5555V12.5527Z" fill="#B19C94"/>
<path d="M354.96 12.5562C355.152 15.2274 354.555 17.7136 353.598 20.1142C352.225 23.5589 349.345 25.1584 345.742 24.9843C341.675 24.7882 339.422 22.3517 338.434 19.1114C337.083 14.6777 337.1 10.2247 338.551 5.83793C339.442 3.14456 341.175 1.17495 344.077 0.329647C348.666 -1.00737 352.489 2.1197 353.568 5.10589C354.444 7.52854 355.185 9.98158 354.963 12.5562H354.96ZM341.223 12.5258C341.284 12.5341 341.347 12.5424 341.408 12.5534C341.408 13.1059 341.367 13.6611 341.417 14.2081C341.586 16.1418 341.908 18.0175 343.062 19.6777C344.416 21.6225 347.695 21.9236 349.234 19.7274C349.678 19.0948 350.092 18.3877 350.291 17.6529C351.232 14.2109 351.301 10.7412 350.222 7.3186C349.956 6.47329 349.451 5.63351 348.854 4.97053C347.401 3.34898 344.754 3.43738 343.4 5.15838C342.79 5.93462 342.232 6.84898 341.988 7.78821C341.589 9.32965 341.461 10.9429 341.22 12.5285L341.223 12.5258Z" fill="#B19C94"/>
<path d="M209.757 8.78105V0.543475C211.097 0.319719 212.312 0.408116 213.5 0.460603C213.81 1.59872 213.849 23.0186 213.55 24.4302H209.799V12.4606C207.299 12.3915 204.93 12.4551 202.383 12.4026V24.3308C201.005 24.7009 199.792 24.4606 198.488 24.5407V0.540713C199.698 0.328006 200.913 0.416404 202.325 0.449553V8.78105H209.757Z" fill="#B19C94"/>
<path d="M140.922 52.7047H133.349C133.166 53.992 133.282 55.2683 133.26 56.5362C133.238 57.8235 133.254 59.1108 133.254 60.4009C133.254 61.6909 133.254 62.9644 133.254 64.3401C131.962 64.6274 130.799 64.5915 129.659 64.4174C129.329 63.2904 129.284 42.1522 129.606 40.6025H133.124C133.407 41.9423 133.218 43.3152 133.252 44.6688C133.285 46.0445 133.26 47.4202 133.26 48.7683C134.428 49.0721 139.521 49.0887 140.881 48.7848V40.7876C142.007 40.4451 142.995 40.4174 144.382 40.6467C144.687 41.6108 144.734 62.9285 144.415 64.3539C143.322 64.6522 142.198 64.5445 140.925 64.4257V52.7047H140.922Z" fill="#B19C94"/>
<path d="M166.284 64.2735C164.955 64.7348 163.773 64.4613 162.472 64.4282C161.004 60.5746 159.534 56.7182 158.044 52.8121H154.724V64.3923H150.992C150.665 63.2376 150.645 41.7431 150.984 40.4171C152.157 40.2762 153.361 40.1851 154.676 40.5276V49.232H158.053C159.201 46.3757 160.38 43.442 161.579 40.4613C162.907 40.2376 164.159 40.2514 165.632 40.442C165.146 41.663 164.75 42.7182 164.308 43.7569C163.501 45.663 162.691 47.5691 161.837 49.453C161.493 50.2099 161.462 50.8757 161.756 51.6768C163.285 55.8177 164.75 59.9807 166.286 64.2735H166.284Z" fill="#B19C94"/>
<path d="M136.363 24.4669H132.501C131.037 20.6271 129.555 16.7376 128.049 12.7901H124.836C124.611 16.6188 124.869 20.4696 124.689 24.4171H121.099C120.758 23.4171 120.672 2.09116 121.016 0.51105H124.709V9.24309H128.09C129.261 6.33149 130.426 3.44199 131.611 0.5H135.575C134.443 4.01381 132.693 7.14365 131.444 10.6823C133.02 15.0994 134.654 19.6768 136.36 24.4669H136.363Z" fill="#B19C94"/>
<path d="M186.293 64.2858C184.937 64.6864 183.724 64.551 182.451 64.3632C182.051 62.9765 181.66 61.6173 181.252 60.203H173.934C173.562 61.5869 173.196 62.9488 172.824 64.33C171.537 64.6974 170.33 64.5068 168.957 64.3632C171.151 56.2914 173.301 48.3742 175.465 40.4102H179.807C181.965 48.3577 184.107 56.2416 186.293 64.2831V64.2858ZM180.329 56.4488C180.193 54.4488 178.09 46.7499 177.452 45.9378C176.531 49.4405 175.623 52.8936 174.689 56.4488H180.329Z" fill="#B19C94"/>
<path d="M17.2834 24.4555H13.4466C13.0194 23.0135 12.606 21.6157 12.176 20.1599H4.95198C4.55249 21.5439 4.13913 22.9776 3.71468 24.4583H0C0.918266 20.334 2.10286 16.403 3.16816 12.4445C4.22791 8.50524 5.29876 4.56878 6.39457 0.527344H10.7917C12.939 8.43895 15.0917 16.3809 17.2834 24.4555ZM11.488 16.4583C10.5087 12.7428 9.58215 9.23176 8.65833 5.72071C8.58898 5.72624 8.51685 5.73176 8.44749 5.73729C7.532 9.27044 6.61651 12.8063 5.6705 16.4555H11.4908L11.488 16.4583Z" fill="#B19C94"/>
<path d="M318.468 0.410513C320.949 0.410513 323.345 0.396701 325.742 0.4188C326.428 0.427088 327.121 0.509961 327.798 0.620458C332.392 1.36079 334.057 4.81935 333.568 8.87736C333.169 12.2006 330.553 14.6232 327.188 14.9243C326.086 15.0238 324.979 15.0459 323.873 15.0901C323.379 15.1094 322.882 15.0928 322.244 15.0928V24.3525C320.937 24.6564 319.756 24.5155 318.643 24.4934C318.54 24.3884 318.507 24.358 318.479 24.3249C318.449 24.2917 318.405 24.2558 318.396 24.2171C318.357 23.9906 318.305 23.7641 318.305 23.5376C318.305 16.0818 318.31 8.62598 318.321 1.17294C318.321 0.996148 318.385 0.822115 318.463 0.407751L318.468 0.410513ZM322.291 11.4299C323.809 11.4299 325.196 11.5293 326.564 11.405C328.525 11.2282 329.737 9.89946 329.668 8.0293C329.654 7.66189 329.671 7.29173 329.635 6.92709C329.493 5.50444 328.555 4.33593 327.135 4.20333C325.554 4.05416 323.945 4.17018 322.291 4.17018V11.4299Z" fill="#B19C94"/>
<path d="M178.872 0.511364C179.158 0.47269 179.38 0.414679 179.602 0.414679C181.954 0.414679 184.309 0.406392 186.662 0.450591C187.394 0.464403 188.138 0.569375 188.851 0.737883C192.08 1.49755 193.986 3.9644 194.066 7.29037C194.136 10.1992 193.062 12.4893 190.546 14.0086C189.131 14.8622 187.514 15.0528 185.888 15.0942C184.881 15.1191 183.871 15.0998 182.723 15.0998V24.3567C181.391 24.6743 180.17 24.4948 178.991 24.5058C178.658 23.4699 178.561 2.39534 178.872 0.511364ZM182.734 11.4202C184.248 11.4202 185.674 11.5197 187.084 11.3953C188.929 11.2324 189.974 10.0583 190.074 8.21578C190.105 7.63015 190.016 7.0307 189.919 6.44783C189.689 5.0749 188.698 4.33457 187.455 4.19645C185.921 4.02518 184.357 4.15501 182.737 4.15501V11.4202H182.734Z" fill="#B19C94"/>
<path d="M25.3611 15.0972V24.3431C24.0406 24.6939 22.8587 24.4646 21.7518 24.5226C21.6436 24.3983 21.6103 24.3652 21.5826 24.3293C21.5549 24.2933 21.5132 24.2602 21.5049 24.2215C21.4689 24.042 21.4161 23.8624 21.4161 23.6829C21.4134 16.1856 21.4134 8.68838 21.4161 1.19114C21.4161 1.01434 21.4689 0.834784 21.516 0.553016C21.8683 0.506055 22.2179 0.423182 22.5647 0.42042C24.7813 0.406608 27.0062 0.301635 29.2145 0.448044C30.5711 0.536442 31.9804 0.832022 33.2232 1.36793C34.9987 2.13313 36.0779 3.63036 36.4996 5.55302C36.7881 6.87346 36.8436 8.17456 36.544 9.51158C36.0307 11.8044 34.6603 13.3624 32.563 14.3099C31.2896 14.8845 29.9219 15.1166 28.5154 15.1027C27.5139 15.0917 26.5124 15.1027 25.3583 15.1027L25.3611 15.0972ZM25.4249 11.4508C26.6067 11.4508 27.6581 11.4508 28.7096 11.4508C29.0314 11.4508 29.356 11.4674 29.675 11.4259C31.6641 11.1746 32.7571 9.92871 32.7849 7.89832C32.7877 7.66904 32.7932 7.43976 32.7793 7.21047C32.6906 5.60274 31.8195 4.48119 30.252 4.21324C28.6735 3.94528 27.0728 4.07235 25.4249 4.13589V11.4508Z" fill="#B19C94"/>
<path d="M124.261 60.9368V64.2683C122.988 64.6191 111.952 64.6191 110.742 64.2766V40.4644C112.213 40.1606 113.683 40.3512 115.134 40.318C116.657 40.2849 118.183 40.3097 119.708 40.3097H124.122C124.516 41.5528 124.383 42.6246 124.258 43.8705C122.616 43.9589 121.012 43.9009 119.414 43.9119C117.808 43.923 116.202 43.9119 114.512 43.9119V48.7213H121.367C121.775 49.9534 121.573 51.028 121.551 52.2158C119.187 52.6025 116.873 52.1799 114.518 52.4865V60.7269C117.736 61.0611 120.918 60.7269 124.264 60.9368H124.261Z" fill="#B19C94"/>
<path d="M245.207 8.89065H252.217V12.2442C251.041 12.5895 249.887 12.3824 248.755 12.4183C247.609 12.4569 246.461 12.4266 245.221 12.4266V20.9045H254.869V24.2663C253.843 24.5895 243.229 24.6641 241.6 24.3824C241.337 23.3409 241.295 1.95694 241.573 0.503906H254.875V4.07573H245.204V8.89341L245.207 8.89065Z" fill="#B19C94"/>
<path d="M115.491 24.458H102.377C102.044 23.4055 101.978 2.10715 102.277 0.620966C103.262 0.361298 113.396 0.281187 115.446 0.527044C115.84 1.60715 115.674 2.73146 115.56 4.04086C113.96 4.13754 112.359 4.07124 110.761 4.08505C109.193 4.0961 107.626 4.08505 105.892 4.08505C105.826 5.64859 105.803 7.13478 105.928 8.8171H112.939V12.2536C111.812 12.5878 110.614 12.3779 109.443 12.4165C108.3 12.4525 107.157 12.4248 105.934 12.4248V20.8972H115.524C115.66 22.1735 115.935 23.2839 115.499 24.4552L115.491 24.458Z" fill="#B19C94"/>
<path d="M45.277 10.3932C43.5042 7.16672 41.7398 3.95678 39.9616 0.724734C41.0685 0.349043 42.0838 0.318656 43.6291 0.586612C44.9773 2.97059 46.3534 5.396 47.8348 8.01755C49.3273 5.38772 50.7006 2.96506 52.1043 0.492689H55.9327C54.0324 3.88219 52.2236 7.10595 50.3898 10.3794C52.3734 14.9954 54.3681 19.628 56.4016 24.3546C55.045 24.6971 53.8243 24.4651 52.4927 24.5203C50.9835 21.0258 49.4938 17.5756 47.9041 13.8932C46.8139 15.6805 46.2923 17.4761 45.5155 19.1446C44.7221 20.8518 44.0119 22.6004 43.274 24.3076C42.2447 24.5949 40.7605 24.6198 39.293 24.3518C41.2904 19.6888 43.2767 15.0562 45.277 10.3905V10.3932Z" fill="#B19C94"/>
<path d="M38.8202 47.0386H35.1887C35.0084 46.6574 34.817 46.2513 34.6255 45.8425C33.6185 43.7099 30.9469 43.0386 29.0827 44.5469C28.4307 45.0745 27.8454 45.8287 27.5291 46.5994C27.0824 47.6905 26.7828 48.8811 26.6524 50.0524C26.3806 52.4806 26.3584 54.9253 27.0935 57.2983C27.5624 58.8121 28.2226 60.2237 29.8511 60.8839C31.9068 61.7182 34.018 60.9253 34.9612 58.9309C35.1748 58.4806 35.3357 58.0027 35.5577 57.4447H38.92C39.1198 60.1519 37.4025 63.138 34.9196 64.232C30.7555 66.0662 25.4706 64.6325 23.8144 59.7706C22.136 54.8425 22.0861 49.9115 23.9587 45.0662C26.0144 39.7458 31.6793 39.0358 35.1832 40.9723C37.1057 42.0358 38.8562 44.9143 38.8174 47.0358L38.8202 47.0386Z" fill="#B19C94"/>
<path d="M158.18 0.509635C159.633 0.385325 160.896 0.388088 162.249 0.459911C163.825 3.69196 165.387 6.89637 167.046 10.2942C167.34 9.91847 167.579 9.72234 167.681 9.4682C168.605 7.16709 169.501 4.85494 170.414 2.55107C170.683 1.87151 170.98 1.20577 171.277 0.509635H174.983C171.865 8.59251 168.724 16.4986 165.656 24.4295H161.925C163.137 21.2721 164.283 18.2886 165.44 15.2721C163.046 10.4047 160.663 5.55107 158.182 0.509635H158.18Z" fill="#B19C94"/>
<path d="M148.929 24.4379H145.267C145.153 22.1147 145.228 19.8744 145.214 17.6368C145.2 15.4296 145.211 13.2197 145.211 11.0125V4.12573H139.805C139.289 3.02076 139.258 1.78595 139.671 0.476562H154.719C154.916 1.63678 154.916 2.74176 154.691 3.97104C152.879 4.22794 151.082 3.97656 149.123 4.15336C149.09 4.67546 149.032 5.20308 149.032 5.72794C149.026 11.3882 149.032 17.0456 149.026 22.7058C149.026 23.2445 148.968 23.786 148.929 24.4379Z" fill="#B19C94"/>
<path d="M88.0657 4.06744H82.3814C82.1178 2.8354 82.1289 1.72214 82.3481 0.503906H97.3621C97.6728 1.64755 97.5674 2.76357 97.4287 4.06468H91.8997V24.3685C90.5625 24.6282 89.3974 24.5895 88.0657 24.41V4.06744Z" fill="#B19C94"/>
<path d="M47.507 64.414V44.1709H41.9086C41.5563 42.9305 41.7616 41.8477 41.7338 40.8035C42.7603 40.4444 55.2221 40.3587 56.9171 40.6792C57.1723 41.7289 57.0419 42.8118 56.9865 44.0687C55.1028 44.2759 53.2218 44.0576 51.2355 44.2178V64.3643C49.951 64.6156 48.797 64.5687 47.5097 64.414H47.507Z" fill="#B19C94"/>
</svg>
