<svg width="339" height="115" viewBox="0 0 339 115" fill="none" xmlns="http://www.w3.org/2000/svg">
<path d="M278.368 1.00195H276.543V50.1741H278.368V1.00195Z" fill="#B19C94"/>
<path d="M129.75 108.368H0V106.546H127.926V81.2489L162.794 77.9319V70.0585L277.82 0L339 23.1281V68.4911H338.088L338.361 69.366L323.034 74.141V94.6993H321.21V72.8106L335.004 68.5276L277.984 51.177L219.723 74.3962L129.768 82.9439V108.405L129.75 108.368ZM164.619 71.0974V77.7679L219.395 72.5554L277.875 49.2086L278.185 49.2998L337.175 67.2518V24.3856L278.002 2.02302L164.619 71.0974Z" fill="#B19C94"/>
<path d="M129.75 108.368H0V106.546H127.926V81.2489L162.794 77.9319V70.0585L277.82 0L339 23.1281V68.4911H338.088L338.361 69.366L323.034 74.141V94.6993H321.21V72.8106L335.004 68.5276L277.984 51.177L219.723 74.3962L129.768 82.9439V108.405L129.75 108.368ZM164.619 71.0974V77.7679L219.395 72.5554L277.875 49.2086L278.185 49.2998L337.175 67.2518V24.3856L278.002 2.02302L164.619 71.0974Z" fill="#B19C94"/>
<path d="M139.586 113.8V102.609H147.45V104.505H141.903V107.148H146.684V109.043H141.903V113.8H139.586Z" fill="#B19C94"/>
<path d="M149.512 113.8V102.609H158.015V104.505H151.829V106.983H157.577V108.861H151.829V111.904H158.233V113.782H149.512V113.8Z" fill="#B19C94"/>
<path d="M160.348 102.627H164.581C165.53 102.627 166.26 102.7 166.77 102.846C167.446 103.046 168.011 103.374 168.504 103.885C168.978 104.377 169.343 104.978 169.599 105.707C169.854 106.418 169.982 107.293 169.982 108.35C169.982 109.279 169.872 110.063 169.635 110.737C169.343 111.557 168.942 112.214 168.413 112.706C168.011 113.088 167.464 113.38 166.789 113.599C166.278 113.763 165.603 113.836 164.745 113.836H160.384V102.645L160.348 102.627ZM162.665 104.522V111.94H164.398C165.037 111.94 165.511 111.904 165.803 111.831C166.187 111.74 166.497 111.576 166.734 111.357C166.989 111.138 167.19 110.774 167.336 110.282C167.5 109.771 167.573 109.097 167.573 108.222C167.573 107.347 167.5 106.691 167.336 106.236C167.172 105.78 166.953 105.415 166.679 105.16C166.405 104.905 166.041 104.723 165.603 104.632C165.274 104.559 164.654 104.522 163.705 104.522H162.665Z" fill="#B19C94"/>
<path d="M171.628 108.277C171.628 107.129 171.81 106.182 172.157 105.416C172.412 104.851 172.777 104.341 173.215 103.885C173.671 103.429 174.164 103.101 174.693 102.883C175.405 102.591 176.226 102.445 177.156 102.445C178.853 102.445 180.203 102.956 181.207 103.976C182.229 104.997 182.74 106.418 182.74 108.241C182.74 110.064 182.229 111.467 181.225 112.488C180.222 113.508 178.871 114.018 177.193 114.018C175.514 114.018 174.127 113.508 173.124 112.506C172.12 111.485 171.609 110.082 171.609 108.314L171.628 108.277ZM174.018 108.205C174.018 109.48 174.31 110.428 174.912 111.084C175.514 111.74 176.28 112.068 177.193 112.068C178.105 112.068 178.871 111.74 179.455 111.102C180.057 110.446 180.349 109.48 180.349 108.186C180.349 106.892 180.057 105.945 179.474 105.325C178.908 104.687 178.142 104.377 177.175 104.377C176.207 104.377 175.459 104.705 174.875 105.343C174.292 105.981 174 106.947 174 108.223L174.018 108.205Z" fill="#B19C94"/>
<path d="M184.725 113.8V102.609H189.597C190.82 102.609 191.714 102.719 192.261 102.919C192.827 103.12 193.265 103.466 193.593 103.995C193.921 104.505 194.104 105.088 194.104 105.762C194.104 106.601 193.848 107.293 193.338 107.84C192.827 108.387 192.079 108.733 191.075 108.879C191.586 109.171 191.987 109.48 192.316 109.827C192.644 110.173 193.082 110.774 193.63 111.649L195.034 113.836H192.261L190.582 111.394C189.98 110.519 189.579 109.972 189.36 109.754C189.141 109.517 188.904 109.371 188.666 109.28C188.411 109.189 188.028 109.152 187.499 109.152H187.024V113.818H184.707L184.725 113.8ZM187.043 107.348H188.758C189.871 107.348 190.564 107.293 190.838 107.202C191.112 107.111 191.33 106.947 191.495 106.728C191.659 106.51 191.732 106.218 191.732 105.89C191.732 105.507 191.622 105.216 191.422 104.979C191.221 104.742 190.929 104.596 190.564 104.541C190.382 104.523 189.816 104.505 188.867 104.505H187.061V107.348H187.043Z" fill="#B19C94"/>
<path d="M195.986 108.277C195.986 107.129 196.168 106.182 196.515 105.416C196.77 104.851 197.135 104.341 197.573 103.885C198.029 103.429 198.522 103.101 199.051 102.883C199.763 102.591 200.584 102.445 201.514 102.445C203.211 102.445 204.562 102.956 205.565 103.976C206.587 104.997 207.08 106.418 207.08 108.241C207.08 110.064 206.569 111.467 205.565 112.488C204.562 113.508 203.211 114.018 201.533 114.018C199.854 114.018 198.467 113.508 197.464 112.506C196.46 111.485 195.949 110.082 195.949 108.314L195.986 108.277ZM198.376 108.205C198.376 109.48 198.686 110.428 199.27 111.084C199.872 111.74 200.639 112.068 201.551 112.068C202.463 112.068 203.23 111.74 203.813 111.102C204.416 110.446 204.708 109.48 204.708 108.186C204.708 106.892 204.416 105.945 203.832 105.325C203.266 104.687 202.5 104.377 201.551 104.377C200.602 104.377 199.836 104.705 199.252 105.343C198.668 105.981 198.376 106.947 198.376 108.223V108.205Z" fill="#B19C94"/>
<path d="M212.004 113.8L207.898 102.609H210.416L213.318 110.884L216.128 102.609H218.591L214.485 113.8H212.022H212.004Z" fill="#B19C94"/>
<path d="M229.064 113.8H226.546L225.543 111.266H220.963L220.014 113.8H217.551L222.021 102.609H224.466L229.064 113.8ZM224.795 109.371L223.207 105.216L221.656 109.371H224.776H224.795Z" fill="#B19C94"/>
<path d="M244.228 113.8H241.71L240.707 111.266H236.127L235.178 113.8H232.715L237.185 102.609H239.63L244.21 113.8H244.228ZM239.977 109.371L238.389 105.216L236.839 109.371H239.977Z" fill="#B19C94"/>
<path d="M245.632 113.8V102.609H250.503C251.726 102.609 252.62 102.719 253.167 102.919C253.733 103.12 254.171 103.466 254.499 103.995C254.828 104.505 254.992 105.088 254.992 105.762C254.992 106.601 254.736 107.293 254.244 107.84C253.733 108.387 252.985 108.733 251.981 108.879C252.474 109.171 252.894 109.48 253.222 109.827C253.55 110.173 253.988 110.774 254.536 111.649L255.941 113.836H253.167L251.489 111.394C250.905 110.519 250.485 109.972 250.266 109.754C250.047 109.517 249.81 109.371 249.573 109.28C249.336 109.189 248.934 109.152 248.405 109.152H247.931V113.818H245.613L245.632 113.8ZM247.949 107.348H249.664C250.777 107.348 251.47 107.293 251.744 107.202C252.018 107.111 252.237 106.947 252.401 106.728C252.565 106.51 252.638 106.218 252.638 105.89C252.638 105.507 252.529 105.216 252.328 104.979C252.127 104.742 251.835 104.596 251.452 104.541C251.27 104.523 250.704 104.505 249.755 104.505H247.949V107.348Z" fill="#B19C94"/>
<path d="M264.684 109.698L266.929 110.39C266.582 111.611 266.016 112.523 265.214 113.106C264.411 113.689 263.407 113.999 262.166 113.999C260.652 113.999 259.393 113.489 258.408 112.486C257.422 111.466 256.93 110.08 256.93 108.313C256.93 106.454 257.422 105.014 258.408 103.975C259.393 102.936 260.688 102.426 262.294 102.426C263.699 102.426 264.83 102.827 265.706 103.647C266.235 104.121 266.619 104.813 266.874 105.706L264.575 106.235C264.447 105.652 264.155 105.196 263.717 104.868C263.298 104.54 262.769 104.358 262.148 104.358C261.291 104.358 260.615 104.649 260.068 105.251C259.539 105.852 259.283 106.818 259.283 108.149C259.283 109.57 259.539 110.573 260.068 111.174C260.597 111.775 261.272 112.067 262.093 112.067C262.714 112.067 263.243 111.885 263.681 111.502C264.119 111.119 264.447 110.518 264.63 109.698H264.684Z" fill="#B19C94"/>
<path d="M269.098 113.8V102.609H271.415V107.02H275.958V102.609H278.276V113.8H275.958V108.915H271.415V113.8H269.098Z" fill="#B19C94"/>
<path d="M280.758 113.8V102.609H283.075V113.8H280.758Z" fill="#B19C94"/>
<path d="M288.019 113.8V104.505H284.625V102.609H293.73V104.505H290.336V113.8H288.019Z" fill="#B19C94"/>
<path d="M295.391 113.8V102.609H303.893V104.505H297.708V106.983H303.456V108.861H297.708V111.904H304.112V113.782H295.391V113.8Z" fill="#B19C94"/>
<path d="M313.563 109.698L315.808 110.39C315.461 111.611 314.895 112.523 314.092 113.106C313.29 113.689 312.286 113.999 311.045 113.999C309.513 113.999 308.272 113.489 307.287 112.486C306.301 111.466 305.809 110.08 305.809 108.313C305.809 106.454 306.301 105.014 307.287 103.975C308.272 102.936 309.567 102.426 311.173 102.426C312.578 102.426 313.709 102.827 314.585 103.647C315.114 104.121 315.497 104.813 315.753 105.706L313.472 106.235C313.326 105.652 313.052 105.196 312.614 104.868C312.177 104.54 311.666 104.358 311.045 104.358C310.188 104.358 309.494 104.649 308.965 105.251C308.436 105.852 308.181 106.818 308.181 108.149C308.181 109.57 308.436 110.573 308.965 111.174C309.494 111.775 310.169 112.067 310.991 112.067C311.611 112.067 312.14 111.885 312.578 111.502C313.016 111.119 313.344 110.518 313.527 109.698H313.563Z" fill="#B19C94"/>
<path d="M320.534 113.8V104.505H317.141V102.609H326.246V104.505H322.852V113.8H320.534Z" fill="#B19C94"/>
<path d="M327.323 110.172L329.567 109.954C329.695 110.683 329.969 111.229 330.388 111.576C330.808 111.922 331.374 112.086 332.067 112.086C332.815 112.086 333.381 111.94 333.746 111.63C334.129 111.32 334.311 110.956 334.311 110.555C334.311 110.282 334.238 110.063 334.074 109.881C333.91 109.698 333.636 109.534 333.235 109.389C332.961 109.297 332.341 109.133 331.392 108.896C330.151 108.605 329.275 108.222 328.783 107.785C328.071 107.165 327.724 106.418 327.724 105.525C327.724 104.96 327.889 104.431 328.217 103.921C328.545 103.429 329.02 103.046 329.64 102.791C330.261 102.536 331.027 102.408 331.903 102.408C333.344 102.408 334.421 102.718 335.151 103.338C335.88 103.957 336.264 104.778 336.3 105.798L333.983 105.889C333.873 105.306 333.673 104.905 333.344 104.65C333.016 104.395 332.541 104.267 331.885 104.267C331.228 104.267 330.68 104.395 330.297 104.668C330.06 104.832 329.932 105.069 329.932 105.361C329.932 105.634 330.042 105.853 330.279 106.035C330.571 106.272 331.282 106.527 332.414 106.782C333.545 107.037 334.366 107.311 334.913 107.584C335.461 107.858 335.881 108.24 336.172 108.714C336.483 109.188 336.629 109.79 336.629 110.5C336.629 111.138 336.446 111.74 336.081 112.305C335.716 112.87 335.205 113.289 334.53 113.562C333.855 113.836 333.034 113.963 332.031 113.963C330.589 113.963 329.476 113.635 328.691 112.979C327.907 112.323 327.451 111.375 327.305 110.118L327.323 110.172Z" fill="#B19C94"/>
</svg>
