<svg width="220" height="85" viewBox="0 0 220 85" fill="none" xmlns="http://www.w3.org/2000/svg">
<path d="M21.6046 54.8208C15.8122 53.6964 12.7376 52.1881 12.7376 49.0892C12.7376 46.2645 15.1259 44.619 20.0124 44.619C24.1302 44.619 28.2754 45.1949 33.107 47.4986L38.4875 39.9569C33.9305 36.9951 27.7264 35.3223 20.0124 35.3223C6.31384 35.3223 1.5372 42.0137 1.5372 49.0892C1.5372 56.5485 6.89033 61.7591 19.5182 64.3095C26.0243 65.5985 29.2088 66.8051 29.2088 69.9041C29.2088 73.003 26.6832 74.7033 20.0124 74.7033C15.8946 74.7033 10.3218 73.908 5.40793 70.9187L0.0273438 78.4604C5.0785 82.2449 11.4199 84 20.0124 84C32.3658 84 40.4092 79.5299 40.4092 69.9315C40.4092 61.2655 33.656 57.289 21.6046 54.8208Z" fill="#B19C94"/>
<path d="M81.6404 70.8637C78.758 72.8108 74.8049 74.7304 67.8321 74.7304C57.867 74.7304 53.4473 68.1761 53.4473 59.702C53.4473 51.228 57.867 44.6736 67.8321 44.6736C74.8323 44.6736 78.7031 46.6208 81.6404 48.5404L87.1308 41.2731C82.4365 37.4063 77.0285 35.4043 67.8321 35.4043C49.9059 35.4043 42.0547 46.8401 42.0547 59.7295C42.0547 72.6188 49.9059 84.0546 67.8321 84.0546C77.0285 84.0546 82.4365 82.0253 87.1308 78.1859L81.6404 70.9185V70.8637Z" fill="#B19C94"/>
<path d="M106.843 36.6387L87.1328 82.7112H99.047L102.698 73.6886H121.887L125.538 82.7112H137.452L117.742 36.6387H106.788H106.843ZM106.377 64.7209L112.334 50.1313L118.291 64.7209H106.404H106.377Z" fill="#B19C94"/>
<path d="M160.815 36.6387H139.484V82.7112H150.548V68.8894H160.815C172.619 68.8894 179.949 63.0481 179.949 52.764C179.949 42.48 172.619 36.6387 160.815 36.6387ZM160.815 59.6201H150.548V45.9354H160.815C166.168 45.9354 168.748 48.431 168.748 52.7915C168.748 57.1519 166.168 59.6475 160.815 59.6475V59.6201Z" fill="#B19C94"/>
<path d="M195.321 73.4418V63.8434H218.243V54.574H195.321V45.908H219.671V36.6387H184.258V82.7112H220V73.4418H195.321Z" fill="#B19C94"/>
<path d="M218.93 14.5073V0.109696H179.509V10.0098H142.806V2.35847C142.806 2.35847 140.884 1.23408 135.367 3.42801C129.108 5.89618 128.531 11.6827 118.95 11.6827C109.37 11.6827 109.04 2.13908 96.1652 2.13908C85.6511 2.13908 81.8902 8.14496 78.5959 10.1469C75.7958 11.8472 73.1056 12.1763 72.3369 12.2586V0L58.6384 10.3663L43.5672 0.246817L29.7589 9.7904L15.4839 0L0.742188 9.07738V24.4074L14.9074 15.0833L29.2922 24.6268L43.4574 14.9736L57.8423 24.2977L72.1447 14.6445C72.1722 17.1401 72.2271 21.1988 72.2271 25.0108C87.9296 25.0108 85.7884 15.6866 95.4789 15.6866C105.169 15.6866 105.993 25.3399 119.088 25.3399C128.641 25.3399 131.825 20.7326 135.833 17.9079C138.908 15.7414 141.351 15.3026 142.312 15.2204V24.38H181.733V14.4799H218.903L218.93 14.5073Z" fill="#B19C94"/>
</svg>
