<svg width="304" height="57" viewBox="0 0 304 57" fill="none" xmlns="http://www.w3.org/2000/svg">
<path d="M17.0294 19.4338V26.9088C12.4864 25.4138 7.72582 26.637 7.72582 31.9646V41.3422H0V19.5697H7.72582V24.843C8.21548 23.5382 9.03159 21.7442 10.3646 20.6298C11.9968 19.2435 15.6421 19.3523 17.0294 19.461V19.4338Z" fill="#B19C94"/>
<path d="M26.3585 41.37H18.6055V19.5703H26.3585V41.37Z" fill="#B19C94"/>
<path d="M48.9105 40.3655C48.2576 40.6101 47.5775 40.8275 46.8702 41.045C46.163 41.2625 45.3468 41.4255 44.4491 41.5615C43.5514 41.6974 42.5721 41.7517 41.5111 41.7517C39.1172 41.7517 37.1042 41.344 35.4447 40.5285C33.7853 39.7131 32.534 38.7074 31.6362 37.4842C30.7385 36.261 30.1128 35.0107 29.7864 33.7331C29.46 32.4556 29.2695 31.3411 29.2695 30.3626C29.2695 29.3841 29.4328 28.2696 29.7864 26.9921C30.14 25.7145 30.7385 24.4913 31.609 23.2954C32.4796 22.0994 33.7309 21.1208 35.3903 20.3054C37.0498 19.5171 39.0628 19.1094 41.4839 19.1094C43.0889 19.1094 44.4219 19.2181 45.4285 19.4627C46.435 19.7074 47.4687 20.0064 48.5297 20.3869V26.4484C45.9997 25.6602 44.0411 25.2524 42.6265 25.2524C41.2119 25.2524 40.0421 25.6602 38.9812 26.5028C37.9203 27.3454 37.3762 28.623 37.3762 30.3626C37.3762 31.5314 37.6482 32.4828 38.1651 33.2982C38.682 34.0865 39.3621 34.6845 40.1782 35.0378C40.9943 35.4184 41.8104 35.5815 42.6265 35.5815C43.3882 35.5815 44.2859 35.4728 45.2652 35.2281C46.2446 35.0107 47.4415 34.6573 48.8561 34.2496V40.3111L48.9105 40.3655Z" fill="#B19C94"/>
<path d="M69.9144 40.3655C69.2615 40.6101 68.5814 40.8275 67.8742 41.045C67.1669 41.2625 66.3508 41.4255 65.453 41.5615C64.5553 41.6974 63.576 41.7517 62.515 41.7517C60.1211 41.7517 58.1081 41.344 56.4487 40.5285C54.7892 39.7131 53.5379 38.7074 52.6402 37.4842C51.7424 36.261 51.1167 35.0107 50.7903 33.7331C50.4639 32.4556 50.2734 31.3411 50.2734 30.3626C50.2734 29.3841 50.4367 28.2696 50.7903 26.9921C51.144 25.7145 51.7424 24.4913 52.6129 23.2954C53.4835 22.0994 54.7348 21.1208 56.3942 20.3054C58.0537 19.5171 60.0667 19.1094 62.4878 19.1094C64.0929 19.1094 65.4258 19.2181 66.4324 19.4627C67.4389 19.7074 68.4726 20.0064 69.5336 20.3869V26.4484C67.0036 25.6602 65.045 25.2524 63.6304 25.2524C62.2158 25.2524 61.0461 25.6602 59.9851 26.5028C58.9242 27.3454 58.3801 28.623 58.3801 30.3626C58.3801 31.5314 58.6521 32.4828 59.169 33.2982C59.6859 34.0865 60.366 34.6845 61.1821 35.0378C61.9982 35.4184 62.8143 35.5815 63.6304 35.5815C64.3921 35.5815 65.2898 35.4728 66.2691 35.2281C67.2485 35.0107 68.4454 34.6573 69.86 34.2496V40.3111L69.9144 40.3655Z" fill="#B19C94"/>
<path d="M80.3585 41.37H72.6055V19.5703H80.3585V41.37Z" fill="#B19C94"/>
<path d="M26.3585 18.0763H18.6055V13.1836H26.3585V18.0763Z" fill="#B19C94"/>
<path d="M80.3585 18.0763H72.6055V13.1836H80.3585V18.0763Z" fill="#B19C94"/>
<path d="M111.098 14.1624L106.229 7.66602H109.221L113.819 14.1624L108.868 21.121H105.93L111.071 14.1624H111.098ZM114.417 21.121V7.66602H116.811V21.121H114.417ZM124.999 7.66602L120.13 14.1624L125.353 21.121H122.388L117.382 14.1624L122.034 7.66602H124.999Z" fill="#B19C94"/>
<path d="M130.929 21.121H128.535V7.66602H130.929V17.6961L138.709 7.66602H141.103V21.121H138.709V11.0909L130.929 21.121Z" fill="#B19C94"/>
<path d="M155.251 21.121V10.058H150.517L150.381 12.3413C149.756 20.0065 147.77 21.3112 144.968 21.3112L144.777 18.9736C145.757 19.0551 147.715 18.0766 148.042 11.852L148.287 7.66602H157.645V21.121H155.251Z" fill="#B19C94"/>
<path d="M162.594 8.59036C163.9 7.77491 165.396 7.36719 167.083 7.36719C170.782 7.36719 172.251 9.18836 172.251 12.8579V21.1211H169.966V19.3815C168.905 20.659 167.491 21.3114 165.668 21.3114C163.193 21.3114 161.533 19.7077 161.533 17.1526C161.533 14.5975 163.628 12.8851 166.62 12.8851C168.062 12.8851 169.15 13.1841 169.966 13.7549C169.966 10.8736 169.395 9.51454 166.92 9.51454C165.695 9.51454 164.471 9.84072 163.22 10.4931L162.594 8.59036ZM169.994 17.4516V15.7391C169.15 15.1412 168.144 14.8422 166.974 14.8422C165.396 14.8422 164.09 15.6304 164.09 17.0439C164.09 18.3486 164.988 19.164 166.511 19.164C167.872 19.164 168.987 18.5932 169.994 17.4244V17.4516Z" fill="#B19C94"/>
<path d="M186.942 7.66602V21.121H184.548V16.636H181.937L178.645 21.121H175.734L179.624 16.038C178.074 15.6846 176.714 14.2168 176.714 12.151C176.714 9.54155 178.536 7.66602 182.726 7.66602H186.915H186.942ZM181.801 14.4071H184.548V9.9221H182.372C180.25 9.9221 179.298 10.8735 179.298 12.2325C179.298 13.5916 180.522 14.4071 181.801 14.4071Z" fill="#B19C94"/>
<path d="M117.545 51.0213V45.3404H110.064V51.0213H107.67V37.5664H110.064V43.1115H117.545V37.5664H119.939V51.0213H117.545Z" fill="#B19C94"/>
<path d="M136.206 49.5537C134.928 50.7225 133.214 51.3205 131.146 51.3205C128.97 51.3205 127.229 50.6953 125.923 49.4178C124.618 48.1403 123.938 46.4278 123.938 44.3076C123.938 42.1875 124.563 40.6109 125.787 39.279C127.012 37.9199 128.725 37.2676 130.874 37.2676C132.643 37.2676 134.139 37.8384 135.336 39.0072C136.533 40.1488 137.131 41.6166 137.131 43.4378C137.131 44.063 137.077 44.6066 136.995 45.0415H126.631C126.848 47.5423 128.671 49.0916 131.337 49.0916C133.105 49.0916 134.492 48.6023 135.472 47.6782L136.234 49.5537H136.206ZM126.467 43.0845H134.629C134.52 40.8284 133.051 39.4965 130.738 39.4965C128.426 39.4965 126.739 40.9643 126.467 43.0845Z" fill="#B19C94"/>
<path d="M138.574 54.3102V48.7651H140.261C141.213 47.5691 142.083 44.6063 142.328 41.0999L142.546 37.5391H151.741V48.7651H153.999V54.3102H151.741V51.0212H140.859V54.3102H138.601H138.574ZM144.613 42.0512C144.341 45.2043 143.498 47.8137 142.791 48.7923H149.32V39.8223H144.777L144.613 42.0784V42.0512Z" fill="#B19C94"/>
<path d="M157.127 37.5658C157.453 37.5658 158.133 37.5386 159.249 37.5114C160.364 37.4842 161.289 37.457 161.996 37.457C165.859 37.457 167.791 38.6258 167.791 40.9363C167.791 42.5128 166.675 43.7632 165.097 44.0078V44.0622C167.192 44.4427 168.253 45.5028 168.253 47.2424C168.253 49.8519 166.186 51.1566 162.051 51.1566C161.452 51.1566 160.582 51.1294 159.412 51.1022C158.242 51.0751 157.508 51.0479 157.1 51.0479V37.5929L157.127 37.5658ZM159.521 39.4685V43.4642H162.54C164.2 43.4642 165.261 42.6487 165.261 41.3712C165.261 40.0937 164.254 39.3597 162.187 39.3597C161.615 39.3597 160.718 39.3869 159.521 39.4413V39.4685ZM159.521 44.9592V49.0908C160.963 49.1452 161.887 49.1723 162.268 49.1723C164.581 49.1723 165.696 48.4656 165.696 47.025C165.696 45.5844 164.581 44.9592 162.377 44.9592H159.494H159.521Z" fill="#B19C94"/>
<path d="M174.863 51.0213H172.469V37.5664H174.863V47.5965L182.643 37.5664H185.037V51.0213H182.643V40.9913L174.863 51.0213Z" fill="#B19C94"/>
<path d="M193.389 44.0628L188.52 37.5664H191.512L196.11 44.0628L191.159 51.0213H188.221L193.362 44.0628H193.389ZM196.708 51.0213V37.5664H199.102V51.0213H196.708ZM207.29 37.5664L202.421 44.0628L207.644 51.0213H204.679L199.673 44.0628L204.325 37.5664H207.29Z" fill="#B19C94"/>
<path d="M213.22 51.0213H210.826V37.5664H213.22V47.5965L221 37.5664H223.394V51.0213H221V40.9913L213.22 51.0213Z" fill="#B19C94"/>
<path d="M228.318 51.0213V37.5664H230.495L235.663 44.2259L240.56 37.5664H242.682V51.0213H240.288V41.2088L235.609 47.4605H235.527L230.685 41.2088V51.0213H228.291H228.318Z" fill="#B19C94"/>
<path d="M246.709 44.3076C246.709 42.269 247.362 40.6109 248.695 39.279C250.055 37.9199 251.769 37.2676 253.891 37.2676C256.013 37.2676 257.754 37.9199 259.059 39.279C260.42 40.5837 261.072 42.269 261.072 44.3076C261.072 46.3463 260.42 48.0043 259.059 49.3634C257.699 50.7225 256.013 51.3477 253.891 51.3477C251.769 51.3477 250.028 50.6953 248.695 49.3634C247.389 48.0043 246.709 46.3463 246.709 44.3076ZM250.545 47.7597C251.415 48.6567 252.558 49.1188 253.891 49.1188C256.611 49.1188 258.543 47.1617 258.543 44.3348C258.543 42.9214 258.08 41.8069 257.237 40.9099C256.366 40.0129 255.251 39.5508 253.918 39.5508C252.585 39.5508 251.47 40.0129 250.599 40.9099C249.729 41.7797 249.293 42.9485 249.293 44.3348C249.293 45.7211 249.701 46.8899 250.572 47.7869L250.545 47.7597Z" fill="#B19C94"/>
<path d="M276.577 49.0918C275.461 50.5324 273.53 51.3479 271.408 51.3479C269.286 51.3479 267.518 50.7227 266.185 49.4451C264.879 48.1676 264.199 46.4551 264.199 44.335C264.199 42.3507 264.852 40.6926 266.131 39.3335C267.409 37.9745 269.069 37.2949 271 37.2949C273.367 37.2949 275.135 37.8929 276.305 39.0617L275.189 40.9373C274.183 40.0131 272.877 39.5238 271.327 39.5238C270.075 39.5238 268.987 39.9859 268.062 40.9101C267.137 41.8343 266.702 42.9487 266.702 44.3078C266.702 45.6669 267.164 46.9172 268.089 47.7871C269.014 48.6569 270.184 49.0918 271.571 49.0918C273.122 49.0918 274.401 48.521 275.434 47.3521L276.577 49.0918Z" fill="#B19C94"/>
<path d="M278.373 39.9584V37.5664H290.642V39.9584H285.691V51.0213H283.297V39.9584H278.346H278.373Z" fill="#B19C94"/>
<path d="M293.824 51.0213V37.5664H296.218V41.6165H298.666C302.502 41.6165 303.998 43.5192 303.998 46.2645C303.998 47.5965 303.536 48.7381 302.638 49.6623C301.74 50.5864 300.299 51.0485 298.367 51.0485H293.824V51.0213ZM296.218 43.8454V48.7924H298.204C300.38 48.7924 301.468 47.977 301.468 46.3461C301.468 44.7152 300.38 43.8726 298.231 43.8726H296.218V43.8454Z" fill="#B19C94"/>
<path d="M93.9078 0H90.4258V57H93.9078V0Z" fill="#B19C94"/>
<path d="M119.071 13.2656H112.434V15.2227H119.071V13.2656Z" fill="#B19C94"/>
<path d="M201.169 43.1367H194.531V45.0938H201.169V43.1367Z" fill="#B19C94"/>
</svg>
