<svg width="98" height="98" viewBox="0 0 98 98" fill="none" xmlns="http://www.w3.org/2000/svg">
<g clip-path="url(#clip0_371_1819)">
<path d="M49 0C21.9383 0 0 21.9383 0 49C0 76.0617 21.9383 98 49 98C76.0617 98 98 76.0617 98 49C98 21.9383 76.0617 0 49 0ZM71.8819 33.0374C71.148 40.7634 67.9619 59.5202 66.3437 68.1761C65.66 71.8363 64.3108 73.067 63.0026 73.1855C60.1629 73.4453 58.0114 71.3121 55.2583 69.5071C50.9554 66.6856 48.526 64.9307 44.3507 62.1821C39.5236 59.0006 42.6551 57.2548 45.4036 54.3968C46.1238 53.6493 58.6268 42.2767 58.8684 41.242C58.9003 41.1144 58.9276 40.6313 58.6405 40.376C58.3533 40.1207 57.934 40.2073 57.6286 40.2757C57.1955 40.3714 50.3264 44.9159 37.0121 53.9C35.0612 55.2401 33.2927 55.8919 31.711 55.86C29.9652 55.8235 26.6104 54.8754 24.1126 54.0641C21.054 53.0704 18.62 52.5417 18.8297 50.8552C18.9391 49.9754 20.1515 49.0729 22.4671 48.1567C36.7158 41.9486 46.215 37.8554 50.9691 35.8817C64.5433 30.2341 67.3602 29.2541 69.2017 29.2222C69.6074 29.2131 70.5099 29.3134 71.0933 29.792C71.5856 30.1931 71.7223 30.7355 71.7907 31.1139C71.8545 31.4922 71.9366 32.3628 71.8727 33.0374H71.8819Z" fill="#634840"/>
</g>
<defs>
<clipPath id="clip0_371_1819">
<rect width="98" height="98" fill="white"/>
</clipPath>
</defs>
</svg>
