<svg width="98" height="98" viewBox="0 0 98 98" fill="none" xmlns="http://www.w3.org/2000/svg">
<g clip-path="url(#clip0_371_1816)">
<path d="M49 0C21.9383 0 0 21.9383 0 49C0 76.0617 21.9383 98 49 98C76.0617 98 98 76.0617 98 49C98 21.9383 76.0617 0 49 0ZM66.2571 67.0685C64.1376 60.4683 58.8593 55.3632 51.8762 54.6658V67.0685H50.8005C31.7976 67.0685 20.9629 54.0413 20.5116 32.3673H30.029C30.3435 48.2753 37.3585 55.0167 42.9149 56.407V32.3673H51.8762V46.0873C57.3642 45.4948 63.1302 39.2456 65.0766 32.3673H74.0379C72.5428 40.8409 66.2936 47.0947 61.8448 49.6655C66.289 51.7486 73.4134 57.2047 76.1209 67.0685H66.2571Z" fill="#634840"/>
</g>
<defs>
<clipPath id="clip0_371_1816">
<rect width="98" height="98" fill="white"/>
</clipPath>
</defs>
</svg>
