<svg version="1.1" xmlns="http://www.w3.org/2000/svg" xmlns:xlink="http://www.w3.org/1999/xlink" x="0px" y="0px"
	 viewBox="0 0 547.1 266.5" style="enable-background:new 0 0 547.1 266.5;" xml:space="preserve">
	<polygon class='st0 tippy_btn' data-booked=""  data-link='apartment_card.html' data-template='flat-content_1' data-rooms-quantity='3' points="25,15.1 25,99.1 24.9,99.1 24.9,186.3 116.6,186.3 116.6,185.9 121.4,185.9 121.4,163 117.9,163 
		117.9,146 122.2,146 122.2,117.4 117.1,117.4 117.1,99.4 116.6,99.4 116.6,99.1 96.3,99.1 96.3,15.1 	"/>
	<polygon class='st0 tippy_btn'  data-link='apartment_card.html' data-template='flat-content_4' data-rooms-quantity='1'  points="122.8,188.1 16.5,188.1 16.5,227 7.4,227 7.4,263.3 168.8,263.3 168.8,226.1 151.9,226.1 151.9,194.1 
		151.9,188.1 151.9,179.2 122.8,179.2 	"/>
	<polygon class='st0 tippy_btn'  data-link='apartment_card.html' data-template='flat-content_8' data-rooms-quantity='4' points="98.3,90.7 97.7,90.7 97.7,98.8 154.4,98.8 154.4,93.5 177.4,93.5 177.4,64.5 177.3,64.5 177.3,6.4 
		161.9,6.4 141,6.4 98.3,6.4 	"/>
</svg>
