<svg version="1.1" xmlns="http://www.w3.org/2000/svg" xmlns:xlink="http://www.w3.org/1999/xlink" x="0px" y="0px"
	 viewBox="0 0 462 266.5" style="enable-background:new 0 0 462 266.5;" xml:space="preserve">
		<polygon class='st0 tippy_btn' data-template='flat-content_3' data-rooms-quantity='3' points="337.5,120.1 337.5,119.8 313.7,119.8 313.7,120.1 312.7,120.1 312.7,126.2 286.1,126.2 286.1,119.8 
			271.8,119.8 271.8,126.2 251.7,126.2 251.7,226.3 336.5,226.3 336.5,218.1 379.4,218.1 379.4,216.5 415.7,216.5 415.7,174.7 
			456.4,174.7 456.4,120.1 		"/>
		<polygon class='st0 tippy_btn' data-template='flat-content_6' data-rooms-quantity='4'  points="379,13.6 379,4.7 258.2,4.7 258.2,64.5 270.9,64.5 270.9,92.5 279.9,92.5 279.9,97.3 312.4,97.3 
			312.4,118.4 324.8,118.4 444.3,118.4 456.7,118.4 456.7,13.6 		"/>
		<polygon class="st0" points="120.6,145 120.6,116.5 115.5,116.5 115.5,98.4 115,98.4 115,98.2 94.7,98.2 94.7,52.7 23.4,52.7 
			23.4,98.2 23.3,98.2 23.3,185.4 115,185.4 115,185 119.8,185 119.8,162.1 115,162.1 115,145 		"/>
		<polygon class="st0" points="121.2,187.2 14.9,187.2 14.9,226.1 5.8,226.1 5.8,262.3 167.2,262.3 167.2,227.1 150.3,227.1 
			150.3,193.2 150.3,187.2 150.3,178.2 121.2,178.2 		"/>
		<polygon class='st0 tippy_btn' data-template='flat-content_2' data-rooms-quantity='1'  points="177.9,5 177.9,65.8 161.8,65.8 161.8,92.4 171.7,92.4 171.7,98.4 181.1,98.4 181.1,92.4 184.6,92.4 
			184.6,92.2 195,92.2 195,97.8 215.9,97.8 215.9,78.8 215.9,78.8 215.9,5 		"/>
		<polygon class="st0" points="217,5.5 217,98.2 251.8,98.2 251.8,98.3 263.9,98.3 263.9,92.4 270.2,92.4 270.2,65.5 263.9,65.5 
			263.9,65.5 256.1,65.5 256.1,5.5 		"/>
		<polygon class="st0" points="96.7,90 96.2,90 96.2,98.2 152.8,98.2 152.8,92.9 160.3,92.9 160.3,63.8 175.7,63.8 175.7,5.5 
			160.3,5.5 139.4,5.5 96.7,5.5 		"/>
</svg>
