<svg width="1390" height="1986" viewBox="0 0 1390 1986" fill="none" xmlns="http://www.w3.org/2000/svg">
<path d="M239.188 1179.8H282.688V1158.3H239.188V1179.8Z" stroke="#B7ACA9" stroke-width="0.25" stroke-miterlimit="10"/>
<path d="M284.034 1179.8H327.534V1158.3H284.034V1179.8Z" stroke="#B7ACA9" stroke-width="0.25" stroke-miterlimit="10"/>
<path d="M328.411 1195.88H362.211V1158.38H328.411V1195.88Z" stroke="#B7ACA9" stroke-width="0.25" stroke-miterlimit="10"/>
<path d="M281.196 1719.71H301.696V1689.31H281.196V1719.71Z" stroke="#B7ACA9" stroke-width="0.25" stroke-miterlimit="10"/>
<path d="M263.502 1748.2H301.802V1720.2H263.502V1748.2Z" stroke="#B7ACA9" stroke-width="0.25" stroke-miterlimit="10"/>
<path d="M723.193 1639.72H771.693V1613.92H723.193V1639.72Z" stroke="#B7ACA9" stroke-width="0.25" stroke-miterlimit="10"/>
<path d="M678.701 1639.72H720.501V1613.92H678.701V1639.72Z" stroke="#B7ACA9" stroke-width="0.25" stroke-miterlimit="10"/>
<path d="M333.874 1667.11H362.874V1642.41H333.874V1667.11Z" stroke="#B7ACA9" stroke-width="0.25" stroke-miterlimit="10"/>
<path d="M264.318 1654.01H301.718V1626.01H264.318V1654.01Z" stroke="#B7ACA9" stroke-width="0.25" stroke-miterlimit="10"/>
<path d="M281.196 1687.77H301.696V1655.67H281.196V1687.77Z" stroke="#B7ACA9" stroke-width="0.25" stroke-miterlimit="10"/>
<path d="M341.7 1625.2H332.7H314.9H305.9V1651.9H332.7V1641.3H341.7V1625.2Z" stroke="#B7ACA9" stroke-width="0.25" stroke-miterlimit="10"/>
<path d="M712.686 1595.11H770.886V1574.21H712.686V1595.11Z" stroke="#B7ACA9" stroke-width="0.25" stroke-miterlimit="10"/>
<path d="M679.218 1611.93H711.818V1574.23H679.218V1611.93Z" stroke="#B7ACA9" stroke-width="0.25" stroke-miterlimit="10"/>
<path d="M1247.6 213.801H1229.1V221.401H1211.1V255.301H1247.6V226.001V213.801Z" stroke="#B7ACA9" stroke-width="0.25" stroke-miterlimit="10"/>
<path d="M1194.5 258.801H1143.6V281.501H1194.5V258.801Z" stroke="#B7ACA9" stroke-width="0.25" stroke-miterlimit="10"/>
<path d="M1177.2 221.398H1143.6V257.798H1177.2V221.398Z" stroke="#B7ACA9" stroke-width="0.25" stroke-miterlimit="10"/>
<path d="M1125.9 230.5H1095.2V257.5H1125.9V230.5Z" stroke="#B7ACA9" stroke-width="0.25" stroke-miterlimit="10"/>
<path d="M1125.9 204.398H1095.2V230.398H1125.9V204.398Z" stroke="#B7ACA9" stroke-width="0.25" stroke-miterlimit="10"/>
<path d="M1143.7 176.801H1095.2V203.501H1143.7V176.801Z" stroke="#B7ACA9" stroke-width="0.25" stroke-miterlimit="10"/>
<path d="M1195.1 176.801H1145.1V203.501H1195.1V176.801Z" stroke="#B7ACA9" stroke-width="0.25" stroke-miterlimit="10"/>
<path d="M1196.3 176.801V203.501H1229.3V213.101H1247.6V203.501V186.401V176.801H1196.3Z" stroke="#B7ACA9" stroke-width="0.25" stroke-miterlimit="10"/>
<path d="M1209.8 221.398H1178V257.798H1209.8V221.398Z" stroke="#B7ACA9" stroke-width="0.25" stroke-miterlimit="10"/>
<path d="M1208.6 385.398H1155.3V410.498H1208.6V385.398Z" stroke="#B7ACA9" stroke-width="0.25" stroke-miterlimit="10"/>
<path d="M1208.6 411.398H1155.3V435.598H1208.6V411.398Z" stroke="#B7ACA9" stroke-width="0.25" stroke-miterlimit="10"/>
<path d="M1208.6 436.699H1155.3V460.899H1208.6V436.699Z" stroke="#B7ACA9" stroke-width="0.25" stroke-miterlimit="10"/>
<path d="M1191 481.898H1156V509.998H1191V481.898Z" stroke="#B7ACA9" stroke-width="0.25" stroke-miterlimit="10"/>
<path d="M1225.1 481.898H1191.9V509.998H1225.1V481.898Z" stroke="#B7ACA9" stroke-width="0.25" stroke-miterlimit="10"/>
<path d="M1259.7 462.801H1226.5V510.001H1259.7V462.801Z" stroke="#B7ACA9" stroke-width="0.25" stroke-miterlimit="10"/>
<path d="M1259.7 411.699H1226.5V461.399H1259.7V411.699Z" stroke="#B7ACA9" stroke-width="0.25" stroke-miterlimit="10"/>
<path d="M1259.7 359.5H1226.5V410.6H1259.7V359.5Z" stroke="#B7ACA9" stroke-width="0.25" stroke-miterlimit="10"/>
<path d="M1259.7 307.102H1226.5V358.202H1259.7V307.102Z" stroke="#B7ACA9" stroke-width="0.25" stroke-miterlimit="10"/>
<path d="M289.8 633.5H240.2V672H289.8V633.5Z" stroke="#B7ACA9" stroke-width="0.25" stroke-miterlimit="10"/>
<path d="M342.6 633.5H290.7V654.9H342.6V633.5Z" stroke="#B7ACA9" stroke-width="0.25" stroke-miterlimit="10"/>
<path d="M325.596 715.849V672.449H302.996V715.849H325.596Z" stroke="#B7ACA9" stroke-width="0.25" stroke-miterlimit="10"/>
<path d="M343.203 745.964V716.664H303.003V745.964H343.203Z" stroke="#B7ACA9" stroke-width="0.25" stroke-miterlimit="10"/>
<path d="M1016.3 122.301H990.9V166.401H1016.3V122.301Z" stroke="#B7ACA9" stroke-width="0.25" stroke-miterlimit="10"/>
<path d="M1040.5 125.199H1016.8V183.699H1040.5V125.199Z" stroke="#B7ACA9" stroke-width="0.25" stroke-miterlimit="10"/>
<path d="M1038.1 184.199H987.4H984.9V204.499H987.4V210.099H1040.6V184.199H1038.1Z" stroke="#B7ACA9" stroke-width="0.25" stroke-miterlimit="10"/>
<path d="M681.3 122.898H640.3V164.698H681.3V122.898Z" stroke="#B7ACA9" stroke-width="0.25" stroke-miterlimit="10"/>
<path d="M710.5 122.898H685.1V164.698H710.5V122.898Z" stroke="#B7ACA9" stroke-width="0.25" stroke-miterlimit="10"/>
<path d="M736.7 97.6016H711.3V164.802H736.7V97.6016Z" stroke="#B7ACA9" stroke-width="0.25" stroke-miterlimit="10"/>
<path d="M761.3 97.6016H738.6V167.202H761.3V97.6016Z" stroke="#B7ACA9" stroke-width="0.25" stroke-miterlimit="10"/>
<path d="M786.7 97.6016H762.3V167.202H786.7V97.6016Z" stroke="#B7ACA9" stroke-width="0.25" stroke-miterlimit="10"/>
<path d="M812.3 101.398H787.9V167.098H812.3V101.398Z" stroke="#B7ACA9" stroke-width="0.25" stroke-miterlimit="10"/>
<path d="M838.1 104.102H813.7V167.102H838.1V104.102Z" stroke="#B7ACA9" stroke-width="0.25" stroke-miterlimit="10"/>
<path d="M863.6 104.102H839.2V167.102H863.6V104.102Z" stroke="#B7ACA9" stroke-width="0.25" stroke-miterlimit="10"/>
<path d="M888.9 109.301H864.5V167.101H888.9V109.301Z" stroke="#B7ACA9" stroke-width="0.25" stroke-miterlimit="10"/>
<path d="M888.9 183.602H858.2V221.502H888.9V183.602Z" stroke="#B7ACA9" stroke-width="0.25" stroke-miterlimit="10"/>
<path d="M839.5 183.602H814.9V221.502H839.5V183.602Z" stroke="#B7ACA9" stroke-width="0.25" stroke-miterlimit="10"/>
<path d="M813.7 183.602H788V221.502H813.7V183.602Z" stroke="#B7ACA9" stroke-width="0.25" stroke-miterlimit="10"/>
<path d="M785.8 250.301H746.6V288.201H785.8V250.301Z" stroke="#B7ACA9" stroke-width="0.25" stroke-miterlimit="10"/>
<path d="M785.8 337.199H746.6V375.099H785.8V337.199Z" stroke="#B7ACA9" stroke-width="0.25" stroke-miterlimit="10"/>
<path d="M1070.3 386.602H1016.1V409.602H1070.3V386.602Z" stroke="#B7ACA9" stroke-width="0.25" stroke-miterlimit="10"/>
<path d="M1070.3 411.199H1016.1V451.299H1070.3V411.199Z" stroke="#B7ACA9" stroke-width="0.25" stroke-miterlimit="10"/>
<path d="M1124.9 386.602H1070.7V409.602H1124.9V386.602Z" stroke="#B7ACA9" stroke-width="0.25" stroke-miterlimit="10"/>
<path d="M1208.6 283.699H1155.3V306.699H1208.6V283.699Z" stroke="#B7ACA9" stroke-width="0.25" stroke-miterlimit="10"/>
<path d="M1196.7 257.898V282.598H1208.8V288.898H1229.7V282.598V264.098V257.898H1196.7Z" stroke="#B7ACA9" stroke-width="0.25" stroke-miterlimit="10"/>
<path d="M1230.6 258V289.8H1226.2V306.6H1259.5V292.2V289.8V258H1230.6Z" stroke="#B7ACA9" stroke-width="0.25" stroke-miterlimit="10"/>
<path d="M1208.6 308.199H1155.3V332.799H1208.6V308.199Z" stroke="#B7ACA9" stroke-width="0.25" stroke-miterlimit="10"/>
<path d="M1208.6 333.898H1155.3V358.498H1208.6V333.898Z" stroke="#B7ACA9" stroke-width="0.25" stroke-miterlimit="10"/>
<path d="M1208.6 359.398H1155.3V384.498H1208.6V359.398Z" stroke="#B7ACA9" stroke-width="0.25" stroke-miterlimit="10"/>
<path d="M768.3 288.898H746.6V336.498H768.3V288.898Z" stroke="#B7ACA9" stroke-width="0.25" stroke-miterlimit="10"/>
<path d="M786.6 183.602H761.3V221.502H786.6V183.602Z" stroke="#B7ACA9" stroke-width="0.25" stroke-miterlimit="10"/>
<path d="M760.9 183.602H735.6V221.502H760.9V183.602Z" stroke="#B7ACA9" stroke-width="0.25" stroke-miterlimit="10"/>
<path d="M734.8 183.602H710.4V221.502H734.8V183.602Z" stroke="#B7ACA9" stroke-width="0.25" stroke-miterlimit="10"/>
<path d="M709.5 183.602H685.1V221.502H709.5V183.602Z" stroke="#B7ACA9" stroke-width="0.25" stroke-miterlimit="10"/>
<path d="M683.8 183.602H661.2V228.002H683.8V183.602Z" stroke="#B7ACA9" stroke-width="0.25" stroke-miterlimit="10"/>
<path d="M660.4 167.898H638.3V228.098H660.4V167.898Z" stroke="#B7ACA9" stroke-width="0.25" stroke-miterlimit="10"/>
<path d="M603.3 122.898H581.3V164.698H603.3V122.898Z" stroke="#B7ACA9" stroke-width="0.25" stroke-miterlimit="10"/>
<path d="M557 80H527.5V121.8H557V80Z" stroke="#B7ACA9" stroke-width="0.25" stroke-miterlimit="10"/>
<path d="M557 123.5H527.5V156.1H557V123.5Z" stroke="#B7ACA9" stroke-width="0.25" stroke-miterlimit="10"/>
<path d="M626.9 193.199H576.3V228.799H626.9V193.199Z" stroke="#B7ACA9" stroke-width="0.25" stroke-miterlimit="10"/>
<path d="M626.9 164.898H576.3V192.898H626.9V164.898Z" stroke="#B7ACA9" stroke-width="0.25" stroke-miterlimit="10"/>
<path d="M557 156.301H527.5V191.001H557V156.301Z" stroke="#B7ACA9" stroke-width="0.25" stroke-miterlimit="10"/>
<path d="M424.3 124.301H400.5V164.601H424.3V124.301Z" stroke="#B7ACA9" stroke-width="0.25" stroke-miterlimit="10"/>
<path d="M400.8 124.301H375V164.601H400.8V124.301Z" stroke="#B7ACA9" stroke-width="0.25" stroke-miterlimit="10"/>
<path d="M374.4 124.301H348.6V164.601H374.4V124.301Z" stroke="#B7ACA9" stroke-width="0.25" stroke-miterlimit="10"/>
<path d="M348.5 124.301H321.6V164.601H348.5V124.301Z" stroke="#B7ACA9" stroke-width="0.25" stroke-miterlimit="10"/>
<path d="M287.4 165.801H263.6V216.201H287.4V165.801Z" stroke="#B7ACA9" stroke-width="0.25" stroke-miterlimit="10"/>
<path d="M323.8 182.102H287.9V215.502H323.8V182.102Z" stroke="#B7ACA9" stroke-width="0.25" stroke-miterlimit="10"/>
<path d="M349 182.102H324.2V229.802H349V182.102Z" stroke="#B7ACA9" stroke-width="0.25" stroke-miterlimit="10"/>
<path d="M318.7 268.199H273V288.599H318.7V268.199Z" stroke="#B7ACA9" stroke-width="0.25" stroke-miterlimit="10"/>
<path d="M318.7 289.699H273V312.399H318.7V289.699Z" stroke="#B7ACA9" stroke-width="0.25" stroke-miterlimit="10"/>
<path d="M318.7 314.199H273V336.899H318.7V314.199Z" stroke="#B7ACA9" stroke-width="0.25" stroke-miterlimit="10"/>
<path d="M335.6 337.301H273V360.001H335.6V337.301Z" stroke="#B7ACA9" stroke-width="0.25" stroke-miterlimit="10"/>
<path d="M413.7 257.5H374V318.2H413.7V257.5Z" stroke="#B7ACA9" stroke-width="0.25" stroke-miterlimit="10"/>
<path d="M399.5 318.301H374V360.701H399.5V318.301Z" stroke="#B7ACA9" stroke-width="0.25" stroke-miterlimit="10"/>
<path d="M431.9 318.301H399V342.101H431.9V318.301Z" stroke="#B7ACA9" stroke-width="0.25" stroke-miterlimit="10"/>
<path d="M457.3 318.301H432.1V360.301H457.3V318.301Z" stroke="#B7ACA9" stroke-width="0.25" stroke-miterlimit="10"/>
<path d="M289.4 634.102H240.2V671.702H289.4V634.102Z" stroke="#B7ACA9" stroke-width="0.25" stroke-miterlimit="10"/>
<path d="M342.8 634.801H291V654.701H342.8V634.801Z" stroke="#B7ACA9" stroke-width="0.25" stroke-miterlimit="10"/>
<path d="M325.468 715.643V672.043H302.268V715.643H325.468Z" stroke="#B7ACA9" stroke-width="0.25" stroke-miterlimit="10"/>
<path d="M343.38 744.115V716.715H302.38V744.115H343.38Z" stroke="#B7ACA9" stroke-width="0.25" stroke-miterlimit="10"/>
<path d="M377.3 182.102H350V229.802H377.3V182.102Z" stroke="#B7ACA9" stroke-width="0.25" stroke-miterlimit="10"/>
<path d="M405 182.102H377.7V229.802H405V182.102Z" stroke="#B7ACA9" stroke-width="0.25" stroke-miterlimit="10"/>
<path d="M320.8 124.301H262.4V164.601H320.8V124.301Z" stroke="#B7ACA9" stroke-width="0.25" stroke-miterlimit="10"/>
<path d="M577.2 258.398H538.3V290.098H577.2V258.398Z" stroke="#B7ACA9" stroke-width="0.25" stroke-miterlimit="10"/>
<path d="M577.2 327.199H538.3V359.699H577.2V327.199Z" stroke="#B7ACA9" stroke-width="0.25" stroke-miterlimit="10"/>
<path d="M559.6 290H538.3V326.7H559.6V290Z" stroke="#B7ACA9" stroke-width="0.25" stroke-miterlimit="10"/>
<path d="M556.8 192.102H527.3V227.902H556.8V192.102Z" stroke="#B7ACA9" stroke-width="0.25" stroke-miterlimit="10"/>
<path d="M625.6 122.898H603.6V164.698H625.6V122.898Z" stroke="#B7ACA9" stroke-width="0.25" stroke-miterlimit="10"/>
</svg>
