<svg width="1986" height="1389" viewBox="0 0 1986 1389" fill="none" xmlns="http://www.w3.org/2000/svg">
<g clip-path="url(#clip0_1889_1320)">
<path d="M1577.36 1301.03H1623.06V1216.53H1577.36V1301.03Z" stroke="#969392" stroke-width="0.3895" stroke-miterlimit="10"/>
<path d="M1627.59 1301.07H1676.39V1216.57H1627.59V1301.07Z" stroke="#969392" stroke-width="0.4027" stroke-miterlimit="10"/>
<path d="M1675.69 1301.07H1724.39V1216.57H1675.69V1301.07Z" stroke="#969392" stroke-width="0.4022" stroke-miterlimit="10"/>
<path d="M1728.94 1301.11H1775.54V1216.61H1728.94V1301.11Z" stroke="#969392" stroke-width="0.3935" stroke-miterlimit="10"/>
<path d="M1781.03 1301.11H1828.73V1216.61H1781.03V1301.11Z" stroke="#969392" stroke-width="0.3981" stroke-miterlimit="10"/>
<path d="M1839.15 1088.65V1136.35H1923.65V1088.65H1839.15Z" stroke="#969392" stroke-width="0.3981" stroke-miterlimit="10"/>
<path d="M1834.75 1037.35V1085.05H1919.25V1037.35H1834.75Z" stroke="#969392" stroke-width="0.3981" stroke-miterlimit="10"/>
<path d="M1362.65 1301.12H1396.85V1216.62H1362.65V1301.12Z" stroke="#969392" stroke-width="0.3372" stroke-miterlimit="10"/>
<path d="M1396.91 1301.09H1432.71V1216.59H1396.91V1301.09Z" stroke="#969392" stroke-width="0.3449" stroke-miterlimit="10"/>
<path d="M1432.74 1301.12H1468.64V1216.62H1432.74V1301.12Z" stroke="#969392" stroke-width="0.3452" stroke-miterlimit="10"/>
<path d="M1362.62 1129.55H1396.82V1028.85H1362.62V1129.55Z" stroke="#969392" stroke-width="0.3682" stroke-miterlimit="10"/>
<path d="M1396.89 1129.52H1432.69V1028.82H1396.89V1129.52Z" stroke="#969392" stroke-width="0.3766" stroke-miterlimit="10"/>
<path d="M1432.71 1129.55H1468.61V1028.85H1432.71V1129.55Z" stroke="#969392" stroke-width="0.3769" stroke-miterlimit="10"/>
<path d="M1475.35 1129.49H1520.05V1028.79H1475.35V1129.49Z" stroke="#969392" stroke-width="0.421" stroke-miterlimit="10"/>
<path d="M1520.1 1129.54H1566.9V1028.84H1520.1V1129.54Z" stroke="#969392" stroke-width="0.4306" stroke-miterlimit="10"/>
<path d="M1475.35 1025.09H1520.05V924.392H1475.35V1025.09Z" stroke="#969392" stroke-width="0.421" stroke-miterlimit="10"/>
<path d="M1520.1 1025.14H1566.9V924.441H1520.1V1025.14Z" stroke="#969392" stroke-width="0.4306" stroke-miterlimit="10"/>
<path d="M1578.54 1025.18H1622.74V924.48H1578.54V1025.18Z" stroke="#969392" stroke-width="0.4187" stroke-miterlimit="10"/>
<path d="M1475.29 836.152H1519.99V724.352H1475.29V836.152Z" stroke="#969392" stroke-width="0.4435" stroke-miterlimit="10"/>
<path d="M1520.14 836.102H1566.94V724.302H1520.14V836.102Z" stroke="#969392" stroke-width="0.4536" stroke-miterlimit="10"/>
<path d="M1369.03 836.076H1417.83V727.976H1369.03V836.076Z" stroke="#969392" stroke-width="0.4554" stroke-miterlimit="10"/>
<path d="M1417.93 836.068H1468.93V727.968H1417.93V836.068Z" stroke="#969392" stroke-width="0.4658" stroke-miterlimit="10"/>
<path d="M1373.79 727.141H1417.89V619.041H1373.79V727.141Z" stroke="#969392" stroke-width="0.4332" stroke-miterlimit="10"/>
<path d="M1373.82 532.01H1417.92V442.21H1373.82V532.01Z" stroke="#969392" stroke-width="0.3949" stroke-miterlimit="10"/>
<path d="M1423.46 531.955H1469.16V442.155H1423.46V531.955Z" stroke="#969392" stroke-width="0.4017" stroke-miterlimit="10"/>
<path d="M1474.37 531.961H1520.97V442.161H1474.37V531.961Z" stroke="#969392" stroke-width="0.4059" stroke-miterlimit="10"/>
<path d="M1525.61 531.998H1572.21V442.198H1525.61V531.998Z" stroke="#969392" stroke-width="0.4059" stroke-miterlimit="10"/>
<path d="M1577.76 531.951H1624.36V442.151H1577.76V531.951Z" stroke="#969392" stroke-width="0.4059" stroke-miterlimit="10"/>
<path d="M1626.29 531.984H1672.89V442.184H1626.29V531.984Z" stroke="#969392" stroke-width="0.4059" stroke-miterlimit="10"/>
<path d="M1678.39 531.979H1726.49V442.179H1678.39V531.979Z" stroke="#969392" stroke-width="0.4123" stroke-miterlimit="10"/>
<path d="M1423.31 727.162H1468.91V619.062H1423.31V727.162Z" stroke="#969392" stroke-width="0.4405" stroke-miterlimit="10"/>
<path d="M1474.41 722.666H1520.01V619.066H1474.41V722.666Z" stroke="#969392" stroke-width="0.4313" stroke-miterlimit="10"/>
<path d="M1526.38 722.637H1571.98V619.037H1526.38V722.637Z" stroke="#969392" stroke-width="0.4313" stroke-miterlimit="10"/>
<path d="M1578.53 836.158H1620.93V742.658H1578.53V836.158Z" stroke="#969392" stroke-width="0.395" stroke-miterlimit="10"/>
<path d="M1642.35 783.55V827.75H1717.65V783.55H1642.35Z" stroke="#969392" stroke-width="0.3621" stroke-miterlimit="10"/>
<path d="M1642.35 833.95V878.15H1717.65V833.95H1642.35Z" stroke="#969392" stroke-width="0.3621" stroke-miterlimit="10"/>
<path d="M1642.35 889.05V933.25H1717.65V889.05H1642.35Z" stroke="#969392" stroke-width="0.3621" stroke-miterlimit="10"/>
<path d="M1804.25 889.05V933.25H1878.25V889.05H1804.25Z" stroke="#969392" stroke-width="0.359" stroke-miterlimit="10"/>
<path d="M1804.25 833.05V877.25H1878.25V833.05H1804.25Z" stroke="#969392" stroke-width="0.359" stroke-miterlimit="10"/>
<path d="M1804.25 783.15V827.35H1878.25V783.15H1804.25Z" stroke="#969392" stroke-width="0.359" stroke-miterlimit="10"/>
<path d="M1804.25 732.249V776.449H1878.25V732.249H1804.25Z" stroke="#969392" stroke-width="0.359" stroke-miterlimit="10"/>
<path d="M1792.75 574.05V609.75H1878.35V574.05H1792.75Z" stroke="#969392" stroke-width="0.3468" stroke-miterlimit="10"/>
<path d="M1792.75 536.95V572.65H1878.35V536.95H1792.75Z" stroke="#969392" stroke-width="0.3468" stroke-miterlimit="10"/>
<path d="M1642.35 938.549V976.949H1717.65V938.549H1642.35Z" stroke="#969392" stroke-width="0.3373" stroke-miterlimit="10"/>
<path d="M1642.35 977.55V1022.25H1717.65V977.55H1642.35Z" stroke="#969392" stroke-width="0.364" stroke-miterlimit="10"/>
<path d="M1369.2 1025.14H1416.1V924.441H1369.2V1025.14Z" stroke="#969392" stroke-width="0.4313" stroke-miterlimit="10"/>
<path d="M1416.21 1025.15H1465.31V924.45H1416.21V1025.15Z" stroke="#969392" stroke-width="0.4411" stroke-miterlimit="10"/>
<path d="M1581.26 1129.5H1622.16V1028.8H1581.26V1129.5Z" stroke="#969392" stroke-width="0.4024" stroke-miterlimit="10"/>
<path d="M1474.75 1301.13H1520.75V1216.63H1474.75V1301.13Z" stroke="#969392" stroke-width="0.391" stroke-miterlimit="10"/>
<path d="M1521.17 1301.05H1566.87V1216.55H1521.17V1301.05Z" stroke="#969392" stroke-width="0.3895" stroke-miterlimit="10"/>
<path d="M719.592 233.279H765.492V145.379H719.592V233.279Z" stroke="#969392" stroke-width="0.5045" stroke-miterlimit="10"/>
<path d="M668.084 233.273H713.984V145.373H668.084V233.273Z" stroke="#969392" stroke-width="0.5045" stroke-miterlimit="10"/>
<path d="M616.591 233.279H664.391V145.379H616.591V233.279Z" stroke="#969392" stroke-width="0.5151" stroke-miterlimit="10"/>
<path d="M382.453 858.75V901.25H457.353V858.75H382.453Z" stroke="#969392" stroke-width="0.4483" stroke-miterlimit="10"/>
<path d="M363.75 817.149V857.449H457.35V817.149H363.75Z" stroke="#969392" stroke-width="0.4881" stroke-miterlimit="10"/>
<path d="M381.852 758.55V809.85H457.352V758.55H381.852Z" stroke="#969392" stroke-width="0.4947" stroke-miterlimit="10"/>
<path d="M381.852 708.55V757.35H457.352V708.55H381.852Z" stroke="#969392" stroke-width="0.4823" stroke-miterlimit="10"/>
<path d="M1273.46 574.943V527.543H1188.66V574.943H1273.46Z" stroke="#969392" stroke-width="0.3977" stroke-miterlimit="10"/>
<path d="M1273.46 623.677V576.277H1188.66V623.677H1273.46Z" stroke="#969392" stroke-width="0.3977" stroke-miterlimit="10"/>
<path d="M1273.46 678.047V630.646H1188.66V678.047H1273.46Z" stroke="#969392" stroke-width="0.3977" stroke-miterlimit="10"/>
<path d="M1273.46 725.779V684.879H1188.66V725.779H1273.46Z" stroke="#969392" stroke-width="0.3694" stroke-miterlimit="10"/>
<path d="M1273.46 780.932V732.932H1188.66V780.932H1273.46Z" stroke="#969392" stroke-width="0.4001" stroke-miterlimit="10"/>
<path d="M1188.48 678.103V637.303H1103.68V678.103H1188.48Z" stroke="#969392" stroke-width="0.3687" stroke-miterlimit="10"/>
<path d="M1188.48 725.831V685.031H1103.68V725.831H1188.48Z" stroke="#969392" stroke-width="0.3687" stroke-miterlimit="10"/>
<path d="M1273.46 828.161V781.061H1188.66V828.161H1273.46Z" stroke="#969392" stroke-width="0.3963" stroke-miterlimit="10"/>
<path d="M1188.48 828.136V781.236H1103.68V828.136H1188.48Z" stroke="#969392" stroke-width="0.3956" stroke-miterlimit="10"/>
<path d="M1273.46 871.236V834.936H1188.66V871.236H1273.46Z" stroke="#969392" stroke-width="0.3481" stroke-miterlimit="10"/>
<path d="M1188.48 871.272V835.072H1103.68V871.272H1188.48Z" stroke="#969392" stroke-width="0.3474" stroke-miterlimit="10"/>
<path d="M1273.46 907.345V871.045H1188.66V907.345H1273.46Z" stroke="#969392" stroke-width="0.3481" stroke-miterlimit="10"/>
<path d="M1188.48 907.38V871.18H1103.68V907.38H1188.48Z" stroke="#969392" stroke-width="0.3474" stroke-miterlimit="10"/>
<path d="M1273.46 943.204V906.904H1188.66V943.204H1273.46Z" stroke="#969392" stroke-width="0.3481" stroke-miterlimit="10"/>
<path d="M1188.48 943.239V907.039H1103.68V943.239H1188.48Z" stroke="#969392" stroke-width="0.3474" stroke-miterlimit="10"/>
<path d="M1273.46 979.56V943.26H1188.66V979.56H1273.46Z" stroke="#969392" stroke-width="0.3481" stroke-miterlimit="10"/>
<path d="M1188.48 979.595V943.395H1103.68V979.595H1188.48Z" stroke="#969392" stroke-width="0.3474" stroke-miterlimit="10"/>
<path d="M1050.41 1161.24H1093.11V1086.04H1050.41V1161.24Z" stroke="#969392" stroke-width="0.3554" stroke-miterlimit="10"/>
<path d="M1050.43 1085.87H1092.93V1010.67H1050.43V1085.87Z" stroke="#969392" stroke-width="0.3547" stroke-miterlimit="10"/>
<path d="M1188.48 780.652V732.852H1103.68V780.652H1188.48Z" stroke="#969392" stroke-width="0.3993" stroke-miterlimit="10"/>
<path d="M1111.88 485.168H1069.18V586.768H1111.88V485.168Z" stroke="#969392" stroke-width="0.4132" stroke-miterlimit="10"/>
<path d="M1274.3 521.218V478.518H1189.5V521.218H1274.3Z" stroke="#969392" stroke-width="0.3774" stroke-miterlimit="10"/>
<path d="M839.783 1156.74H884.883V1067.24H839.783V1156.74Z" stroke="#969392" stroke-width="0.5048" stroke-miterlimit="10"/>
<path d="M892.551 1163.29H933.551V1077.99H892.551V1163.29Z" stroke="#969392" stroke-width="0.4701" stroke-miterlimit="10"/>
<path d="M805.551 976.75V1014.75H881.051V976.75H805.551Z" stroke="#969392" stroke-width="0.4255" stroke-miterlimit="10"/>
<path d="M805.551 938.75V976.75H881.051V938.75H805.551Z" stroke="#969392" stroke-width="0.4255" stroke-miterlimit="10"/>
<path d="M805.453 893.051V931.051H880.953V893.051H805.453Z" stroke="#969392" stroke-width="0.4256" stroke-miterlimit="10"/>
<path d="M805.453 855.15V893.15H880.953V855.15H805.453Z" stroke="#969392" stroke-width="0.4256" stroke-miterlimit="10"/>
<path d="M805.453 817.15V855.15H880.953V817.15H805.453Z" stroke="#969392" stroke-width="0.4256" stroke-miterlimit="10"/>
<path d="M805.453 648.75V686.75H880.953V648.75H805.453Z" stroke="#969392" stroke-width="0.4256" stroke-miterlimit="10"/>
<path d="M805.453 610.85V648.85H880.953V610.85H805.453Z" stroke="#969392" stroke-width="0.4256" stroke-miterlimit="10"/>
<path d="M805.453 572.85V610.85H880.953V572.85H805.453Z" stroke="#969392" stroke-width="0.4256" stroke-miterlimit="10"/>
<path d="M931.95 559.25H895.25V644.95H931.95V559.25Z" stroke="#969392" stroke-width="0.4457" stroke-miterlimit="10"/>
<path d="M931.907 485.104H895.207V559.203H931.907V485.104Z" stroke="#969392" stroke-width="0.4144" stroke-miterlimit="10"/>
<path d="M815.559 317.072H769.559V397.772H815.559V317.072Z" stroke="#969392" stroke-width="0.4842" stroke-miterlimit="10"/>
<path d="M765.069 320.91H717.969V397.81H765.069V320.91Z" stroke="#969392" stroke-width="0.4784" stroke-miterlimit="10"/>
<path d="M982.564 485.113H943.664V592.113H982.564V485.113Z" stroke="#969392" stroke-width="0.4" stroke-miterlimit="10"/>
<path d="M1018.39 485.188H983.691V592.188H1018.39V485.188Z" stroke="#969392" stroke-width="0.4" stroke-miterlimit="10"/>
<path d="M1057.13 485.145H1019.13V592.145H1057.13V485.145Z" stroke="#969392" stroke-width="0.4" stroke-miterlimit="10"/>
<path d="M805.453 770.35V808.35H880.953V770.35H805.453Z" stroke="#969392" stroke-width="0.4256" stroke-miterlimit="10"/>
<path d="M805.453 732.449V770.449H880.953V732.449H805.453Z" stroke="#969392" stroke-width="0.4256" stroke-miterlimit="10"/>
<path d="M805.453 694.551V732.551H880.953V694.551H805.453Z" stroke="#969392" stroke-width="0.4256" stroke-miterlimit="10"/>
<path d="M805.453 528.25V566.25H880.953V528.25H805.453Z" stroke="#969392" stroke-width="0.4256" stroke-miterlimit="10"/>
<path d="M805.453 490.25V528.25H880.953V490.25H805.453Z" stroke="#969392" stroke-width="0.4256" stroke-miterlimit="10"/>
<path d="M379.352 644.75V682.75H457.352V644.75H379.352Z" stroke="#969392" stroke-width="0.4323" stroke-miterlimit="10"/>
<path d="M379.352 606.051V644.051H457.352V606.051H379.352Z" stroke="#969392" stroke-width="0.4323" stroke-miterlimit="10"/>
<path d="M382.852 554.551V599.551H457.352V554.551H382.852Z" stroke="#969392" stroke-width="0.46" stroke-miterlimit="10"/>
<path d="M379.652 460.75V496.75H454.152V460.75H379.652Z" stroke="#969392" stroke-width="0.4116" stroke-miterlimit="10"/>
<path d="M379.652 423.449V459.449H454.152V423.449H379.652Z" stroke="#969392" stroke-width="0.4116" stroke-miterlimit="10"/>
<path d="M455.709 405.906H500.609V330.906H455.709V405.906Z" stroke="#969392" stroke-width="0.4614" stroke-miterlimit="10"/>
<path d="M455.686 329.93H500.586V254.93H455.686V329.93Z" stroke="#969392" stroke-width="0.4614" stroke-miterlimit="10"/>
<path d="M505.47 405.867H548.07V330.867H505.47V405.867Z" stroke="#969392" stroke-width="0.4493" stroke-miterlimit="10"/>
<path d="M626.738 392.76H663.238V317.76H626.738V392.76Z" stroke="#969392" stroke-width="0.416" stroke-miterlimit="10"/>
<path d="M668.01 392.83H714.91V317.83H668.01V392.83Z" stroke="#969392" stroke-width="0.4712" stroke-miterlimit="10"/>
<path d="M505.447 329.891H548.047V254.891H505.447V329.891Z" stroke="#969392" stroke-width="0.4493" stroke-miterlimit="10"/>
<path d="M307.352 554.551V599.551H381.852V554.551H307.352Z" stroke="#969392" stroke-width="0.46" stroke-miterlimit="10"/>
<path d="M382.852 502.949V547.949H457.352V502.949H382.852Z" stroke="#969392" stroke-width="0.46" stroke-miterlimit="10"/>
<path d="M307.352 502.949V547.949H381.852V502.949H307.352Z" stroke="#969392" stroke-width="0.46" stroke-miterlimit="10"/>
<path d="M73.8516 1046.75V1129.35H121.552V1046.75H73.8516Z" stroke="#969392" stroke-width="0.4987" stroke-miterlimit="10"/>
<path d="M82.3516 964.15V1045.65H121.552V964.15H82.3516Z" stroke="#969392" stroke-width="0.4987" stroke-miterlimit="10"/>
<path d="M396.352 1056.75V1130.75H435.952V1056.75H396.352Z" stroke="#969392" stroke-width="0.4301" stroke-miterlimit="10"/>
<path d="M364.25 1020.25V1055.45H457.35V1020.25H364.25Z" stroke="#969392" stroke-width="0.4548" stroke-miterlimit="10"/>
<path d="M545.352 986.949V1033.95H630.052V986.949H545.352Z" stroke="#969392" stroke-width="0.5011" stroke-miterlimit="10"/>
<path d="M545.352 938.949V985.949H630.052V938.949H545.352Z" stroke="#969392" stroke-width="0.5011" stroke-miterlimit="10"/>
<path d="M545.352 893.051V931.051H630.052V893.051H545.352Z" stroke="#969392" stroke-width="0.4506" stroke-miterlimit="10"/>
<path d="M545.352 855.15V893.15H630.052V855.15H545.352Z" stroke="#969392" stroke-width="0.4506" stroke-miterlimit="10"/>
<path d="M545.352 817.15V855.15H630.052V817.15H545.352Z" stroke="#969392" stroke-width="0.4506" stroke-miterlimit="10"/>
<path d="M633.152 893.051V931.051H717.852V893.051H633.152Z" stroke="#969392" stroke-width="0.4506" stroke-miterlimit="10"/>
<path d="M633.152 855.15V893.15H717.852V855.15H633.152Z" stroke="#969392" stroke-width="0.4506" stroke-miterlimit="10"/>
<path d="M633.152 976.75V1014.75H717.852V976.75H633.152Z" stroke="#969392" stroke-width="0.4506" stroke-miterlimit="10"/>
<path d="M633.152 938.75V976.75H717.852V938.75H633.152Z" stroke="#969392" stroke-width="0.4506" stroke-miterlimit="10"/>
<path d="M633.152 817.15V855.15H717.852V817.15H633.152Z" stroke="#969392" stroke-width="0.4506" stroke-miterlimit="10"/>
<path d="M545.352 770.65V808.65H630.052V770.65H545.352Z" stroke="#969392" stroke-width="0.4506" stroke-miterlimit="10"/>
<path d="M545.352 732.65V770.65H630.052V732.65H545.352Z" stroke="#969392" stroke-width="0.4506" stroke-miterlimit="10"/>
<path d="M545.352 694.75V732.75H630.052V694.75H545.352Z" stroke="#969392" stroke-width="0.4506" stroke-miterlimit="10"/>
<path d="M545.352 648.75V686.75H630.052V648.75H545.352Z" stroke="#969392" stroke-width="0.4506" stroke-miterlimit="10"/>
<path d="M545.352 610.85V648.85H630.052V610.85H545.352Z" stroke="#969392" stroke-width="0.4506" stroke-miterlimit="10"/>
<path d="M545.352 572.85V610.85H630.052V572.85H545.352Z" stroke="#969392" stroke-width="0.4506" stroke-miterlimit="10"/>
<path d="M633.152 648.75V686.75H717.852V648.75H633.152Z" stroke="#969392" stroke-width="0.4506" stroke-miterlimit="10"/>
<path d="M633.152 610.85V648.85H717.852V610.85H633.152Z" stroke="#969392" stroke-width="0.4506" stroke-miterlimit="10"/>
<path d="M633.152 572.85V610.85H717.852V572.85H633.152Z" stroke="#969392" stroke-width="0.4506" stroke-miterlimit="10"/>
<path d="M633.152 770.35V808.35H717.852V770.35H633.152Z" stroke="#969392" stroke-width="0.4506" stroke-miterlimit="10"/>
<path d="M633.152 732.449V770.449H717.852V732.449H633.152Z" stroke="#969392" stroke-width="0.4506" stroke-miterlimit="10"/>
<path d="M633.152 694.551V732.551H717.852V694.551H633.152Z" stroke="#969392" stroke-width="0.4506" stroke-miterlimit="10"/>
<path d="M545.352 528.25V566.25H630.052V528.25H545.352Z" stroke="#969392" stroke-width="0.4506" stroke-miterlimit="10"/>
<path d="M545.352 490.25V528.25H630.052V490.25H545.352Z" stroke="#969392" stroke-width="0.4506" stroke-miterlimit="10"/>
<path d="M633.152 528.25V566.25H717.852V528.25H633.152Z" stroke="#969392" stroke-width="0.4506" stroke-miterlimit="10"/>
<path d="M633.152 490.25V528.25H717.852V490.25H633.152Z" stroke="#969392" stroke-width="0.4506" stroke-miterlimit="10"/>
<path d="M364.25 983.95V1019.15H457.35V983.95H364.25Z" stroke="#969392" stroke-width="0.4548" stroke-miterlimit="10"/>
<path d="M382.453 947.65V982.85H457.353V947.65H382.453Z" stroke="#969392" stroke-width="0.4079" stroke-miterlimit="10"/>
</g>
<defs>
<clipPath id="clip0_1889_1320">
<rect width="1388.6" height="1985.1" fill="white" transform="matrix(0 -1 1 0 0.75 1388.85)"/>
</clipPath>
</defs>
</svg>
