<svg width="1986" height="1389" viewBox="0 0 1986 1389" fill="none" xmlns="http://www.w3.org/2000/svg">
<g clip-path="url(#clip0_1889_1216)">
<path d="M1180.55 1150.16V1106.66H1159.05V1150.16H1180.55Z" stroke="#B7ACA9" stroke-width="0.25" stroke-miterlimit="10"/>
<path d="M1180.55 1105.32V1061.82H1159.05V1105.32H1180.55Z" stroke="#B7ACA9" stroke-width="0.25" stroke-miterlimit="10"/>
<path d="M1196.63 1060.94V1027.14H1159.13V1060.94H1196.63Z" stroke="#B7ACA9" stroke-width="0.25" stroke-miterlimit="10"/>
<path d="M1720.46 1108.15V1087.65H1690.06V1108.15H1720.46Z" stroke="#B7ACA9" stroke-width="0.25" stroke-miterlimit="10"/>
<path d="M1748.95 1125.85V1087.55H1720.95V1125.85H1748.95Z" stroke="#B7ACA9" stroke-width="0.25" stroke-miterlimit="10"/>
<path d="M1640.47 666.156V617.656H1614.67V666.156H1640.47Z" stroke="#B7ACA9" stroke-width="0.25" stroke-miterlimit="10"/>
<path d="M1640.47 710.65V668.85H1614.67V710.65H1640.47Z" stroke="#B7ACA9" stroke-width="0.25" stroke-miterlimit="10"/>
<path d="M1667.86 1055.48V1026.48H1643.16V1055.48H1667.86Z" stroke="#B7ACA9" stroke-width="0.25" stroke-miterlimit="10"/>
<path d="M1654.76 1125.03V1087.63H1626.76V1125.03H1654.76Z" stroke="#B7ACA9" stroke-width="0.25" stroke-miterlimit="10"/>
<path d="M1688.52 1108.15V1087.65H1656.42V1108.15H1688.52Z" stroke="#B7ACA9" stroke-width="0.25" stroke-miterlimit="10"/>
<path d="M1625.95 1047.65V1056.65V1074.45V1083.45H1652.65V1056.65H1642.05V1047.65H1625.95Z" stroke="#B7ACA9" stroke-width="0.25" stroke-miterlimit="10"/>
<path d="M1595.86 676.663V618.463H1574.96V676.663H1595.86Z" stroke="#B7ACA9" stroke-width="0.25" stroke-miterlimit="10"/>
<path d="M1612.68 710.133V677.533H1574.98V710.133H1612.68Z" stroke="#B7ACA9" stroke-width="0.25" stroke-miterlimit="10"/>
<path d="M214.551 141.75V160.25H222.151V178.25H256.051V141.75H226.751H214.551Z" stroke="#B7ACA9" stroke-width="0.25" stroke-miterlimit="10"/>
<path d="M259.551 194.85V245.75H282.251V194.85H259.551Z" stroke="#B7ACA9" stroke-width="0.25" stroke-miterlimit="10"/>
<path d="M222.15 212.15V245.75H258.55V212.15H222.15Z" stroke="#B7ACA9" stroke-width="0.25" stroke-miterlimit="10"/>
<path d="M231.25 263.45V294.15H258.25V263.45H231.25Z" stroke="#B7ACA9" stroke-width="0.25" stroke-miterlimit="10"/>
<path d="M205.15 263.45V294.15H231.15V263.45H205.15Z" stroke="#B7ACA9" stroke-width="0.25" stroke-miterlimit="10"/>
<path d="M177.551 245.65V294.15H204.251V245.65H177.551Z" stroke="#B7ACA9" stroke-width="0.25" stroke-miterlimit="10"/>
<path d="M177.551 194.25V244.25H204.251V194.25H177.551Z" stroke="#B7ACA9" stroke-width="0.25" stroke-miterlimit="10"/>
<path d="M177.551 193.051H204.251V160.051H213.851V141.751H204.251H187.151H177.551V193.051Z" stroke="#B7ACA9" stroke-width="0.25" stroke-miterlimit="10"/>
<path d="M222.15 179.55V211.35H258.55V179.55H222.15Z" stroke="#B7ACA9" stroke-width="0.25" stroke-miterlimit="10"/>
<path d="M386.15 180.751V234.051H411.25V180.751H386.15Z" stroke="#B7ACA9" stroke-width="0.25" stroke-miterlimit="10"/>
<path d="M412.15 180.751V234.051H436.35V180.751H412.15Z" stroke="#B7ACA9" stroke-width="0.25" stroke-miterlimit="10"/>
<path d="M437.449 180.751V234.051H461.649V180.751H437.449Z" stroke="#B7ACA9" stroke-width="0.25" stroke-miterlimit="10"/>
<path d="M482.65 198.35V233.35H510.75V198.35H482.65Z" stroke="#B7ACA9" stroke-width="0.25" stroke-miterlimit="10"/>
<path d="M482.65 164.249V197.449H510.75V164.249H482.65Z" stroke="#B7ACA9" stroke-width="0.25" stroke-miterlimit="10"/>
<path d="M463.551 129.65V162.85H510.751V129.65H463.551Z" stroke="#B7ACA9" stroke-width="0.25" stroke-miterlimit="10"/>
<path d="M412.449 129.65V162.85H462.149V129.65H412.449Z" stroke="#B7ACA9" stroke-width="0.25" stroke-miterlimit="10"/>
<path d="M360.25 129.65V162.85H411.35V129.65H360.25Z" stroke="#B7ACA9" stroke-width="0.25" stroke-miterlimit="10"/>
<path d="M307.85 129.65V162.85H358.95V129.65H307.85Z" stroke="#B7ACA9" stroke-width="0.25" stroke-miterlimit="10"/>
<path d="M634.25 1099.55V1149.15H672.75V1099.55H634.25Z" stroke="#B7ACA9" stroke-width="0.25" stroke-miterlimit="10"/>
<path d="M634.25 1046.75V1098.65H655.65V1046.75H634.25Z" stroke="#B7ACA9" stroke-width="0.25" stroke-miterlimit="10"/>
<path d="M716.601 1063.75H673.201V1086.35H716.601V1063.75Z" stroke="#B7ACA9" stroke-width="0.25" stroke-miterlimit="10"/>
<path d="M746.716 1046.15H717.416V1086.35H746.716V1046.15Z" stroke="#B7ACA9" stroke-width="0.25" stroke-miterlimit="10"/>
<path d="M123.051 373.049V398.449H167.151V373.049H123.051Z" stroke="#B7ACA9" stroke-width="0.25" stroke-miterlimit="10"/>
<path d="M125.949 348.851V372.551H184.449V348.851H125.949Z" stroke="#B7ACA9" stroke-width="0.25" stroke-miterlimit="10"/>
<path d="M184.949 351.249V401.949V404.449H205.249V401.949H210.849V348.749H184.949V351.249Z" stroke="#B7ACA9" stroke-width="0.25" stroke-miterlimit="10"/>
<path d="M123.65 708.051V749.051H165.45V708.051H123.65Z" stroke="#B7ACA9" stroke-width="0.25" stroke-miterlimit="10"/>
<path d="M123.65 678.85V704.25H165.45V678.85H123.65Z" stroke="#B7ACA9" stroke-width="0.25" stroke-miterlimit="10"/>
<path d="M98.3496 652.651V678.051H165.55V652.651H98.3496Z" stroke="#B7ACA9" stroke-width="0.25" stroke-miterlimit="10"/>
<path d="M98.3496 628.05V650.75H167.95V628.05H98.3496Z" stroke="#B7ACA9" stroke-width="0.25" stroke-miterlimit="10"/>
<path d="M98.3496 602.651V627.051H167.95V602.651H98.3496Z" stroke="#B7ACA9" stroke-width="0.25" stroke-miterlimit="10"/>
<path d="M102.15 577.049V601.449H167.85V577.049H102.15Z" stroke="#B7ACA9" stroke-width="0.25" stroke-miterlimit="10"/>
<path d="M104.85 551.25V575.65H167.85V551.25H104.85Z" stroke="#B7ACA9" stroke-width="0.25" stroke-miterlimit="10"/>
<path d="M104.85 525.75V550.15H167.85V525.75H104.85Z" stroke="#B7ACA9" stroke-width="0.25" stroke-miterlimit="10"/>
<path d="M110.051 500.45V524.85H167.851V500.45H110.051Z" stroke="#B7ACA9" stroke-width="0.25" stroke-miterlimit="10"/>
<path d="M184.35 500.45V531.15H222.25V500.45H184.35Z" stroke="#B7ACA9" stroke-width="0.25" stroke-miterlimit="10"/>
<path d="M184.35 549.849V574.449H222.25V549.849H184.35Z" stroke="#B7ACA9" stroke-width="0.25" stroke-miterlimit="10"/>
<path d="M184.35 575.65V601.35H222.25V575.65H184.35Z" stroke="#B7ACA9" stroke-width="0.25" stroke-miterlimit="10"/>
<path d="M251.051 603.55V642.75H288.951V603.55H251.051Z" stroke="#B7ACA9" stroke-width="0.25" stroke-miterlimit="10"/>
<path d="M337.949 603.55V642.75H375.849V603.55H337.949Z" stroke="#B7ACA9" stroke-width="0.25" stroke-miterlimit="10"/>
<path d="M387.35 319.05V373.25H410.35V319.05H387.35Z" stroke="#B7ACA9" stroke-width="0.25" stroke-miterlimit="10"/>
<path d="M411.949 319.05V373.25H452.049V319.05H411.949Z" stroke="#B7ACA9" stroke-width="0.25" stroke-miterlimit="10"/>
<path d="M387.35 264.45V318.65H410.35V264.45H387.35Z" stroke="#B7ACA9" stroke-width="0.25" stroke-miterlimit="10"/>
<path d="M284.449 180.751V234.051H307.449V180.751H284.449Z" stroke="#B7ACA9" stroke-width="0.25" stroke-miterlimit="10"/>
<path d="M258.65 192.65H283.35V180.55H289.65V159.65H283.35H264.85H258.65V192.65Z" stroke="#B7ACA9" stroke-width="0.25" stroke-miterlimit="10"/>
<path d="M258.75 158.75H290.55V163.15H307.35V129.85H292.95H290.55H258.75V158.75Z" stroke="#B7ACA9" stroke-width="0.25" stroke-miterlimit="10"/>
<path d="M308.949 180.751V234.051H333.549V180.751H308.949Z" stroke="#B7ACA9" stroke-width="0.25" stroke-miterlimit="10"/>
<path d="M334.65 180.751V234.051H359.25V180.751H334.65Z" stroke="#B7ACA9" stroke-width="0.25" stroke-miterlimit="10"/>
<path d="M360.15 180.751V234.051H385.25V180.751H360.15Z" stroke="#B7ACA9" stroke-width="0.25" stroke-miterlimit="10"/>
<path d="M289.65 621.05V642.75H337.25V621.05H289.65Z" stroke="#B7ACA9" stroke-width="0.25" stroke-miterlimit="10"/>
<path d="M184.35 602.751V628.051H222.25V602.751H184.35Z" stroke="#B7ACA9" stroke-width="0.25" stroke-miterlimit="10"/>
<path d="M184.35 628.45V653.75H222.25V628.45H184.35Z" stroke="#B7ACA9" stroke-width="0.25" stroke-miterlimit="10"/>
<path d="M184.35 654.549V678.949H222.25V654.549H184.35Z" stroke="#B7ACA9" stroke-width="0.25" stroke-miterlimit="10"/>
<path d="M184.35 679.85V704.25H222.25V679.85H184.35Z" stroke="#B7ACA9" stroke-width="0.25" stroke-miterlimit="10"/>
<path d="M184.35 705.55V728.15H228.75V705.55H184.35Z" stroke="#B7ACA9" stroke-width="0.25" stroke-miterlimit="10"/>
<path d="M168.65 728.951V751.051H228.85V728.951H168.65Z" stroke="#B7ACA9" stroke-width="0.25" stroke-miterlimit="10"/>
<path d="M123.65 786.051V808.051H165.45V786.051H123.65Z" stroke="#B7ACA9" stroke-width="0.25" stroke-miterlimit="10"/>
<path d="M80.75 832.35V861.85H122.55V832.35H80.75Z" stroke="#B7ACA9" stroke-width="0.25" stroke-miterlimit="10"/>
<path d="M124.25 832.35V861.85H156.85V832.35H124.25Z" stroke="#B7ACA9" stroke-width="0.25" stroke-miterlimit="10"/>
<path d="M193.949 762.451V813.051H229.549V762.451H193.949Z" stroke="#B7ACA9" stroke-width="0.25" stroke-miterlimit="10"/>
<path d="M165.65 762.451V813.051H193.65V762.451H165.65Z" stroke="#B7ACA9" stroke-width="0.25" stroke-miterlimit="10"/>
<path d="M157.051 832.35V861.85H191.751V832.35H157.051Z" stroke="#B7ACA9" stroke-width="0.25" stroke-miterlimit="10"/>
<path d="M125.051 965.05V988.85H165.351V965.05H125.051Z" stroke="#B7ACA9" stroke-width="0.25" stroke-miterlimit="10"/>
<path d="M125.051 988.55V1014.35H165.351V988.55H125.051Z" stroke="#B7ACA9" stroke-width="0.25" stroke-miterlimit="10"/>
<path d="M125.051 1014.95V1040.75H165.351V1014.95H125.051Z" stroke="#B7ACA9" stroke-width="0.25" stroke-miterlimit="10"/>
<path d="M125.051 1040.85V1067.75H165.351V1040.85H125.051Z" stroke="#B7ACA9" stroke-width="0.25" stroke-miterlimit="10"/>
<path d="M166.551 1101.95V1125.75H216.951V1101.95H166.551Z" stroke="#B7ACA9" stroke-width="0.25" stroke-miterlimit="10"/>
<path d="M182.85 1065.55V1101.45H216.25V1065.55H182.85Z" stroke="#B7ACA9" stroke-width="0.25" stroke-miterlimit="10"/>
<path d="M182.85 1040.35V1065.15H230.55V1040.35H182.85Z" stroke="#B7ACA9" stroke-width="0.25" stroke-miterlimit="10"/>
<path d="M268.949 1070.65V1116.35H289.349V1070.65H268.949Z" stroke="#B7ACA9" stroke-width="0.25" stroke-miterlimit="10"/>
<path d="M290.449 1070.65V1116.35H313.149V1070.65H290.449Z" stroke="#B7ACA9" stroke-width="0.25" stroke-miterlimit="10"/>
<path d="M314.949 1070.65V1116.35H337.649V1070.65H314.949Z" stroke="#B7ACA9" stroke-width="0.25" stroke-miterlimit="10"/>
<path d="M338.051 1053.75V1116.35H360.751V1053.75H338.051Z" stroke="#B7ACA9" stroke-width="0.25" stroke-miterlimit="10"/>
<path d="M258.25 975.65V1015.35H318.95V975.65H258.25Z" stroke="#B7ACA9" stroke-width="0.25" stroke-miterlimit="10"/>
<path d="M319.051 989.85V1015.35H361.451V989.85H319.051Z" stroke="#B7ACA9" stroke-width="0.25" stroke-miterlimit="10"/>
<path d="M319.051 957.45V990.35H342.851V957.45H319.051Z" stroke="#B7ACA9" stroke-width="0.25" stroke-miterlimit="10"/>
<path d="M319.051 932.05V957.25H361.051V932.05H319.051Z" stroke="#B7ACA9" stroke-width="0.25" stroke-miterlimit="10"/>
<path d="M634.85 1099.95V1149.15H672.45V1099.95H634.85Z" stroke="#B7ACA9" stroke-width="0.25" stroke-miterlimit="10"/>
<path d="M635.551 1046.55V1098.35H655.451V1046.55H635.551Z" stroke="#B7ACA9" stroke-width="0.25" stroke-miterlimit="10"/>
<path d="M716.395 1063.88H672.795V1087.08H716.395V1063.88Z" stroke="#B7ACA9" stroke-width="0.25" stroke-miterlimit="10"/>
<path d="M744.865 1045.97H717.465V1086.97H744.865V1045.97Z" stroke="#B7ACA9" stroke-width="0.25" stroke-miterlimit="10"/>
<path d="M182.85 1012.05V1039.35H230.55V1012.05H182.85Z" stroke="#B7ACA9" stroke-width="0.25" stroke-miterlimit="10"/>
<path d="M182.85 984.35V1011.65H230.55V984.35H182.85Z" stroke="#B7ACA9" stroke-width="0.25" stroke-miterlimit="10"/>
<path d="M125.051 1068.55V1126.95H165.351V1068.55H125.051Z" stroke="#B7ACA9" stroke-width="0.25" stroke-miterlimit="10"/>
<path d="M259.15 812.151V851.051H290.85V812.151H259.15Z" stroke="#B7ACA9" stroke-width="0.25" stroke-miterlimit="10"/>
<path d="M327.949 812.151V851.051H360.449V812.151H327.949Z" stroke="#B7ACA9" stroke-width="0.25" stroke-miterlimit="10"/>
<path d="M290.75 829.751V851.051H327.45V829.751H290.75Z" stroke="#B7ACA9" stroke-width="0.25" stroke-miterlimit="10"/>
<path d="M192.85 832.551V862.051H228.65V832.551H192.85Z" stroke="#B7ACA9" stroke-width="0.25" stroke-miterlimit="10"/>
<path d="M123.65 763.75V785.75H165.45V763.75H123.65Z" stroke="#B7ACA9" stroke-width="0.25" stroke-miterlimit="10"/>
</g>
<defs>
<clipPath id="clip0_1889_1216">
<rect width="1388.6" height="1985.1" fill="white" transform="matrix(0 -1 1 0 0.75 1388.85)"/>
</clipPath>
</defs>
</svg>
