<svg width="1390" height="1986" viewBox="0 0 1390 1986" fill="none" xmlns="http://www.w3.org/2000/svg">
<path d="M88.3165 1576.61V1622.31H172.817V1576.61H88.3165Z" stroke="#969392" stroke-width="0.3895" stroke-miterlimit="10"/>
<path d="M88.2792 1626.84V1675.64H172.779V1626.84H88.2792Z" stroke="#969392" stroke-width="0.4027" stroke-miterlimit="10"/>
<path d="M88.2807 1674.94V1723.64H172.781V1674.94H88.2807Z" stroke="#969392" stroke-width="0.4022" stroke-miterlimit="10"/>
<path d="M88.2362 1728.19V1774.79H172.736V1728.19H88.2362Z" stroke="#969392" stroke-width="0.3935" stroke-miterlimit="10"/>
<path d="M88.243 1780.28V1827.98H172.743V1780.28H88.243Z" stroke="#969392" stroke-width="0.3981" stroke-miterlimit="10"/>
<path d="M300.7 1838.4H253V1922.9H300.7V1838.4Z" stroke="#969392" stroke-width="0.3981" stroke-miterlimit="10"/>
<path d="M352 1834H304.3V1918.5H352V1834Z" stroke="#969392" stroke-width="0.3981" stroke-miterlimit="10"/>
<path d="M88.2263 1361.9V1396.1H172.726V1361.9H88.2263Z" stroke="#969392" stroke-width="0.3372" stroke-miterlimit="10"/>
<path d="M88.2584 1396.16V1431.96H172.758V1396.16H88.2584Z" stroke="#969392" stroke-width="0.3449" stroke-miterlimit="10"/>
<path d="M88.2304 1431.99V1467.89H172.73V1431.99H88.2304Z" stroke="#969392" stroke-width="0.3452" stroke-miterlimit="10"/>
<path d="M259.796 1361.87V1396.07H360.496V1361.87H259.796Z" stroke="#969392" stroke-width="0.3682" stroke-miterlimit="10"/>
<path d="M259.828 1396.14V1431.94H360.528V1396.14H259.828Z" stroke="#969392" stroke-width="0.3766" stroke-miterlimit="10"/>
<path d="M259.8 1431.96V1467.86H360.5V1431.96H259.8Z" stroke="#969392" stroke-width="0.3769" stroke-miterlimit="10"/>
<path d="M259.861 1474.6V1519.3H360.561V1474.6H259.861Z" stroke="#969392" stroke-width="0.421" stroke-miterlimit="10"/>
<path d="M259.812 1519.35V1566.15H360.512V1519.35H259.812Z" stroke="#969392" stroke-width="0.4306" stroke-miterlimit="10"/>
<path d="M364.259 1474.6V1519.3H464.959V1474.6H364.259Z" stroke="#969392" stroke-width="0.421" stroke-miterlimit="10"/>
<path d="M364.209 1519.35V1566.15H464.909V1519.35H364.209Z" stroke="#969392" stroke-width="0.4306" stroke-miterlimit="10"/>
<path d="M364.171 1577.79V1621.99H464.871V1577.79H364.171Z" stroke="#969392" stroke-width="0.4187" stroke-miterlimit="10"/>
<path d="M553.197 1474.54V1519.24H664.997V1474.54H553.197Z" stroke="#969392" stroke-width="0.4435" stroke-miterlimit="10"/>
<path d="M553.248 1519.39V1566.19H665.048V1519.39H553.248Z" stroke="#969392" stroke-width="0.4536" stroke-miterlimit="10"/>
<path d="M553.273 1368.28V1417.08H661.374V1368.28H553.273Z" stroke="#969392" stroke-width="0.4554" stroke-miterlimit="10"/>
<path d="M553.281 1417.18V1468.18H661.381V1417.18H553.281Z" stroke="#969392" stroke-width="0.4658" stroke-miterlimit="10"/>
<path d="M662.21 1373.04V1417.14H770.31V1373.04H662.21Z" stroke="#969392" stroke-width="0.4332" stroke-miterlimit="10"/>
<path d="M857.339 1373.07V1417.17H947.14V1373.07H857.339Z" stroke="#969392" stroke-width="0.3949" stroke-miterlimit="10"/>
<path d="M857.395 1422.71V1468.41H947.195V1422.71H857.395Z" stroke="#969392" stroke-width="0.4017" stroke-miterlimit="10"/>
<path d="M857.388 1473.62V1520.22H947.189V1473.62H857.388Z" stroke="#969392" stroke-width="0.4059" stroke-miterlimit="10"/>
<path d="M857.352 1524.86V1571.46H947.152V1524.86H857.352Z" stroke="#969392" stroke-width="0.4059" stroke-miterlimit="10"/>
<path d="M857.398 1577.01V1623.61H947.198V1577.01H857.398Z" stroke="#969392" stroke-width="0.4059" stroke-miterlimit="10"/>
<path d="M857.366 1625.54V1672.14H947.166V1625.54H857.366Z" stroke="#969392" stroke-width="0.4059" stroke-miterlimit="10"/>
<path d="M857.371 1677.64V1725.74H947.17V1677.64H857.371Z" stroke="#969392" stroke-width="0.4123" stroke-miterlimit="10"/>
<path d="M662.187 1422.56V1468.16H770.287V1422.56H662.187Z" stroke="#969392" stroke-width="0.4405" stroke-miterlimit="10"/>
<path d="M666.683 1473.66V1519.26H770.283V1473.66H666.683Z" stroke="#969392" stroke-width="0.4313" stroke-miterlimit="10"/>
<path d="M666.714 1525.63V1571.23H770.314V1525.63H666.714Z" stroke="#969392" stroke-width="0.4313" stroke-miterlimit="10"/>
<path d="M553.192 1577.78V1620.18H646.692V1577.78H553.192Z" stroke="#969392" stroke-width="0.395" stroke-miterlimit="10"/>
<path d="M605.8 1641.6H561.6V1716.9H605.8V1641.6Z" stroke="#969392" stroke-width="0.3621" stroke-miterlimit="10"/>
<path d="M555.4 1641.6H511.2V1716.9H555.4V1641.6Z" stroke="#969392" stroke-width="0.3621" stroke-miterlimit="10"/>
<path d="M500.3 1641.6H456.1V1716.9H500.3V1641.6Z" stroke="#969392" stroke-width="0.3621" stroke-miterlimit="10"/>
<path d="M500.3 1803.5H456.1V1877.5H500.3V1803.5Z" stroke="#969392" stroke-width="0.359" stroke-miterlimit="10"/>
<path d="M556.3 1803.5H512.1V1877.5H556.3V1803.5Z" stroke="#969392" stroke-width="0.359" stroke-miterlimit="10"/>
<path d="M606.2 1803.5H562V1877.5H606.2V1803.5Z" stroke="#969392" stroke-width="0.359" stroke-miterlimit="10"/>
<path d="M657.1 1803.5H612.9V1877.5H657.1V1803.5Z" stroke="#969392" stroke-width="0.359" stroke-miterlimit="10"/>
<path d="M815.3 1792H779.6V1877.6H815.3V1792Z" stroke="#969392" stroke-width="0.3468" stroke-miterlimit="10"/>
<path d="M852.4 1792H816.7V1877.6H852.4V1792Z" stroke="#969392" stroke-width="0.3468" stroke-miterlimit="10"/>
<path d="M450.8 1641.6H412.4V1716.9H450.8V1641.6Z" stroke="#969392" stroke-width="0.3373" stroke-miterlimit="10"/>
<path d="M411.8 1641.6H367.1V1716.9H411.8V1641.6Z" stroke="#969392" stroke-width="0.364" stroke-miterlimit="10"/>
<path d="M364.208 1368.45V1415.35H464.908V1368.45H364.208Z" stroke="#969392" stroke-width="0.4313" stroke-miterlimit="10"/>
<path d="M364.2 1415.46V1464.56H464.9V1415.46H364.2Z" stroke="#969392" stroke-width="0.4411" stroke-miterlimit="10"/>
<path d="M259.849 1580.51V1621.41H360.549V1580.51H259.849Z" stroke="#969392" stroke-width="0.4024" stroke-miterlimit="10"/>
<path d="M88.2228 1474V1520H172.723V1474H88.2228Z" stroke="#969392" stroke-width="0.391" stroke-miterlimit="10"/>
<path d="M88.3036 1520.42V1566.12H172.804V1520.42H88.3036Z" stroke="#969392" stroke-width="0.3895" stroke-miterlimit="10"/>
<path d="M1156.07 718.842V764.742H1243.97V718.842H1156.07Z" stroke="#969392" stroke-width="0.5045" stroke-miterlimit="10"/>
<path d="M1156.08 667.334V713.234H1243.98V667.334H1156.08Z" stroke="#969392" stroke-width="0.5045" stroke-miterlimit="10"/>
<path d="M1156.07 615.841V663.641H1243.97V615.841H1156.07Z" stroke="#969392" stroke-width="0.5151" stroke-miterlimit="10"/>
<path d="M530.6 381.703H488.1V456.603H530.6V381.703Z" stroke="#969392" stroke-width="0.4483" stroke-miterlimit="10"/>
<path d="M572.2 363H531.9V456.6H572.2V363Z" stroke="#969392" stroke-width="0.4881" stroke-miterlimit="10"/>
<path d="M630.8 381.102H579.5V456.602H630.8V381.102Z" stroke="#969392" stroke-width="0.4947" stroke-miterlimit="10"/>
<path d="M680.8 381.102H632V456.602H680.8V381.102Z" stroke="#969392" stroke-width="0.4823" stroke-miterlimit="10"/>
<path d="M814.407 1272.71H861.807V1187.91H814.407V1272.71Z" stroke="#969392" stroke-width="0.3977" stroke-miterlimit="10"/>
<path d="M765.672 1272.71H813.072V1187.91H765.672V1272.71Z" stroke="#969392" stroke-width="0.3977" stroke-miterlimit="10"/>
<path d="M711.304 1272.71H758.704V1187.91H711.304V1272.71Z" stroke="#969392" stroke-width="0.3977" stroke-miterlimit="10"/>
<path d="M663.57 1272.71H704.47V1187.91H663.57V1272.71Z" stroke="#969392" stroke-width="0.3694" stroke-miterlimit="10"/>
<path d="M608.419 1272.71H656.419V1187.91H608.419V1272.71Z" stroke="#969392" stroke-width="0.4001" stroke-miterlimit="10"/>
<path d="M711.247 1187.73H752.047V1102.93H711.247V1187.73Z" stroke="#969392" stroke-width="0.3687" stroke-miterlimit="10"/>
<path d="M663.518 1187.73H704.318V1102.93H663.518V1187.73Z" stroke="#969392" stroke-width="0.3687" stroke-miterlimit="10"/>
<path d="M561.189 1272.71H608.289V1187.91H561.189V1272.71Z" stroke="#969392" stroke-width="0.3963" stroke-miterlimit="10"/>
<path d="M561.213 1187.73H608.113V1102.93H561.213V1187.73Z" stroke="#969392" stroke-width="0.3956" stroke-miterlimit="10"/>
<path d="M518.113 1272.71H554.413V1187.91H518.113V1272.71Z" stroke="#969392" stroke-width="0.3481" stroke-miterlimit="10"/>
<path d="M518.078 1187.73H554.278V1102.93H518.078V1187.73Z" stroke="#969392" stroke-width="0.3474" stroke-miterlimit="10"/>
<path d="M482.005 1272.71H518.305V1187.91H482.005V1272.71Z" stroke="#969392" stroke-width="0.3481" stroke-miterlimit="10"/>
<path d="M481.97 1187.73H518.17V1102.93H481.97V1187.73Z" stroke="#969392" stroke-width="0.3474" stroke-miterlimit="10"/>
<path d="M446.146 1272.71H482.446V1187.91H446.146V1272.71Z" stroke="#969392" stroke-width="0.3481" stroke-miterlimit="10"/>
<path d="M446.111 1187.73H482.311V1102.93H446.111V1187.73Z" stroke="#969392" stroke-width="0.3474" stroke-miterlimit="10"/>
<path d="M409.79 1272.71H446.09V1187.91H409.79V1272.71Z" stroke="#969392" stroke-width="0.3481" stroke-miterlimit="10"/>
<path d="M409.754 1187.73H445.954V1102.93H409.754V1187.73Z" stroke="#969392" stroke-width="0.3474" stroke-miterlimit="10"/>
<path d="M228.11 1049.66V1092.36H303.31V1049.66H228.11Z" stroke="#969392" stroke-width="0.3554" stroke-miterlimit="10"/>
<path d="M303.482 1049.68V1092.18H378.682V1049.68H303.482Z" stroke="#969392" stroke-width="0.3547" stroke-miterlimit="10"/>
<path d="M608.697 1187.73H656.497V1102.93H608.697V1187.73Z" stroke="#969392" stroke-width="0.3993" stroke-miterlimit="10"/>
<path d="M904.181 1111.13V1068.43H802.581V1111.13H904.181Z" stroke="#969392" stroke-width="0.4132" stroke-miterlimit="10"/>
<path d="M868.132 1273.55H910.832V1188.75H868.132V1273.55Z" stroke="#969392" stroke-width="0.3774" stroke-miterlimit="10"/>
<path d="M232.608 839.033V884.133H322.108V839.033H232.608Z" stroke="#969392" stroke-width="0.5048" stroke-miterlimit="10"/>
<path d="M226.06 891.801V932.801H311.36V891.801H226.06Z" stroke="#969392" stroke-width="0.4701" stroke-miterlimit="10"/>
<path d="M412.6 804.801H374.6V880.301H412.6V804.801Z" stroke="#969392" stroke-width="0.4255" stroke-miterlimit="10"/>
<path d="M450.6 804.801H412.6V880.301H450.6V804.801Z" stroke="#969392" stroke-width="0.4255" stroke-miterlimit="10"/>
<path d="M496.3 804.703H458.3V880.203H496.3V804.703Z" stroke="#969392" stroke-width="0.4256" stroke-miterlimit="10"/>
<path d="M534.2 804.703H496.2V880.203H534.2V804.703Z" stroke="#969392" stroke-width="0.4256" stroke-miterlimit="10"/>
<path d="M572.2 804.703H534.2V880.203H572.2V804.703Z" stroke="#969392" stroke-width="0.4256" stroke-miterlimit="10"/>
<path d="M740.6 804.703H702.6V880.203H740.6V804.703Z" stroke="#969392" stroke-width="0.4256" stroke-miterlimit="10"/>
<path d="M778.5 804.703H740.5V880.203H778.5V804.703Z" stroke="#969392" stroke-width="0.4256" stroke-miterlimit="10"/>
<path d="M816.5 804.703H778.5V880.203H816.5V804.703Z" stroke="#969392" stroke-width="0.4256" stroke-miterlimit="10"/>
<path d="M830.1 931.2V894.5H744.4V931.2H830.1Z" stroke="#969392" stroke-width="0.4457" stroke-miterlimit="10"/>
<path d="M904.246 931.157V894.457H830.146V931.157H904.246Z" stroke="#969392" stroke-width="0.4144" stroke-miterlimit="10"/>
<path d="M1072.28 814.809V768.809H991.577V814.809H1072.28Z" stroke="#969392" stroke-width="0.4842" stroke-miterlimit="10"/>
<path d="M1068.44 764.319V717.219H991.539V764.319H1068.44Z" stroke="#969392" stroke-width="0.4784" stroke-miterlimit="10"/>
<path d="M904.236 981.814V942.914H797.236V981.814H904.236Z" stroke="#969392" stroke-width="0.4" stroke-miterlimit="10"/>
<path d="M904.162 1017.64V982.941H797.162V1017.64H904.162Z" stroke="#969392" stroke-width="0.4" stroke-miterlimit="10"/>
<path d="M904.205 1056.38V1018.38H797.205V1056.38H904.205Z" stroke="#969392" stroke-width="0.4" stroke-miterlimit="10"/>
<path d="M619 804.703H581V880.203H619V804.703Z" stroke="#969392" stroke-width="0.4256" stroke-miterlimit="10"/>
<path d="M656.9 804.703H618.9V880.203H656.9V804.703Z" stroke="#969392" stroke-width="0.4256" stroke-miterlimit="10"/>
<path d="M694.8 804.703H656.8V880.203H694.8V804.703Z" stroke="#969392" stroke-width="0.4256" stroke-miterlimit="10"/>
<path d="M861.1 804.703H823.1V880.203H861.1V804.703Z" stroke="#969392" stroke-width="0.4256" stroke-miterlimit="10"/>
<path d="M899.1 804.703H861.1V880.203H899.1V804.703Z" stroke="#969392" stroke-width="0.4256" stroke-miterlimit="10"/>
<path d="M744.6 378.602H706.6V456.602H744.6V378.602Z" stroke="#969392" stroke-width="0.4323" stroke-miterlimit="10"/>
<path d="M783.3 378.602H745.3V456.602H783.3V378.602Z" stroke="#969392" stroke-width="0.4323" stroke-miterlimit="10"/>
<path d="M834.8 382.102H789.8V456.602H834.8V382.102Z" stroke="#969392" stroke-width="0.46" stroke-miterlimit="10"/>
<path d="M928.6 378.902H892.6V453.402H928.6V378.902Z" stroke="#969392" stroke-width="0.4116" stroke-miterlimit="10"/>
<path d="M965.9 378.902H929.9V453.402H965.9V378.902Z" stroke="#969392" stroke-width="0.4116" stroke-miterlimit="10"/>
<path d="M983.443 454.959V499.859H1058.44V454.959H983.443Z" stroke="#969392" stroke-width="0.4614" stroke-miterlimit="10"/>
<path d="M1059.42 454.936V499.836H1134.42V454.936H1059.42Z" stroke="#969392" stroke-width="0.4614" stroke-miterlimit="10"/>
<path d="M983.483 504.72V547.32H1058.48V504.72H983.483Z" stroke="#969392" stroke-width="0.4493" stroke-miterlimit="10"/>
<path d="M996.59 625.988V662.488H1071.59V625.988H996.59Z" stroke="#969392" stroke-width="0.416" stroke-miterlimit="10"/>
<path d="M996.519 667.26V714.16H1071.52V667.26H996.519Z" stroke="#969392" stroke-width="0.4712" stroke-miterlimit="10"/>
<path d="M1059.46 504.697V547.297H1134.46V504.697H1059.46Z" stroke="#969392" stroke-width="0.4493" stroke-miterlimit="10"/>
<path d="M834.8 306.602H789.8V381.102H834.8V306.602Z" stroke="#969392" stroke-width="0.46" stroke-miterlimit="10"/>
<path d="M886.4 382.102H841.4V456.602H886.4V382.102Z" stroke="#969392" stroke-width="0.46" stroke-miterlimit="10"/>
<path d="M886.4 306.602H841.4V381.102H886.4V306.602Z" stroke="#969392" stroke-width="0.46" stroke-miterlimit="10"/>
<path d="M342.6 73.1016H260V120.802H342.6V73.1016Z" stroke="#969392" stroke-width="0.4987" stroke-miterlimit="10"/>
<path d="M425.2 81.6016H343.7V120.802H425.2V81.6016Z" stroke="#969392" stroke-width="0.4987" stroke-miterlimit="10"/>
<path d="M332.6 395.602H258.6V435.202H332.6V395.602Z" stroke="#969392" stroke-width="0.4301" stroke-miterlimit="10"/>
<path d="M369.1 363.5H333.9V456.6H369.1V363.5Z" stroke="#969392" stroke-width="0.4548" stroke-miterlimit="10"/>
<path d="M402.4 544.602H355.4V629.302H402.4V544.602Z" stroke="#969392" stroke-width="0.5011" stroke-miterlimit="10"/>
<path d="M450.4 544.602H403.4V629.302H450.4V544.602Z" stroke="#969392" stroke-width="0.5011" stroke-miterlimit="10"/>
<path d="M496.3 544.602H458.3V629.302H496.3V544.602Z" stroke="#969392" stroke-width="0.4506" stroke-miterlimit="10"/>
<path d="M534.2 544.602H496.2V629.302H534.2V544.602Z" stroke="#969392" stroke-width="0.4506" stroke-miterlimit="10"/>
<path d="M572.2 544.602H534.2V629.302H572.2V544.602Z" stroke="#969392" stroke-width="0.4506" stroke-miterlimit="10"/>
<path d="M496.3 632.402H458.3V717.102H496.3V632.402Z" stroke="#969392" stroke-width="0.4506" stroke-miterlimit="10"/>
<path d="M534.2 632.402H496.2V717.102H534.2V632.402Z" stroke="#969392" stroke-width="0.4506" stroke-miterlimit="10"/>
<path d="M412.6 632.402H374.6V717.102H412.6V632.402Z" stroke="#969392" stroke-width="0.4506" stroke-miterlimit="10"/>
<path d="M450.6 632.402H412.6V717.102H450.6V632.402Z" stroke="#969392" stroke-width="0.4506" stroke-miterlimit="10"/>
<path d="M572.2 632.402H534.2V717.102H572.2V632.402Z" stroke="#969392" stroke-width="0.4506" stroke-miterlimit="10"/>
<path d="M618.7 544.602H580.7V629.302H618.7V544.602Z" stroke="#969392" stroke-width="0.4506" stroke-miterlimit="10"/>
<path d="M656.7 544.602H618.7V629.302H656.7V544.602Z" stroke="#969392" stroke-width="0.4506" stroke-miterlimit="10"/>
<path d="M694.6 544.602H656.6V629.302H694.6V544.602Z" stroke="#969392" stroke-width="0.4506" stroke-miterlimit="10"/>
<path d="M740.6 544.602H702.6V629.302H740.6V544.602Z" stroke="#969392" stroke-width="0.4506" stroke-miterlimit="10"/>
<path d="M778.5 544.602H740.5V629.302H778.5V544.602Z" stroke="#969392" stroke-width="0.4506" stroke-miterlimit="10"/>
<path d="M816.5 544.602H778.5V629.302H816.5V544.602Z" stroke="#969392" stroke-width="0.4506" stroke-miterlimit="10"/>
<path d="M740.6 632.402H702.6V717.102H740.6V632.402Z" stroke="#969392" stroke-width="0.4506" stroke-miterlimit="10"/>
<path d="M778.5 632.402H740.5V717.102H778.5V632.402Z" stroke="#969392" stroke-width="0.4506" stroke-miterlimit="10"/>
<path d="M816.5 632.402H778.5V717.102H816.5V632.402Z" stroke="#969392" stroke-width="0.4506" stroke-miterlimit="10"/>
<path d="M619 632.402H581V717.102H619V632.402Z" stroke="#969392" stroke-width="0.4506" stroke-miterlimit="10"/>
<path d="M656.9 632.402H618.9V717.102H656.9V632.402Z" stroke="#969392" stroke-width="0.4506" stroke-miterlimit="10"/>
<path d="M694.8 632.402H656.8V717.102H694.8V632.402Z" stroke="#969392" stroke-width="0.4506" stroke-miterlimit="10"/>
<path d="M861.1 544.602H823.1V629.302H861.1V544.602Z" stroke="#969392" stroke-width="0.4506" stroke-miterlimit="10"/>
<path d="M899.1 544.602H861.1V629.302H899.1V544.602Z" stroke="#969392" stroke-width="0.4506" stroke-miterlimit="10"/>
<path d="M861.1 632.402H823.1V717.102H861.1V632.402Z" stroke="#969392" stroke-width="0.4506" stroke-miterlimit="10"/>
<path d="M899.1 632.402H861.1V717.102H899.1V632.402Z" stroke="#969392" stroke-width="0.4506" stroke-miterlimit="10"/>
<path d="M405.4 363.5H370.2V456.6H405.4V363.5Z" stroke="#969392" stroke-width="0.4548" stroke-miterlimit="10"/>
<path d="M441.7 381.703H406.5V456.603H441.7V381.703Z" stroke="#969392" stroke-width="0.4079" stroke-miterlimit="10"/>
</svg>
